<svg width="245" height="208" viewBox="0 0 245 208" fill="none" xmlns="http://www.w3.org/2000/svg">
<g clip-path="url(#clip0_234_440)">
<path d="M54.0401 208.928C39.3069 172.371 11.9511 110.753 1.46448 87.2712C-0.850409 82.0876 1.60066 76.0081 6.95493 74.1212C56.8452 56.5389 99.7939 60.0817 99.7939 60.0817L168.046 198.005C168.046 198.005 114.229 202.982 66.0659 215.015C61.101 216.255 55.953 213.675 54.0401 208.928Z" fill="#170338"/>
<path d="M61.759 208.03C61.759 208.03 65.2354 204.991 64.4248 202.873C47.5741 158.857 23.137 106.752 13.9772 87.5492L24.5963 74.7401L10.8874 81.2912L9.3192 84.3248L61.759 208.03Z" fill="#A49C8B"/>
<path d="M249.011 112.349C228.778 78.5239 196.199 19.5011 183.82 -3.04106C181.088 -8.0172 174.763 -9.73556 170.022 -6.61329C125.549 22.6727 99.8966 60.2589 99.8966 60.2589L167.021 197.629C167.021 197.629 207.443 156.814 246.587 125.593C250.588 122.402 251.638 116.74 249.011 112.349Z" fill="#170338"/>
<path d="M243.75 117.284C243.75 117.284 236.876 110.016 235.007 111.299C186.23 144.786 163.634 187.626 163.634 187.626L166.999 188.209L243.75 117.284Z" fill="#A49C8B"/>
<path d="M243.634 117.958C243.634 117.958 239.111 118.892 237.914 116.967C212.974 76.8818 186.164 25.828 176.435 7.00414L165.366 4.24052L173.4 1.35006L176.765 1.93293L243.634 117.958Z" fill="#A49C8B"/>
<path d="M61.1523 207.717C61.1523 207.717 60.8018 196.347 62.9535 195.632C119.106 176.99 165.606 186.364 165.606 186.364L167.148 188.341L61.1523 207.717Z" fill="#A49C8B"/>
<path d="M233.533 108.651C214.194 75.7709 195.154 43.0451 177.609 8.68686C175.157 3.88569 169.406 1.86113 164.676 4.4485C147.383 13.9095 109.508 37.915 104.092 69.178L163.635 187.627C182.217 162.218 216.443 133.529 231.087 121.766C235.032 118.597 236.098 113.013 233.533 108.651Z" fill="#FFFFE5"/>
<path d="M60.4485 194.37C45.9263 159.092 31.3468 124.146 14.5629 89.4048C12.2178 84.5507 14.0789 78.744 18.9978 76.538C36.9843 68.4716 78.9943 52.7896 107.18 67.3593L164.825 186.664C133.406 186.124 90.4272 195.856 72.3635 200.349C67.4579 201.569 62.3728 199.044 60.4485 194.37Z" fill="#FFFFE5"/>
<path d="M104.155 65.1599L165.341 186.793" stroke="#A49C8B" stroke-width="3"/>
</g>
<defs>
<clipPath id="clip0_234_440">
<rect width="245" height="208" fill="white"/>
</clipPath>
</defs>
</svg>
