<svg width="1194" height="195" viewBox="0 0 1194 195" fill="none" xmlns="http://www.w3.org/2000/svg">
<g clip-path="url(#clip0_237_1406)">
<path d="M46.8324 189.69C33.9227 157.723 9.9528 103.842 0.764126 83.3088C-1.26424 78.776 0.88345 73.4599 5.57501 71.8099C49.2903 56.4352 86.9231 59.5332 86.9231 59.5332L146.728 180.139C146.728 180.139 99.5716 184.491 57.3697 195.013C53.0193 196.097 48.5085 193.841 46.8324 189.69Z" fill="#170338"/>
<path d="M53.5957 188.905C53.5957 188.905 56.6418 186.248 55.9315 184.396C41.1665 145.906 19.754 100.344 11.728 83.5519L21.0327 72.3511L9.02059 78.0796L7.64648 80.7323L53.5957 188.905Z" fill="#A49C8B"/>
<path d="M217.671 105.238C199.942 75.6597 171.396 24.0478 160.549 4.33609C158.155 -0.0152481 152.613 -1.51785 148.459 1.21239C109.49 26.8212 87.0127 59.6881 87.0127 59.6881L145.829 179.81C145.829 179.81 181.248 144.12 215.547 116.819C219.053 114.028 219.973 109.077 217.671 105.238Z" fill="#170338"/>
<path d="M213.062 109.553C213.062 109.553 207.039 103.198 205.401 104.32C162.662 133.602 142.862 171.063 142.862 171.063L145.811 171.573L213.062 109.553Z" fill="#A49C8B"/>
<path d="M212.96 110.142C212.96 110.142 208.996 110.959 207.947 109.276C186.094 74.2237 162.603 29.5803 154.078 13.1199L144.379 10.7033L151.419 8.17578L154.367 8.68547L212.96 110.142Z" fill="#A49C8B"/>
<path d="M53.0644 188.631C53.0644 188.631 52.7573 178.689 54.6427 178.064C103.845 161.762 144.59 169.959 144.59 169.959L145.941 171.688L53.0644 188.631Z" fill="#A49C8B"/>
<path d="M204.109 102.004C187.164 73.2524 170.481 44.6357 155.107 14.5915C152.959 10.3931 147.919 8.62278 143.775 10.8853C128.622 19.1583 95.4351 40.1497 90.6895 67.4873L142.863 171.064C159.145 148.845 189.135 123.758 201.966 113.472C205.423 110.701 206.357 105.818 204.109 102.004Z" fill="#FFFFE5"/>
<path d="M52.448 176.96C39.7232 146.112 26.9483 115.553 12.2418 85.1744C10.1869 80.9298 11.8177 75.8522 16.1277 73.9232C31.888 66.8696 68.6983 53.1566 93.3954 65.897L143.906 170.222C116.375 169.75 78.7162 178.26 62.8883 182.188C58.5898 183.255 54.1341 181.047 52.448 176.96Z" fill="#FFFFE5"/>
<path d="M90.7441 63.9736L144.357 170.334" stroke="#A49C8B" stroke-width="3"/>
<path d="M373.767 189.69C360.857 157.723 336.887 103.842 327.699 83.3088C325.67 78.776 327.818 73.4599 332.51 71.8099C376.225 56.4352 413.858 59.5332 413.858 59.5332L473.662 180.139C473.662 180.139 426.506 184.491 384.304 195.013C379.954 196.097 375.443 193.841 373.767 189.69Z" fill="#170338"/>
<path d="M380.53 188.905C380.53 188.905 383.576 186.248 382.866 184.396C368.101 145.906 346.689 100.344 338.663 83.5519L347.967 72.3511L335.955 78.0796L334.581 80.7323L380.53 188.905Z" fill="#A49C8B"/>
<path d="M544.605 105.238C526.877 75.6597 498.33 24.0478 487.483 4.33609C485.089 -0.0152481 479.547 -1.51785 475.393 1.21239C436.425 26.8212 413.947 59.6881 413.947 59.6881L472.764 179.81C472.764 179.81 508.182 144.12 542.481 116.819C545.987 114.028 546.907 109.077 544.605 105.238Z" fill="#170338"/>
<path d="M539.997 109.553C539.997 109.553 533.974 103.198 532.336 104.32C489.596 133.602 469.797 171.063 469.797 171.063L472.745 171.573L539.997 109.553Z" fill="#A49C8B"/>
<path d="M539.894 110.142C539.894 110.142 535.931 110.959 534.882 109.276C513.029 74.2237 489.537 29.5803 481.012 13.1199L471.313 10.7033L478.353 8.17578L481.302 8.68547L539.894 110.142Z" fill="#A49C8B"/>
<path d="M379.999 188.631C379.999 188.631 379.692 178.689 381.577 178.064C430.78 161.762 471.524 169.959 471.524 169.959L472.875 171.688L379.999 188.631Z" fill="#A49C8B"/>
<path d="M531.044 102.004C514.098 73.2524 497.415 44.6357 482.042 14.5915C479.893 10.3931 474.854 8.62278 470.709 10.8853C455.557 19.1583 422.37 40.1497 417.624 67.4873L469.797 171.064C486.079 148.845 516.069 123.758 528.901 113.472C532.357 110.701 533.291 105.818 531.044 102.004Z" fill="#FFFFE5"/>
<path d="M379.383 176.96C366.658 146.112 353.883 115.553 339.176 85.1744C337.121 80.9298 338.752 75.8522 343.062 73.9232C358.823 66.8696 395.633 53.1566 420.33 65.897L470.84 170.222C443.31 169.75 405.651 178.26 389.823 182.188C385.524 183.255 381.069 181.047 379.383 176.96Z" fill="#FFFFE5"/>
<path d="M388.27 144.72C375.545 113.871 373.623 107.767 358.916 77.3877C356.861 73.1431 348.402 57.623 350.154 56.8385C365.915 49.785 395.632 53.1567 420.329 65.897L470.84 170.222C457.93 167.455 430.767 148.918 396.594 157.399C392.296 158.466 389.956 148.807 388.27 144.72Z" fill="#B2A2FF"/>
<path d="M417.679 63.9736L471.292 170.334" stroke="#A49C8B" stroke-width="3"/>
<path d="M700.701 189.849C687.792 157.882 663.822 104.001 654.633 83.4677C652.605 78.935 654.753 73.6188 659.444 71.9688C703.159 56.5942 740.792 59.6921 740.792 59.6921L800.597 180.298C800.597 180.298 753.441 184.65 711.239 195.172C706.888 196.256 702.378 194 700.701 189.849Z" fill="#170338"/>
<path d="M707.465 189.064C707.465 189.064 710.511 186.407 709.801 184.554C695.036 146.065 673.623 100.502 665.597 83.7108L674.902 72.51L662.89 78.2386L661.516 80.8913L707.465 189.064Z" fill="#A49C8B"/>
<path d="M871.54 105.397C853.811 75.8186 825.265 24.2068 814.418 4.49502C812.024 0.143687 806.482 -1.35891 802.328 1.37132C763.359 26.9801 740.882 59.847 740.882 59.847L799.698 179.969C799.698 179.969 835.117 144.279 869.416 116.978C872.922 114.187 873.842 109.236 871.54 105.397Z" fill="#170338"/>
<path d="M866.931 109.712C866.931 109.712 860.908 103.357 859.27 104.479C816.531 133.761 796.731 171.222 796.731 171.222L799.68 171.732L866.931 109.712Z" fill="#A49C8B"/>
<path d="M866.829 110.301C866.829 110.301 862.865 111.118 861.817 109.435C839.964 74.3827 816.472 29.7392 807.947 13.2789L798.248 10.8622L805.288 8.33472L808.236 8.8444L866.829 110.301Z" fill="#A49C8B"/>
<path d="M706.934 188.79C706.934 188.79 706.626 178.848 708.512 178.223C757.714 161.921 798.459 170.118 798.459 170.118L799.81 171.847L706.934 188.79Z" fill="#A49C8B"/>
<path d="M857.978 102.163C841.033 73.4113 824.35 44.7946 808.976 14.7504C806.828 10.5521 801.789 8.78171 797.644 11.0442C782.491 19.3173 749.304 40.3086 744.559 67.6462L796.732 171.223C813.014 149.004 843.004 123.917 855.835 113.631C859.292 110.86 860.226 105.977 857.978 102.163Z" fill="#FFFFE5"/>
<path d="M706.317 177.119C693.592 146.271 680.817 115.712 666.111 85.3334C664.056 81.0887 665.687 76.0111 669.997 74.0821C685.757 67.0285 722.567 53.3156 747.265 66.0559L797.775 170.381C770.245 169.908 732.585 178.418 716.757 182.347C712.459 183.414 708.003 181.206 706.317 177.119Z" fill="#FFFFE5"/>
<path d="M744.613 64.1326L798.226 170.493" stroke="#A49C8B" stroke-width="3"/>
<path d="M757.264 113.399C752.883 103.78 750.941 102.242 736.234 71.8628C734.179 67.6182 715.205 35.1364 717.395 33.8247C731.414 47.3785 736.595 57.5577 743.682 64.4301L797.775 170.381C789.246 156.683 778.731 144.004 766.902 132.636C763.712 129.57 761.645 123.018 757.264 113.399Z" fill="#B2A2FF"/>
<path d="M1027.64 189.69C1014.73 157.723 990.757 103.842 981.568 83.3088C979.539 78.776 981.687 73.4599 986.379 71.8099C1030.09 56.4352 1067.73 59.5332 1067.73 59.5332L1127.53 180.139C1127.53 180.139 1080.38 184.491 1038.17 195.013C1033.82 196.097 1029.31 193.841 1027.64 189.69Z" fill="#170338"/>
<path d="M1034.4 188.905C1034.4 188.905 1037.45 186.248 1036.74 184.396C1021.97 145.906 1000.56 100.344 992.532 83.5519L1001.84 72.3511L989.824 78.0796L988.45 80.7323L1034.4 188.905Z" fill="#A49C8B"/>
<path d="M1198.47 105.238C1180.75 75.6597 1152.2 24.0478 1141.35 4.33609C1138.96 -0.0152481 1133.42 -1.51785 1129.26 1.21239C1090.29 26.8212 1067.82 59.6881 1067.82 59.6881L1126.63 179.81C1126.63 179.81 1162.05 144.12 1196.35 116.819C1199.86 114.028 1200.78 109.077 1198.47 105.238Z" fill="#170338"/>
<path d="M1193.87 109.553C1193.87 109.553 1187.84 103.198 1186.21 104.32C1143.47 133.602 1123.67 171.063 1123.67 171.063L1126.61 171.573L1193.87 109.553Z" fill="#A49C8B"/>
<path d="M1193.76 110.142C1193.76 110.142 1189.8 110.959 1188.75 109.276C1166.9 74.2237 1143.41 29.5803 1134.88 13.1199L1125.18 10.7033L1132.22 8.17578L1135.17 8.68547L1193.76 110.142Z" fill="#A49C8B"/>
<path d="M1033.87 188.631C1033.87 188.631 1033.56 178.689 1035.45 178.064C1084.65 161.762 1125.39 169.959 1125.39 169.959L1126.74 171.688L1033.87 188.631Z" fill="#A49C8B"/>
<path d="M1184.91 102.004C1167.97 73.2524 1151.28 44.6357 1135.91 14.5915C1133.76 10.3931 1128.72 8.62278 1124.58 10.8853C1109.43 19.1583 1076.24 40.1497 1071.49 67.4873L1123.67 171.064C1139.95 148.845 1169.94 123.758 1182.77 113.472C1186.23 110.701 1187.16 105.818 1184.91 102.004Z" fill="#FFFFE5"/>
<path d="M1033.25 176.96C1020.53 146.112 1007.75 115.553 993.045 85.1744C990.991 80.9298 992.621 75.8522 996.931 73.9232C1012.69 66.8696 1049.5 53.1566 1074.2 65.897L1124.71 170.222C1097.18 169.75 1059.52 178.26 1043.69 182.188C1039.39 183.255 1034.94 181.047 1033.25 176.96Z" fill="#FFFFE5"/>
<path d="M1071.55 63.9736L1125.16 170.334" stroke="#A49C8B" stroke-width="3"/>
<path d="M1165.25 71.704C1159.99 60.3363 1158.93 63.1705 1144.22 32.7915C1142.17 28.5469 1132.83 12.2421 1127.57 8.74438C1114.43 13.1166 1063.53 57.3989 1070.62 64.2713L1124.71 170.222C1131.08 145.594 1173.57 120.673 1185.4 106.682C1187.25 104.495 1170.51 83.0717 1165.25 71.704Z" fill="#B2A2FF"/>
</g>
<defs>
<clipPath id="clip0_237_1406">
<rect width="1194" height="195" fill="white"/>
</clipPath>
</defs>
</svg>
