<svg width="1920" height="1080" viewBox="0 0 1920 1080" fill="none" xmlns="http://www.w3.org/2000/svg">
<circle cx="950" cy="612" r="416" fill="#B2A2FF"/>
<path d="M1311 559.5C1311 757.494 1150.49 918 952.5 918C754.506 918 594 757.494 594 559.5C594 559.5 754.506 650.5 952.5 650.5C1150.49 650.5 1311 559.5 1311 559.5Z" fill="#E41F37"/>
<path d="M1385 547C1385 768.742 1169.5 879.5 955 911C741 879 498 774.242 498 552.5C498 330.758 734.758 172 956.5 172C1178.24 172 1385 325.258 1385 547Z" fill="#FFFFE5"/>
<path d="M1298.5 561.5C1298.5 754.247 1142.25 910.5 949.5 910.5C756.753 910.5 600.5 754.247 600.5 561.5C600.5 536.879 602.936 522.847 606.51 515.972C608.155 512.808 609.605 512.001 610.436 511.742C611.413 511.436 613.298 511.343 616.705 512.774C623.799 515.754 633.419 523.574 645.751 535.826C656.71 546.714 669.103 560.356 682.942 575.592C684.401 577.198 685.876 578.822 687.367 580.462C718.463 614.665 756.171 655.552 798.597 687.858C840.981 720.132 888.909 744.5 940.5 744.5C992.052 744.5 1041.08 720.163 1085.1 687.943C1129.18 655.68 1169.13 614.832 1202.45 580.652L1203.63 579.446C1219.9 562.753 1234.49 547.785 1247.33 536.039C1260.68 523.828 1271.28 515.915 1279.26 512.864C1283.12 511.385 1285.57 511.367 1287.1 511.799C1288.43 512.177 1290.1 513.189 1291.87 516.259C1295.78 523.029 1298.5 536.917 1298.5 561.5Z" stroke="#E41F37" stroke-width="15"/>
<path fill-rule="evenodd" clip-rule="evenodd" d="M652.015 410.702C668.65 407.334 685.417 403.94 695.5 392.5C707.627 378.741 708.234 364.33 708.829 350.23C709.509 334.098 710.172 318.374 728.048 304.5C747.2 289.636 763.978 294.484 783.98 300.263C798.806 304.546 815.402 309.341 836.048 307C858.761 304.424 872.812 289.128 887.083 273.59C903.286 255.95 919.774 238 949.547 238V425.5L662.548 535.5L601.048 458C599.823 421.268 625.754 416.018 652.015 410.702ZM1250.84 416.851C1234.36 415.099 1217.4 413.297 1207 401.5C1194.93 387.806 1193.54 371.526 1192.16 355.411C1190.57 336.811 1189 318.431 1171.05 304.5C1151.9 289.636 1135.12 294.484 1115.12 300.263C1100.29 304.546 1083.69 309.341 1063.05 307C1040.33 304.424 1026.28 289.128 1012.01 273.59C995.81 255.95 979.322 238 949.548 238V425.5L1236.55 535.5L1298.05 458C1299.25 421.994 1275.58 419.479 1250.84 416.851Z" fill="#FC4F64"/>
<path d="M1244 605.5C1244 768.148 1112.15 707 949.5 707C786.852 707 655 768.148 655 605.5C655 442.852 786.852 311 949.5 311C1112.15 311 1244 442.852 1244 605.5Z" fill="#B2A2FF"/>
<path d="M1220.5 874.5C1243.41 885.227 1264.5 912.5 1264.5 912.5L1260 917.5L1207.5 921L1101 854.5C1101 854.5 1181.1 856.051 1220.5 874.5Z" fill="#0C001F" stroke="black"/>
<path d="M774 955C720 931 761.5 861.5 761.5 861.5C761.5 861.5 835.5 916 947.5 917C1059.5 918 1139 860.5 1139 860.5C1139 860.5 1177 938 1116.5 957.5C1071 968 1055.5 928.5 1055.5 928.5C1055.5 928.5 1061.5 972.5 1008.5 985.5C955.5 982 947.5 928.5 947.5 928.5C947.5 928.5 945.5 988.5 885.5 985.5C835 979 843 928.5 843 928.5C843 928.5 829.5 971.5 774 955Z" fill="#0C001F"/>
<path d="M677 874.5C654.093 885.227 633 912.5 633 912.5L637.5 917.5L690 921L800 853.5C800 853.5 716.399 856.051 677 874.5Z" fill="#0C001F" stroke="black"/>
<path d="M947.952 868L923.828 771.756L917 746H983L947.952 868Z" fill="#0C001F"/>
<path d="M248.5 447C244 386 256.001 357 293.5 327L950 758.5L800 854.526C800 854.526 662.5 875 636 912.5C654.5 924.5 781.5 866.084 781.5 866.084L696 919.5C696 919.5 619.709 967.164 544.5 1006.81C540.86 1008.72 639 933 636 912.5C589 912.5 525.845 1016.48 522 1018.43C494.684 1032.22 468.564 1044.17 447.5 1051.5C422.325 1060.26 413.475 1055.37 407 1048C402.054 1041.04 403.535 1031.48 409.253 1020.5C412.065 1015.1 415.9 1009.37 420.5 1003.43C425.013 997.6 430.261 991.58 436 985.5C477.46 941.571 544.5 894.5 544.5 894.5C544.5 894.5 493.307 891.506 470 872C456.194 860.445 446.741 852.497 442.5 835C440.598 827.151 440.364 819.986 441.284 813.5L441.305 813.356C441.506 811.915 442.539 804.539 443.5 805.5C447 826 482.002 846.397 500 818C500.46 816.938 488.5 820 478 814.5C467.5 809 456 794.5 455.5 790C455 785.5 457.19 781.844 460.19 779C469.008 770.64 477.5 766.5 477.5 766.5C477.5 766.5 442.5 764 420.5 751C419.624 749.566 412.788 745.929 414 745C443.944 750.989 454.974 742.024 462.956 735.537L463 735.5C472.5 727.779 472.682 697.739 470 695.5C467.367 693.302 456.5 716 442.5 722.919C428.5 729.838 392.544 725.71 390 721C374.503 692.309 369.105 664.925 387.5 638C397.307 623.647 429.5 600 429.5 600C429.5 600 383 589.5 377 588C371 586.5 355.567 580.167 356 578C370 579 387.5 580 402.5 560C410.921 548.772 412.801 529.859 410.5 516.5C408.703 506.063 400.5 500.602 399.5 500C397.765 498.955 399.565 514.066 384 529C362.662 549.475 327.32 559.654 325 558L321 529C321 529 271.883 520.127 268.145 513.5C256.836 493.449 250.26 470.85 248.5 447Z" fill="#7464BF"/>
<path d="M476 766.5C459.5 769.5 452.16 781 455.5 789.5C466.501 817.5 486.5 819 500 817.5C531 812.5 515 789.5 515 789.5L576.5 771.5L476 766.5Z" fill="#BBADFF"/>
<path d="M396.5 675C396.839 687.926 405 707 405 707L448 681.5C448 681.5 459.742 693.225 469.5 695.5C482.645 698.564 491.787 694.512 503 687C503 687 536.5 660.5 515 612.5L457 605.5C457 605.5 395.594 640.411 396.5 675Z" fill="#BBADFF"/>
<path d="M438.603 665.324C424.172 655.168 412.596 702.279 412.596 702.279L448.103 681.779C448.103 681.779 444.671 669.594 438.603 665.324Z" fill="#FFFF00"/>
<path d="M466.664 783.591C460.408 792.481 489.427 799.611 489.427 799.611L476.799 777.74C476.799 777.74 469.294 779.854 466.664 783.591Z" fill="#FFFF00"/>
<path d="M497.721 641.424C482.364 631.802 466.596 681.333 466.596 681.333L507.221 657.878C507.221 657.878 504.179 645.469 497.721 641.424Z" fill="#FFFF00"/>
<circle cx="517.5" cy="534.5" r="28.5" fill="#D9D9D9"/>
<path d="M425.5 599.5C618 637.5 686.5 584.5 686.5 584.5" stroke="#0C001F"/>
<path d="M470 766C681 784 778 744.5 832 680.5" stroke="#0C001F"/>
<path d="M537.5 899C714.5 778 790 800 921.5 739.5" stroke="#0C001F"/>
<path d="M663.501 570.5C658.5 602.5 462.001 591.5 446.001 578.84C430.001 566.18 436 474 517.5 474L663.501 570.5Z" fill="#FC4F64"/>
<path d="M704 596.5C658.501 651 594.001 630 540.001 673C486 716 619.405 756.437 684 744C752.783 730.757 809.426 690.5 823.5 676L704 596.5Z" fill="#FC4F64"/>
<path d="M938.5 751.5L840.579 687C789.386 757.069 733 789.672 653.5 791.5C574 793.328 546.5 803 529 834C511.5 865 556.905 879.937 621.5 867.5C658.491 860.378 734 827 795.5 799.5C857 772 931.994 758.202 938.5 751.5Z" fill="#FC4F64"/>
<path d="M447.196 653.456C446.311 657.194 441.089 661.005 441.089 661.005C441.089 661.005 438.133 655.257 439.019 651.518C439.905 647.78 445.126 643.969 445.126 643.969C445.126 643.969 448.082 649.717 447.196 653.456Z" fill="#E41F37"/>
<path d="M550.5 929C543.262 948.603 555.5 973.5 555.5 973.5C571.641 952.947 589.589 936.358 607.633 923C616.127 916.713 624.5 913.5 636 912.5C648 899 658.047 894.205 669 889.5C703.365 874.739 709 874.5 709 874.5C694 850 668 853.5 668 853.5L602 870C602 870 562.5 896.5 550.5 929Z" fill="#BBADFF"/>
<path d="M490.576 629.216C491.902 632.822 489.654 638.882 489.654 638.882C489.654 638.882 484.015 635.723 482.688 632.117C481.362 628.511 483.61 622.451 483.61 622.451C483.61 622.451 489.249 625.61 490.576 629.216Z" fill="#E41F37"/>
<path d="M499.205 620.482C498.921 624.313 494.367 628.901 494.367 628.901C494.367 628.901 490.54 623.692 490.824 619.861C491.108 616.029 495.661 611.441 495.661 611.441C495.661 611.441 499.489 616.65 499.205 620.482Z" fill="#E41F37"/>
<path d="M505.779 632.378C505.236 636.181 500.381 640.449 500.381 640.449C500.381 640.449 496.916 634.992 497.46 631.189C498.003 627.385 502.858 623.117 502.858 623.117C502.858 623.117 506.323 628.574 505.779 632.378Z" fill="#E41F37"/>
<path d="M497.622 807.644C495.154 806.219 493.558 801.699 493.558 801.699C493.558 801.699 498.271 800.822 500.739 802.246C503.206 803.671 504.803 808.192 504.803 808.192C504.803 808.192 500.09 809.069 497.622 807.644Z" fill="#E41F37"/>
<path d="M590.349 898.451C587.562 897.856 584.65 894.048 584.65 894.048C584.65 894.048 588.864 891.761 591.651 892.356C594.437 892.951 597.349 896.76 597.349 896.76C597.349 896.76 593.135 899.046 590.349 898.451Z" fill="#E41F37"/>
<path d="M625.892 874.634C625.681 871.793 628.519 867.929 628.519 867.929C628.519 867.929 631.897 871.331 632.107 874.173C632.318 877.015 629.48 880.879 629.48 880.879C629.48 880.879 626.102 877.476 625.892 874.634Z" fill="#E41F37"/>
<path d="M566.688 946.951C566.688 946.951 556.172 935.623 579.555 913.574C586.111 907.393 591.618 903.923 596.149 902.129L604.861 911.513C604.861 911.513 573.526 936.241 566.688 946.951Z" fill="#FFFF00"/>
<path d="M688.188 871.578C688.188 871.578 682.428 857.234 652.512 868.979C644.124 872.272 638.637 875.773 635.082 879.107L639.853 890.988C639.853 890.988 675.585 873.194 688.188 871.578Z" fill="#FFFF00"/>
<path d="M1652 447C1656.5 386 1644.5 357 1607 327L950 760.5L1100.5 854.526C1100.5 854.526 1238 875 1264.5 912.5C1246 924.5 1119 866.084 1119 866.084L1204.5 919.5C1204.5 919.5 1280.79 967.164 1356 1006.81C1359.64 1008.72 1261.5 933 1264.5 912.5C1311.5 912.5 1374.66 1016.48 1378.5 1018.43C1405.82 1032.22 1431.94 1044.17 1453 1051.5C1478.17 1060.26 1487.03 1055.37 1493.5 1048C1498.45 1041.04 1496.97 1031.48 1491.25 1020.5C1488.44 1015.1 1484.6 1009.37 1480 1003.43C1475.49 997.6 1470.24 991.58 1464.5 985.5C1423.04 941.571 1356 894.5 1356 894.5C1356 894.5 1407.19 891.506 1430.5 872C1444.31 860.445 1453.76 852.497 1458 835C1459.9 827.151 1460.14 819.986 1459.22 813.5L1459.2 813.356C1458.99 811.915 1457.96 804.539 1457 805.5C1453.5 826 1418.5 846.397 1400.5 818C1400.04 816.938 1412 820 1422.5 814.5C1433 809 1444.5 794.5 1445 790C1445.5 785.5 1443.31 781.844 1440.31 779C1431.49 770.64 1423 766.5 1423 766.5C1423 766.5 1458 764 1480 751C1480.88 749.566 1487.71 745.929 1486.5 745C1456.56 750.989 1445.53 742.024 1437.54 735.537L1437.5 735.5C1428 727.779 1427.82 697.739 1430.5 695.5C1433.13 693.302 1444 716 1458 722.919C1472 729.838 1507.96 725.71 1510.5 721C1526 692.309 1531.4 664.925 1513 638C1503.19 623.647 1471 600 1471 600C1471 600 1517.5 589.5 1523.5 588C1529.5 586.5 1544.93 580.167 1544.5 578C1530.5 579 1513 580 1498 560C1489.58 548.772 1487.7 529.859 1490 516.5C1491.8 506.063 1500 500.602 1501 500C1502.74 498.955 1500.94 514.066 1516.5 529C1537.84 549.475 1573.18 559.654 1575.5 558L1579.5 529C1579.5 529 1628.62 520.127 1632.36 513.5C1643.66 493.449 1650.24 470.85 1652 447Z" fill="#7464BF"/>
<path d="M1424.5 766.5C1441 769.5 1448.34 781 1445 789.5C1434 817.5 1414 819 1400.5 817.5C1369.5 812.5 1385.5 789.5 1385.5 789.5L1324 771.5L1424.5 766.5Z" fill="#BBADFF"/>
<path d="M1504 675C1503.66 687.926 1495.5 707 1495.5 707L1452.5 681.5C1452.5 681.5 1440.76 693.225 1431 695.5C1417.86 698.564 1408.71 694.512 1397.5 687C1397.5 687 1364 660.5 1385.5 612.5L1443.5 605.5C1443.5 605.5 1504.91 640.411 1504 675Z" fill="#BBADFF"/>
<path d="M1461.9 665.324C1476.33 655.168 1487.9 702.279 1487.9 702.279L1452.4 681.779C1452.4 681.779 1455.83 669.594 1461.9 665.324Z" fill="#FFFF00"/>
<path d="M1433.84 783.591C1440.09 792.481 1411.07 799.611 1411.07 799.611L1423.7 777.74C1423.7 777.74 1431.21 779.854 1433.84 783.591Z" fill="#FFFF00"/>
<path d="M1402.78 641.424C1418.14 631.803 1433.9 681.334 1433.9 681.334L1393.28 657.879C1393.28 657.879 1396.32 645.47 1402.78 641.424Z" fill="#FFFF00"/>
<path d="M1624.39 422.5C1626.29 493.5 1602.89 524.5 1602.89 524.5L1573 506.5C1573 506.5 1533.88 538.146 1520.5 532C1502 523.5 1463 422.5 1463 422.5L1583.5 343C1583.5 343 1622.89 366.5 1624.39 422.5Z" fill="#BBADFF"/>
<path d="M1572.74 506.484C1572.74 506.484 1594.15 495.662 1580 466.805C1576.03 458.715 1571.48 453.849 1566.98 451.034L1549.24 459.999L1572.74 506.484Z" fill="#FFFF00"/>
<path d="M1237 570.5C1242 602.5 1438.5 591.5 1454.5 578.84C1470.5 566.18 1464.5 474 1383 474L1237 570.5Z" fill="#FC4F64"/>
<path d="M1196.5 596.5C1242 651 1306.5 630 1360.5 673C1414.5 716 1281.09 756.437 1216.5 744C1147.72 730.757 1091.07 690.5 1077 676L1196.5 596.5Z" fill="#FC4F64"/>
<path d="M1593.92 503.377C1590.59 501.456 1584.24 502.639 1584.24 502.639C1584.24 502.639 1586.39 508.734 1589.72 510.655C1593.04 512.576 1599.4 511.393 1599.4 511.393C1599.4 511.393 1597.25 505.298 1593.92 503.377Z" fill="#E41F37"/>
<path d="M1597.75 484C1593.9 484 1588.99 488.202 1588.99 488.202C1588.99 488.202 1593.9 492.404 1597.75 492.404C1601.59 492.404 1606.5 488.202 1606.5 488.202C1606.5 488.202 1601.59 484 1597.75 484Z" fill="#E41F37"/>
<path d="M1468.12 648.456C1467.12 652.167 1469.91 657.999 1469.91 657.999C1469.91 657.999 1475.24 654.342 1476.23 650.631C1477.23 646.92 1474.44 641.088 1474.44 641.088C1474.44 641.088 1469.11 644.745 1468.12 648.456Z" fill="#E41F37"/>
<path d="M1458.77 636.013C1459.4 639.803 1464.35 643.96 1464.35 643.96C1464.35 643.96 1467.69 638.426 1467.06 634.636C1466.44 630.846 1461.48 626.689 1461.48 626.689C1461.48 626.689 1458.14 632.223 1458.77 636.013Z" fill="#E41F37"/>
<path d="M428.383 654.456C429.378 658.167 426.59 663.999 426.59 663.999C426.59 663.999 421.26 660.342 420.266 656.631C419.271 652.92 422.059 647.088 422.059 647.088C422.059 647.088 427.389 650.745 428.383 654.456Z" fill="#E41F37"/>
<path d="M437.725 642.013C437.096 645.803 432.145 649.96 432.145 649.96C432.145 649.96 428.805 644.426 429.435 640.636C430.065 636.846 435.015 632.689 435.015 632.689C435.015 632.689 438.355 638.223 437.725 642.013Z" fill="#E41F37"/>
<path d="M1453.3 653.456C1454.19 657.194 1459.41 661.005 1459.41 661.005C1459.41 661.005 1462.37 655.257 1461.48 651.518C1460.6 647.78 1455.37 643.969 1455.37 643.969C1455.37 643.969 1452.42 649.717 1453.3 653.456Z" fill="#E41F37"/>
<path d="M1350 929C1357.24 948.603 1345 973.5 1345 973.5C1328.86 952.947 1310.91 936.358 1292.87 923C1284.37 916.713 1276 913.5 1264.5 912.5C1252.5 899 1242.45 894.205 1231.5 889.5C1197.14 874.739 1191.5 874.5 1191.5 874.5C1206.5 850 1232.5 853.5 1232.5 853.5L1298.5 870C1298.5 870 1338 896.5 1350 929Z" fill="#BBADFF"/>
<path d="M1409.92 629.216C1408.6 632.822 1410.85 638.882 1410.85 638.882C1410.85 638.882 1416.49 635.723 1417.81 632.117C1419.14 628.511 1416.89 622.451 1416.89 622.451C1416.89 622.451 1411.25 625.61 1409.92 629.216Z" fill="#E41F37"/>
<path d="M1401.3 620.482C1401.58 624.313 1406.13 628.901 1406.13 628.901C1406.13 628.901 1409.96 623.692 1409.68 619.861C1409.39 616.029 1404.84 611.441 1404.84 611.441C1404.84 611.441 1401.01 616.65 1401.3 620.482Z" fill="#E41F37"/>
<path d="M1394.72 632.378C1395.26 636.181 1400.12 640.449 1400.12 640.449C1400.12 640.449 1403.58 634.992 1403.04 631.189C1402.5 627.385 1397.64 623.117 1397.64 623.117C1397.64 623.117 1394.18 628.574 1394.72 632.378Z" fill="#E41F37"/>
<path d="M1402.88 807.644C1405.35 806.219 1406.94 801.699 1406.94 801.699C1406.94 801.699 1402.23 800.822 1399.76 802.246C1397.29 803.671 1395.7 808.192 1395.7 808.192C1395.7 808.192 1400.41 809.069 1402.88 807.644Z" fill="#E41F37"/>
<path d="M1310.15 898.452C1312.94 897.856 1315.85 894.048 1315.85 894.048C1315.85 894.048 1311.64 891.761 1308.85 892.356C1306.06 892.951 1303.15 896.76 1303.15 896.76C1303.15 896.76 1307.36 899.047 1310.15 898.452Z" fill="#E41F37"/>
<path d="M1274.61 874.634C1274.82 871.793 1271.98 867.929 1271.98 867.929C1271.98 867.929 1268.6 871.331 1268.39 874.173C1268.18 877.015 1271.02 880.879 1271.02 880.879C1271.02 880.879 1274.4 877.476 1274.61 874.634Z" fill="#E41F37"/>
<path d="M1594.87 462.266C1591.16 463.26 1587.5 468.59 1587.5 468.59C1587.5 468.59 1593.33 471.378 1597.04 470.383C1600.76 469.389 1604.41 464.059 1604.41 464.059C1604.41 464.059 1598.58 461.271 1594.87 462.266Z" fill="#E41F37"/>
<path d="M1582.37 443.19C1579.65 445.907 1579.15 452.352 1579.15 452.352C1579.15 452.352 1585.59 451.849 1588.31 449.133C1591.03 446.416 1591.53 439.971 1591.53 439.971C1591.53 439.971 1585.08 440.474 1582.37 443.19Z" fill="#E41F37"/>
<path d="M1561.12 434.456C1560.12 438.167 1562.91 443.999 1562.91 443.999C1562.91 443.999 1568.24 440.342 1569.23 436.631C1570.23 432.92 1567.44 427.088 1567.44 427.088C1567.44 427.088 1562.11 430.745 1561.12 434.456Z" fill="#E41F37"/>
<path d="M278.11 422.5C276.208 493.5 299.61 524.5 299.61 524.5L329.5 506.5C329.5 506.5 368.623 538.146 382 532C400.5 523.5 439.5 422.5 439.5 422.5L319 343C319 343 279.61 366.5 278.11 422.5Z" fill="#BBADFF"/>
<path d="M329.759 506.484C329.759 506.484 308.349 495.662 322.502 466.805C326.47 458.715 331.023 453.849 335.521 451.034L353.256 459.999L329.759 506.484Z" fill="#FFFF00"/>
<path d="M308.581 503.377C311.909 501.456 318.264 502.639 318.264 502.639C318.264 502.639 316.111 508.734 312.783 510.655C309.456 512.576 303.101 511.393 303.101 511.393C303.101 511.393 305.254 505.298 308.581 503.377Z" fill="#E41F37"/>
<path d="M304.754 484C308.596 484 313.508 488.202 313.508 488.202C313.508 488.202 308.596 492.404 304.754 492.404C300.912 492.404 296 488.202 296 488.202C296 488.202 300.912 484 304.754 484Z" fill="#E41F37"/>
<path d="M307.631 462.266C311.342 463.26 314.999 468.59 314.999 468.59C314.999 468.59 309.167 471.378 305.456 470.383C301.745 469.389 298.088 464.059 298.088 464.059C298.088 464.059 303.92 461.271 307.631 462.266Z" fill="#E41F37"/>
<path d="M320.133 443.19C322.849 445.907 323.352 452.352 323.352 452.352C323.352 452.352 316.907 451.849 314.19 449.133C311.473 446.416 310.971 439.971 310.971 439.971C310.971 439.971 317.416 440.474 320.133 443.19Z" fill="#E41F37"/>
<path d="M341.383 434.456C342.378 438.167 339.59 443.999 339.59 443.999C339.59 443.999 334.26 440.342 333.266 436.631C332.271 432.92 335.059 427.088 335.059 427.088C335.059 427.088 340.389 430.745 341.383 434.456Z" fill="#E41F37"/>
<path d="M1333.81 946.951C1333.81 946.951 1344.33 935.623 1320.94 913.574C1314.39 907.393 1308.88 903.923 1304.35 902.129L1295.64 911.513C1295.64 911.513 1326.97 936.241 1333.81 946.951Z" fill="#FFFF00"/>
<path d="M1212.31 871.578C1212.31 871.578 1218.07 857.234 1247.99 868.979C1256.38 872.272 1261.86 875.773 1265.42 879.107L1260.65 890.988C1260.65 890.988 1224.92 873.194 1212.31 871.578Z" fill="#FFFF00"/>
<path d="M1475.5 599.5C1283 637.5 1214 582.5 1214 582.5" stroke="#0C001F"/>
<path d="M1432 765.5C1217.5 785 1122.5 745.5 1068.5 681.5" stroke="#0C001F"/>
<path d="M1366 901C1189 780 1110.5 800.5 979 740" stroke="#0C001F"/>
<path d="M962 751.5L1059.92 687C1111.11 757.069 1167.5 789.672 1247 791.5C1326.5 793.328 1354 803 1371.5 834C1389 865 1343.59 879.937 1279 867.5C1242.01 860.378 1166.5 827 1105 799.5C1043.5 772 968.506 758.202 962 751.5Z" fill="#FC4F64"/>
<path d="M671 514.5L950 760.5L1231 514.5H671Z" fill="#0C001F"/>
<path fill-rule="evenodd" clip-rule="evenodd" d="M558.399 308.417C571.106 306.071 583.882 303.711 597.5 290.5C612.848 275.611 620.367 259.445 627.553 243.996C636.722 224.284 645.348 205.738 669 192.5C695.774 177.515 723.663 180.212 750.718 182.828C769.065 184.602 787.028 186.339 804 182.5C821.303 178.586 838.26 165.26 856.663 150.799C882.928 130.158 912.138 107.204 949.5 106V176C912.861 182.242 895.668 198.06 878.409 213.937C863.872 227.311 849.289 240.728 823 248.5C795.337 256.679 776.904 253.094 760.95 249.991C743.74 246.645 729.415 243.859 709.5 257C691.279 269.023 684.641 287.149 677.869 305.644C671.882 321.991 665.79 338.627 651.5 351.593C637.109 364.651 623.103 367.01 608.941 369.395C594.012 371.91 578.909 374.454 563 389.593C559.814 392.625 558.018 397.859 556.267 402.965C554.994 406.677 553.744 410.32 552 413L495 363.5C518.047 315.869 538.136 312.159 558.399 308.417ZM1340.6 308.417C1327.89 306.071 1315.12 303.711 1301.5 290.5C1286.15 275.611 1278.63 259.445 1271.45 243.996C1262.28 224.284 1253.65 205.738 1230 192.5C1203.23 177.515 1175.34 180.212 1148.28 182.828C1129.94 184.602 1111.97 186.339 1095 182.5C1077.7 178.586 1060.74 165.26 1042.34 150.799C1016.07 130.158 986.862 107.204 949.5 106V176C986.139 182.242 1003.33 198.06 1020.59 213.937C1035.13 227.311 1049.71 240.728 1076 248.5C1103.66 256.679 1122.1 253.094 1138.05 249.991C1155.26 246.645 1169.59 243.859 1189.5 257C1207.72 269.023 1214.36 287.149 1221.13 305.644C1227.12 321.991 1233.21 338.627 1247.5 351.593C1261.89 364.651 1275.9 367.01 1290.06 369.395C1304.99 371.91 1320.09 374.454 1336 389.593C1339.19 392.625 1340.98 397.859 1342.73 402.965C1344.01 406.677 1345.26 410.32 1347 413L1404 363.5C1380.95 315.869 1360.86 312.159 1340.6 308.417Z" fill="#E41F37"/>
<path fill-rule="evenodd" clip-rule="evenodd" d="M77 184V79H179.5L951 759.618L1722.5 79H1825V184L951.145 759.746L952 760.5L951 759.841L950 760.5L950.855 759.746L77 184Z" fill="#E41F37"/>
<path fill-rule="evenodd" clip-rule="evenodd" d="M950 543C965.464 543 978 530.464 978 515C978 514.833 977.999 514.666 977.996 514.5H922.004C922.001 514.666 922 514.833 922 515C922 530.464 934.536 543 950 543Z" fill="#B2A2FF"/>
<path fill-rule="evenodd" clip-rule="evenodd" d="M980 515C980 515 980 515 980 515C980 499.536 966.569 487 950 487C933.431 487 920 499.536 920 515C920 515 920 515 920 515L980 515Z" fill="#0C001F"/>
<circle cx="950" cy="759" r="14" fill="#FFFF00"/>
</svg>
