<svg width="3796" height="61" viewBox="0 0 3796 61" fill="none" xmlns="http://www.w3.org/2000/svg">
<g clip-path="url(#clip0_136_221)">
<path d="M2820.34 7.13852C2822.59 7.58616 2824.24 8.51991 2825.46 10.4348C2826.96 12.7739 2827.47 14.8299 2826.35 17.4669C2823.46 18.3459 2821.9 19.2249 2818.56 18.1261C2819.9 21.6422 2823.46 21.6422 2825.46 21.6422L2825.46 21.6422C2825.91 21.6422 2825.46 23.8397 2825.46 23.8397C2824.26 25.6882 2820.79 26.9162 2820.79 26.9162L2823.46 31.9705L2837.26 28.015L2845.5 24.499L2841.27 34.1681L2824.35 42.5186L2822.35 51.7482L2830.58 57.9013L2820.79 59.0001L2816.33 51.3087L2812.55 59.0001L2801.64 57.9013L2810.77 51.3087L2807.43 42.5186L2792.29 34.1681L2786.5 24.499L2796.74 28.015L2810.1 31.9705L2815 26.9162L2812.55 21.6422C2812.55 21.6422 2810.32 17.4798 2810.77 14.6101C2811.24 11.5901 2812.3 9.95765 2815 8.45704C2816.87 7.41451 2818.05 6.68198 2820.34 7.13852Z" fill="#0C001F"/>
<path d="M2760.92 7.13852C2763.2 7.58616 2764.87 8.51991 2766.12 10.4348C2767.65 12.7739 2768.16 14.8299 2767.03 17.4669C2764.08 18.3459 2762.5 19.2249 2759.1 18.1261C2760.46 21.6422 2764.08 21.6422 2766.12 21.6422L2766.12 21.6422C2766.58 21.6422 2766.12 23.8397 2766.12 23.8397C2764.9 25.6882 2761.37 26.9162 2761.37 26.9162L2764.08 31.9705L2778.12 28.015L2786.5 24.499L2782.2 34.1681L2764.99 42.5186L2762.95 51.7482L2771.33 57.9013L2761.37 59.0001L2756.84 51.3087L2752.99 59.0001L2741.9 57.9013L2751.18 51.3087L2747.78 42.5186L2732.39 34.1681L2726.5 24.499L2736.92 28.015L2750.5 31.9705L2755.48 26.9162L2752.99 21.6422C2752.99 21.6422 2750.72 17.4798 2751.18 14.6101C2751.66 11.5901 2752.74 9.95765 2755.48 8.45704C2757.39 7.41451 2758.58 6.68198 2760.92 7.13852Z" fill="#0C001F"/>
<path d="M2701.34 7.13846C2703.59 7.5861 2705.24 8.51985 2706.46 10.4347C2707.96 12.7738 2708.47 14.8298 2707.35 17.4668C2704.46 18.3458 2702.9 19.2248 2699.56 18.1261C2700.9 21.6421 2704.46 21.6421 2706.46 21.6421L2706.46 21.6421C2706.91 21.6421 2706.46 23.8396 2706.46 23.8396C2705.26 25.6881 2701.79 26.9162 2701.79 26.9162L2704.46 31.9705L2718.26 28.0149L2726.5 24.4989L2722.27 34.168L2705.35 42.5186L2703.35 51.7482L2711.58 57.9012L2701.79 59L2697.33 51.3087L2693.55 59L2682.64 57.9012L2691.77 51.3087L2688.43 42.5186L2673.29 34.168L2667.5 24.4989L2677.74 28.0149L2691.1 31.9705L2696 26.9162L2693.55 21.6421C2693.55 21.6421 2691.32 17.4798 2691.77 14.61C2692.24 11.5901 2693.3 9.95759 2696 8.45698C2697.87 7.41445 2699.05 6.68192 2701.34 7.13846Z" fill="#0C001F"/>
<path d="M2642.34 7.13846C2644.59 7.5861 2646.24 8.51985 2647.46 10.4347C2648.96 12.7738 2649.47 14.8298 2648.35 17.4668C2645.46 18.3458 2643.9 19.2248 2640.56 18.1261C2641.9 21.6421 2645.46 21.6421 2647.46 21.6421L2647.46 21.6421C2647.91 21.6421 2647.46 23.8396 2647.46 23.8396C2646.26 25.6881 2642.79 26.9162 2642.79 26.9162L2645.46 31.9705L2659.26 28.0149L2667.5 24.4989L2663.27 34.168L2646.35 42.5186L2644.35 51.7482L2652.58 57.9012L2642.79 59L2638.33 51.3087L2634.55 59L2623.64 57.9012L2632.77 51.3087L2629.43 42.5186L2614.29 34.168L2608.5 24.4989L2618.74 28.0149L2632.1 31.9705L2637 26.9162L2634.55 21.6421C2634.55 21.6421 2632.32 17.4798 2632.77 14.61C2633.24 11.5901 2634.3 9.95759 2637 8.45698C2638.87 7.41445 2640.05 6.68192 2642.34 7.13846Z" fill="#0C001F"/>
<path d="M2582.92 7.13846C2585.2 7.5861 2586.87 8.51985 2588.12 10.4347C2589.65 12.7738 2590.16 14.8298 2589.03 17.4668C2586.08 18.3458 2584.5 19.2248 2581.1 18.1261C2582.46 21.6421 2586.08 21.6421 2588.12 21.6421L2588.12 21.6421C2588.58 21.6421 2588.12 23.8396 2588.12 23.8396C2586.9 25.6881 2583.37 26.9162 2583.37 26.9162L2586.08 31.9705L2600.12 28.0149L2608.5 24.4989L2604.2 34.168L2586.99 42.5186L2584.95 51.7482L2593.33 57.9012L2583.37 59L2578.84 51.3087L2574.99 59L2563.9 57.9012L2573.18 51.3087L2569.78 42.5186L2554.39 34.168L2548.5 24.4989L2558.92 28.0149L2572.5 31.9705L2577.48 26.9162L2574.99 21.6421C2574.99 21.6421 2572.72 17.4798 2573.18 14.61C2573.66 11.5901 2574.74 9.95759 2577.48 8.45698C2579.39 7.41445 2580.58 6.68192 2582.92 7.13846Z" fill="#0C001F"/>
<path d="M2523.34 7.13846C2525.59 7.5861 2527.24 8.51985 2528.46 10.4347C2529.96 12.7738 2530.47 14.8298 2529.35 17.4668C2526.46 18.3458 2524.9 19.2248 2521.56 18.1261C2522.9 21.6421 2526.46 21.6421 2528.46 21.6421L2528.46 21.6421C2528.91 21.6421 2528.46 23.8396 2528.46 23.8396C2527.26 25.6881 2523.79 26.9162 2523.79 26.9162L2526.46 31.9705L2540.26 28.0149L2548.5 24.4989L2544.27 34.168L2527.35 42.5186L2525.35 51.7482L2533.58 57.9012L2523.79 59L2519.33 51.3087L2515.55 59L2504.64 57.9012L2513.77 51.3087L2510.43 42.5186L2495.29 34.168L2489.5 24.4989L2499.74 28.0149L2513.1 31.9705L2518 26.9162L2515.55 21.6421C2515.55 21.6421 2513.32 17.4798 2513.77 14.61C2514.24 11.5901 2515.3 9.95759 2518 8.45698C2519.87 7.41445 2521.05 6.68192 2523.34 7.13846Z" fill="#0C001F"/>
<path d="M2464.34 7.13846C2466.59 7.5861 2468.24 8.51985 2469.46 10.4347C2470.96 12.7738 2471.47 14.8298 2470.35 17.4668C2467.46 18.3458 2465.9 19.2248 2462.56 18.1261C2463.9 21.6421 2467.46 21.6421 2469.46 21.6421L2469.46 21.6421C2469.91 21.6421 2469.46 23.8396 2469.46 23.8396C2468.26 25.6881 2464.79 26.9162 2464.79 26.9162L2467.46 31.9705L2481.26 28.0149L2489.5 24.4989L2485.27 34.168L2468.35 42.5186L2466.35 51.7482L2474.58 57.9012L2464.79 59L2460.33 51.3087L2456.55 59L2445.64 57.9012L2454.77 51.3087L2451.43 42.5186L2436.29 34.168L2430.5 24.4989L2440.74 28.0149L2454.1 31.9705L2459 26.9162L2456.55 21.6421C2456.55 21.6421 2454.32 17.4798 2454.77 14.61C2455.24 11.5901 2456.3 9.95759 2459 8.45698C2460.87 7.41445 2462.05 6.68192 2464.34 7.13846Z" fill="#0C001F"/>
<path d="M2404.92 7.13846C2407.2 7.5861 2408.87 8.51985 2410.12 10.4347C2411.65 12.7738 2412.16 14.8298 2411.03 17.4668C2408.08 18.3458 2406.5 19.2248 2403.1 18.1261C2404.46 21.6421 2408.08 21.6421 2410.12 21.6421L2410.12 21.6421C2410.58 21.6421 2410.12 23.8396 2410.12 23.8396C2408.9 25.6881 2405.37 26.9162 2405.37 26.9162L2408.08 31.9705L2422.12 28.0149L2430.5 24.4989L2426.2 34.168L2408.99 42.5186L2406.95 51.7482L2415.33 57.9012L2405.37 59L2400.84 51.3087L2396.99 59L2385.9 57.9012L2395.18 51.3087L2391.78 42.5186L2376.39 34.168L2370.5 24.4989L2380.92 28.0149L2394.5 31.9705L2399.48 26.9162L2396.99 21.6421C2396.99 21.6421 2394.72 17.4798 2395.18 14.61C2395.66 11.5901 2396.74 9.95759 2399.48 8.45698C2401.39 7.41445 2402.58 6.68192 2404.92 7.13846Z" fill="#0C001F"/>
<path d="M2345.34 7.13846C2347.59 7.5861 2349.24 8.51985 2350.46 10.4347C2351.96 12.7738 2352.47 14.8298 2351.35 17.4668C2348.46 18.3458 2346.9 19.2248 2343.56 18.1261C2344.9 21.6421 2348.46 21.6421 2350.46 21.6421L2350.46 21.6421C2350.91 21.6421 2350.46 23.8396 2350.46 23.8396C2349.26 25.6881 2345.79 26.9162 2345.79 26.9162L2348.46 31.9705L2362.26 28.0149L2370.5 24.4989L2366.27 34.168L2349.35 42.5186L2347.35 51.7482L2355.58 57.9012L2345.79 59L2341.33 51.3087L2337.55 59L2326.64 57.9012L2335.77 51.3087L2332.43 42.5186L2317.29 34.168L2311.5 24.4989L2321.74 28.0149L2335.1 31.9705L2340 26.9162L2337.55 21.6421C2337.55 21.6421 2335.32 17.4798 2335.77 14.61C2336.24 11.5901 2337.3 9.95759 2340 8.45698C2341.87 7.41445 2343.05 6.68192 2345.34 7.13846Z" fill="#0C001F"/>
<path d="M2286.34 7.13846C2288.59 7.5861 2290.24 8.51985 2291.46 10.4347C2292.96 12.7738 2293.47 14.8298 2292.35 17.4668C2289.46 18.3458 2287.9 19.2248 2284.56 18.1261C2285.9 21.6421 2289.46 21.6421 2291.46 21.6421L2291.46 21.6421C2291.91 21.6421 2291.46 23.8396 2291.46 23.8396C2290.26 25.6881 2286.79 26.9162 2286.79 26.9162L2289.46 31.9705L2303.26 28.0149L2311.5 24.4989L2307.27 34.168L2290.35 42.5186L2288.35 51.7482L2296.58 57.9012L2286.79 59L2282.33 51.3087L2278.55 59L2267.64 57.9012L2276.77 51.3087L2273.43 42.5186L2258.29 34.168L2252.5 24.4989L2262.74 28.0149L2276.1 31.9705L2281 26.9162L2278.55 21.6421C2278.55 21.6421 2276.32 17.4798 2276.77 14.61C2277.24 11.5901 2278.3 9.95759 2281 8.45698C2282.87 7.41445 2284.05 6.68192 2286.34 7.13846Z" fill="#0C001F"/>
<path d="M2226.92 7.13846C2229.2 7.5861 2230.87 8.51985 2232.12 10.4347C2233.65 12.7738 2234.16 14.8298 2233.03 17.4668C2230.08 18.3458 2228.5 19.2248 2225.1 18.1261C2226.46 21.6421 2230.08 21.6421 2232.12 21.6421L2232.12 21.6421C2232.58 21.6421 2232.12 23.8396 2232.12 23.8396C2230.9 25.6881 2227.37 26.9162 2227.37 26.9162L2230.08 31.9705L2244.12 28.0149L2252.5 24.4989L2248.2 34.168L2230.99 42.5186L2228.95 51.7482L2237.33 57.9012L2227.37 59L2222.84 51.3087L2218.99 59L2207.9 57.9012L2217.18 51.3087L2213.78 42.5186L2198.39 34.168L2192.5 24.4989L2202.92 28.0149L2216.5 31.9705L2221.48 26.9162L2218.99 21.6421C2218.99 21.6421 2216.72 17.4798 2217.18 14.61C2217.66 11.5901 2218.74 9.95759 2221.48 8.45698C2223.39 7.41445 2224.58 6.68192 2226.92 7.13846Z" fill="#0C001F"/>
<path d="M2167.34 7.13846C2169.59 7.5861 2171.24 8.51985 2172.46 10.4347C2173.96 12.7738 2174.47 14.8298 2173.35 17.4668C2170.46 18.3458 2168.9 19.2248 2165.56 18.1261C2166.9 21.6421 2170.46 21.6421 2172.46 21.6421L2172.46 21.6421C2172.91 21.6421 2172.46 23.8396 2172.46 23.8396C2171.26 25.6881 2167.79 26.9162 2167.79 26.9162L2170.46 31.9705L2184.26 28.0149L2192.5 24.4989L2188.27 34.168L2171.35 42.5186L2169.35 51.7482L2177.58 57.9012L2167.79 59L2163.33 51.3087L2159.55 59L2148.64 57.9012L2157.77 51.3087L2154.43 42.5186L2139.29 34.168L2133.5 24.4989L2143.74 28.0149L2157.1 31.9705L2162 26.9162L2159.55 21.6421C2159.55 21.6421 2157.32 17.4798 2157.77 14.61C2158.24 11.5901 2159.3 9.95759 2162 8.45698C2163.87 7.41445 2165.05 6.68192 2167.34 7.13846Z" fill="#0C001F"/>
<path d="M2049.34 7.13846C2051.59 7.5861 2053.24 8.51985 2054.46 10.4347C2055.96 12.7738 2056.47 14.8298 2055.35 17.4668C2052.46 18.3458 2050.9 19.2248 2047.56 18.1261C2048.9 21.6421 2052.46 21.6421 2054.46 21.6421C2054.91 21.6421 2054.46 23.8396 2054.46 23.8396C2053.26 25.6881 2049.79 26.9162 2049.79 26.9162L2052.46 31.9705L2066.26 28.0149L2074.5 24.4989L2070.27 34.168L2053.35 42.5186L2051.35 51.7482L2059.58 57.9012L2049.79 59L2045.33 51.3087L2041.55 59L2030.64 57.9012L2039.77 51.3087L2036.43 42.5186L2021.29 34.168L2015.5 24.4989L2025.74 28.0149L2039.1 31.9705L2044 26.9162L2041.55 21.6421C2041.55 21.6421 2039.32 17.4798 2039.77 14.61C2040.24 11.5901 2041.3 9.95759 2044 8.45698C2045.87 7.41445 2047.05 6.68192 2049.34 7.13846Z" fill="#0C001F"/>
<path d="M2108.34 7.13846C2110.59 7.5861 2112.24 8.51985 2113.46 10.4347C2114.96 12.7738 2115.47 14.8298 2114.35 17.4668C2111.46 18.3458 2109.9 19.2248 2106.56 18.1261C2107.9 21.6421 2111.46 21.6421 2113.46 21.6421C2113.91 21.6421 2113.46 23.8396 2113.46 23.8396C2112.26 25.6881 2108.79 26.9162 2108.79 26.9162L2111.46 31.9705L2125.26 28.0149L2133.5 24.4989L2129.27 34.168L2112.35 42.5186L2110.35 51.7482L2118.58 57.9012L2108.79 59L2104.33 51.3087L2100.55 59L2089.64 57.9012L2098.77 51.3087L2095.43 42.5186L2080.29 34.168L2074.5 24.4989L2084.74 28.0149L2098.1 31.9705L2103 26.9162L2100.55 21.6421C2100.55 21.6421 2098.32 17.4798 2098.77 14.61C2099.24 11.5901 2100.3 9.95759 2103 8.45698C2104.87 7.41445 2106.05 6.68192 2108.34 7.13846Z" fill="#0C001F"/>
<path d="M1990.34 7.13846C1992.59 7.5861 1994.24 8.51985 1995.46 10.4347C1996.96 12.7738 1997.47 14.8298 1996.35 17.4668C1993.46 18.3458 1991.9 19.2248 1988.56 18.1261C1989.9 21.6421 1993.46 21.6421 1995.46 21.6421C1995.91 21.6421 1995.46 23.8396 1995.46 23.8396C1994.26 25.6881 1990.79 26.9162 1990.79 26.9162L1993.46 31.9705L2007.26 28.0149L2015.5 24.4989L2011.27 34.168L1994.35 42.5186L1992.35 51.7482L2000.58 57.9012L1990.79 59L1986.33 51.3087L1982.55 59L1971.64 57.9012L1980.77 51.3087L1977.43 42.5186L1962.29 34.168L1956.5 24.4989L1966.74 28.0149L1980.1 31.9705L1985 26.9162L1982.55 21.6421C1982.55 21.6421 1980.32 17.4798 1980.77 14.61C1981.24 11.5901 1982.3 9.95759 1985 8.45698C1986.87 7.41445 1988.05 6.68192 1990.34 7.13846Z" fill="#0C001F"/>
<path d="M3533.34 7.13846C3535.59 7.5861 3537.24 8.51985 3538.46 10.4347C3539.96 12.7738 3540.47 14.8298 3539.35 17.4668C3536.46 18.3458 3534.9 19.2248 3531.56 18.1261C3532.9 21.6421 3536.46 21.6421 3538.46 21.6421C3538.91 21.6421 3538.46 23.8396 3538.46 23.8396C3537.26 25.6881 3533.79 26.9162 3533.79 26.9162L3536.46 31.9705L3550.26 28.0149L3558.5 24.4989L3554.27 34.168L3537.35 42.5186L3535.35 51.7482L3543.58 57.9012L3533.79 59L3529.33 51.3087L3525.55 59L3514.64 57.9012L3523.77 51.3087L3520.43 42.5186L3505.29 34.168L3499.5 24.4989L3509.74 28.0149L3523.1 31.9705L3528 26.9162L3525.55 21.6421C3525.55 21.6421 3523.32 17.4798 3523.77 14.61C3524.24 11.5901 3525.3 9.95759 3528 8.45698C3529.87 7.41445 3531.05 6.68192 3533.34 7.13846Z" fill="#0C001F"/>
<path d="M3592.34 7.13852C3594.59 7.58616 3596.24 8.51991 3597.46 10.4348C3598.96 12.7739 3599.47 14.8299 3598.35 17.4669C3595.46 18.3459 3593.9 19.2249 3590.56 18.1261C3591.9 21.6422 3595.46 21.6422 3597.46 21.6422C3597.91 21.6422 3597.46 23.8397 3597.46 23.8397C3596.26 25.6882 3592.79 26.9162 3592.79 26.9162L3595.46 31.9705L3609.26 28.015L3617.5 24.499L3613.27 34.1681L3596.35 42.5186L3594.35 51.7482L3602.58 57.9013L3592.79 59.0001L3588.33 51.3087L3584.55 59.0001L3573.64 57.9013L3582.77 51.3087L3579.43 42.5186L3564.29 34.1681L3558.5 24.499L3568.74 28.015L3582.1 31.9705L3587 26.9162L3584.55 21.6422C3584.55 21.6422 3582.32 17.4798 3582.77 14.6101C3583.24 11.5901 3584.3 9.95765 3587 8.45704C3588.87 7.41451 3590.05 6.68198 3592.34 7.13852Z" fill="#0C001F"/>
<path d="M3651.34 7.13852C3653.59 7.58616 3655.24 8.51991 3656.46 10.4348C3657.96 12.7739 3658.47 14.8299 3657.35 17.4669C3654.46 18.3459 3652.9 19.2249 3649.56 18.1261C3650.9 21.6422 3654.46 21.6422 3656.46 21.6422C3656.91 21.6422 3656.46 23.8397 3656.46 23.8397C3655.26 25.6882 3651.79 26.9162 3651.79 26.9162L3654.46 31.9705L3668.26 28.015L3676.5 24.499L3672.27 34.1681L3655.35 42.5186L3653.35 51.7482L3661.58 57.9013L3651.79 59.0001L3647.33 51.3087L3643.55 59.0001L3632.64 57.9013L3641.77 51.3087L3638.43 42.5186L3623.29 34.1681L3617.5 24.499L3627.74 28.015L3641.1 31.9705L3646 26.9162L3643.55 21.6422C3643.55 21.6422 3641.32 17.4798 3641.77 14.6101C3642.24 11.5901 3643.3 9.95765 3646 8.45704C3647.87 7.41451 3649.05 6.68198 3651.34 7.13852Z" fill="#0C001F"/>
<path d="M3710.34 7.13852C3712.59 7.58616 3714.24 8.51991 3715.46 10.4348C3716.96 12.7739 3717.47 14.8299 3716.35 17.4669C3713.46 18.3459 3711.9 19.2249 3708.56 18.1261C3709.9 21.6422 3713.46 21.6422 3715.46 21.6422C3715.91 21.6422 3715.46 23.8397 3715.46 23.8397C3714.26 25.6882 3710.79 26.9162 3710.79 26.9162L3713.46 31.9705L3727.26 28.015L3735.5 24.499L3731.27 34.1681L3714.35 42.5186L3712.35 51.7482L3720.58 57.9013L3710.79 59.0001L3706.33 51.3087L3702.55 59.0001L3691.64 57.9013L3700.77 51.3087L3697.43 42.5186L3682.29 34.1681L3676.5 24.499L3686.74 28.015L3700.1 31.9705L3705 26.9162L3702.55 21.6422C3702.55 21.6422 3700.32 17.4798 3700.77 14.6101C3701.24 11.5901 3702.3 9.95765 3705 8.45704C3706.87 7.41451 3708.05 6.68198 3710.34 7.13852Z" fill="#0C001F"/>
<path d="M3769.34 7.13852C3771.59 7.58616 3773.24 8.51991 3774.46 10.4348C3775.96 12.7739 3776.47 14.8299 3775.35 17.4669C3772.46 18.3459 3770.9 19.2249 3767.56 18.1261C3768.9 21.6422 3772.46 21.6422 3774.46 21.6422C3774.91 21.6422 3774.46 23.8397 3774.46 23.8397C3773.26 25.6882 3769.79 26.9162 3769.79 26.9162L3772.46 31.9705L3786.26 28.015L3794.5 24.499L3790.27 34.1681L3773.35 42.5186L3771.35 51.7482L3779.58 57.9013L3769.79 59.0001L3765.33 51.3087L3761.55 59.0001L3750.64 57.9013L3759.77 51.3087L3756.43 42.5186L3741.29 34.1681L3735.5 24.499L3745.74 28.015L3759.1 31.9705L3764 26.9162L3761.55 21.6422C3761.55 21.6422 3759.32 17.4798 3759.77 14.6101C3760.24 11.5901 3761.3 9.95765 3764 8.45704C3765.87 7.41451 3767.05 6.68198 3769.34 7.13852Z" fill="#0C001F"/>
<path d="M3473.92 7.13846C3476.2 7.5861 3477.87 8.51985 3479.12 10.4347C3480.65 12.7738 3481.16 14.8298 3480.03 17.4668C3477.08 18.3458 3475.5 19.2248 3472.1 18.1261C3473.46 21.6421 3477.08 21.6421 3479.12 21.6421L3479.12 21.6421C3479.58 21.6421 3479.12 23.8396 3479.12 23.8396C3477.9 25.6881 3474.37 26.9162 3474.37 26.9162L3477.08 31.9705L3491.12 28.0149L3499.5 24.4989L3495.2 34.168L3477.99 42.5186L3475.95 51.7482L3484.33 57.9012L3474.37 59L3469.84 51.3087L3465.99 59L3454.9 57.9012L3464.18 51.3087L3460.78 42.5186L3445.39 34.168L3439.5 24.4989L3449.92 28.0149L3463.5 31.9705L3468.48 26.9162L3465.99 21.6421C3465.99 21.6421 3463.72 17.4798 3464.18 14.61C3464.66 11.5901 3465.74 9.95759 3468.48 8.45698C3470.39 7.41445 3471.58 6.68192 3473.92 7.13846Z" fill="#0C001F"/>
<path d="M3414.34 7.13846C3416.59 7.5861 3418.24 8.51985 3419.46 10.4347C3420.96 12.7738 3421.47 14.8298 3420.35 17.4668C3417.46 18.3458 3415.9 19.2248 3412.56 18.1261C3413.9 21.6421 3417.46 21.6421 3419.46 21.6421L3419.46 21.6421C3419.91 21.6421 3419.46 23.8396 3419.46 23.8396C3418.26 25.6881 3414.79 26.9162 3414.79 26.9162L3417.46 31.9705L3431.26 28.0149L3439.5 24.4989L3435.27 34.168L3418.35 42.5186L3416.35 51.7482L3424.58 57.9012L3414.79 59L3410.33 51.3087L3406.55 59L3395.64 57.9012L3404.77 51.3087L3401.43 42.5186L3386.29 34.168L3380.5 24.4989L3390.74 28.0149L3404.1 31.9705L3409 26.9162L3406.55 21.6421C3406.55 21.6421 3404.32 17.4798 3404.77 14.61C3405.24 11.5901 3406.3 9.95759 3409 8.45698C3410.87 7.41445 3412.05 6.68192 3414.34 7.13846Z" fill="#0C001F"/>
<path d="M3355.34 7.13846C3357.59 7.5861 3359.24 8.51985 3360.46 10.4347C3361.96 12.7738 3362.47 14.8298 3361.35 17.4668C3358.46 18.3458 3356.9 19.2248 3353.56 18.1261C3354.9 21.6421 3358.46 21.6421 3360.46 21.6421L3360.46 21.6421C3360.91 21.6421 3360.46 23.8396 3360.46 23.8396C3359.26 25.6881 3355.79 26.9162 3355.79 26.9162L3358.46 31.9705L3372.26 28.0149L3380.5 24.4989L3376.27 34.168L3359.35 42.5186L3357.35 51.7482L3365.58 57.9012L3355.79 59L3351.33 51.3087L3347.55 59L3336.64 57.9012L3345.77 51.3087L3342.43 42.5186L3327.29 34.168L3321.5 24.4989L3331.74 28.0149L3345.1 31.9705L3350 26.9162L3347.55 21.6421C3347.55 21.6421 3345.32 17.4798 3345.77 14.61C3346.24 11.5901 3347.3 9.95759 3350 8.45698C3351.87 7.41445 3353.05 6.68192 3355.34 7.13846Z" fill="#0C001F"/>
<path d="M3295.92 7.13846C3298.2 7.5861 3299.87 8.51985 3301.12 10.4347C3302.65 12.7738 3303.16 14.8298 3302.03 17.4668C3299.08 18.3458 3297.5 19.2248 3294.1 18.1261C3295.46 21.6421 3299.08 21.6421 3301.12 21.6421L3301.12 21.6421C3301.58 21.6421 3301.12 23.8396 3301.12 23.8396C3299.9 25.6881 3296.37 26.9162 3296.37 26.9162L3299.08 31.9705L3313.12 28.0149L3321.5 24.4989L3317.2 34.168L3299.99 42.5186L3297.95 51.7482L3306.33 57.9012L3296.37 59L3291.84 51.3087L3287.99 59L3276.9 57.9012L3286.18 51.3087L3282.78 42.5186L3267.39 34.168L3261.5 24.4989L3271.92 28.0149L3285.5 31.9705L3290.48 26.9162L3287.99 21.6421C3287.99 21.6421 3285.72 17.4798 3286.18 14.61C3286.66 11.5901 3287.74 9.95759 3290.48 8.45698C3292.39 7.41445 3293.58 6.68192 3295.92 7.13846Z" fill="#0C001F"/>
<path d="M3236.34 7.13846C3238.59 7.5861 3240.24 8.51985 3241.46 10.4347C3242.96 12.7738 3243.47 14.8298 3242.35 17.4668C3239.46 18.3458 3237.9 19.2248 3234.56 18.1261C3235.9 21.6421 3239.46 21.6421 3241.46 21.6421L3241.46 21.6421C3241.91 21.6421 3241.46 23.8396 3241.46 23.8396C3240.26 25.6881 3236.79 26.9162 3236.79 26.9162L3239.46 31.9705L3253.26 28.0149L3261.5 24.4989L3257.27 34.168L3240.35 42.5186L3238.35 51.7482L3246.58 57.9012L3236.79 59L3232.33 51.3087L3228.55 59L3217.64 57.9012L3226.77 51.3087L3223.43 42.5186L3208.29 34.168L3202.5 24.4989L3212.74 28.0149L3226.1 31.9705L3231 26.9162L3228.55 21.6421C3228.55 21.6421 3226.32 17.4798 3226.77 14.61C3227.24 11.5901 3228.3 9.95759 3231 8.45698C3232.87 7.41445 3234.05 6.68192 3236.34 7.13846Z" fill="#0C001F"/>
<path d="M3177.34 7.13846C3179.59 7.5861 3181.24 8.51985 3182.46 10.4347C3183.96 12.7738 3184.47 14.8298 3183.35 17.4668C3180.46 18.3458 3178.9 19.2248 3175.56 18.1261C3176.9 21.6421 3180.46 21.6421 3182.46 21.6421L3182.46 21.6421C3182.91 21.6421 3182.46 23.8396 3182.46 23.8396C3181.26 25.6881 3177.79 26.9162 3177.79 26.9162L3180.46 31.9705L3194.26 28.0149L3202.5 24.4989L3198.27 34.168L3181.35 42.5186L3179.35 51.7482L3187.58 57.9012L3177.79 59L3173.33 51.3087L3169.55 59L3158.64 57.9012L3167.77 51.3087L3164.43 42.5186L3149.29 34.168L3143.5 24.4989L3153.74 28.0149L3167.1 31.9705L3172 26.9162L3169.55 21.6421C3169.55 21.6421 3167.32 17.4798 3167.77 14.61C3168.24 11.5901 3169.3 9.95759 3172 8.45698C3173.87 7.41445 3175.05 6.68192 3177.34 7.13846Z" fill="#0C001F"/>
<path d="M3117.92 7.13846C3120.2 7.5861 3121.87 8.51985 3123.12 10.4347C3124.65 12.7738 3125.16 14.8298 3124.03 17.4668C3121.08 18.3458 3119.5 19.2248 3116.1 18.1261C3117.46 21.6421 3121.08 21.6421 3123.12 21.6421L3123.12 21.6421C3123.58 21.6421 3123.12 23.8396 3123.12 23.8396C3121.9 25.6881 3118.37 26.9162 3118.37 26.9162L3121.08 31.9705L3135.12 28.0149L3143.5 24.4989L3139.2 34.168L3121.99 42.5186L3119.95 51.7482L3128.33 57.9012L3118.37 59L3113.84 51.3087L3109.99 59L3098.9 57.9012L3108.18 51.3087L3104.78 42.5186L3089.39 34.168L3083.5 24.4989L3093.92 28.0149L3107.5 31.9705L3112.48 26.9162L3109.99 21.6421C3109.99 21.6421 3107.72 17.4798 3108.18 14.61C3108.66 11.5901 3109.74 9.95759 3112.48 8.45698C3114.39 7.41445 3115.58 6.68192 3117.92 7.13846Z" fill="#0C001F"/>
<path d="M3058.34 7.13846C3060.59 7.5861 3062.24 8.51985 3063.46 10.4347C3064.96 12.7738 3065.47 14.8298 3064.35 17.4668C3061.46 18.3458 3059.9 19.2248 3056.56 18.1261C3057.9 21.6421 3061.46 21.6421 3063.46 21.6421L3063.46 21.6421C3063.91 21.6421 3063.46 23.8396 3063.46 23.8396C3062.26 25.6881 3058.79 26.9162 3058.79 26.9162L3061.46 31.9705L3075.26 28.0149L3083.5 24.4989L3079.27 34.168L3062.35 42.5186L3060.35 51.7482L3068.58 57.9012L3058.79 59L3054.33 51.3087L3050.55 59L3039.64 57.9012L3048.77 51.3087L3045.43 42.5186L3030.29 34.168L3024.5 24.4989L3034.74 28.0149L3048.1 31.9705L3053 26.9162L3050.55 21.6421C3050.55 21.6421 3048.32 17.4798 3048.77 14.61C3049.24 11.5901 3050.3 9.95759 3053 8.45698C3054.87 7.41445 3056.05 6.68192 3058.34 7.13846Z" fill="#0C001F"/>
<path d="M2998.92 7.13846C3001.2 7.5861 3002.87 8.51985 3004.12 10.4347C3005.65 12.7738 3006.16 14.8298 3005.03 17.4668C3002.08 18.3458 3000.5 19.2248 2997.1 18.1261C2998.46 21.6421 3002.08 21.6421 3004.12 21.6421L3004.12 21.6421C3004.58 21.6421 3004.12 23.8396 3004.12 23.8396C3002.9 25.6881 2999.37 26.9162 2999.37 26.9162L3002.08 31.9705L3016.12 28.0149L3024.5 24.4989L3020.2 34.168L3002.99 42.5186L3000.95 51.7482L3009.33 57.9012L2999.37 59L2994.84 51.3087L2990.99 59L2979.9 57.9012L2989.18 51.3087L2985.78 42.5186L2970.39 34.168L2964.5 24.4989L2974.92 28.0149L2988.5 31.9705L2993.48 26.9162L2990.99 21.6421C2990.99 21.6421 2988.72 17.4798 2989.18 14.61C2989.66 11.5901 2990.74 9.95759 2993.48 8.45698C2995.39 7.41445 2996.58 6.68192 2998.92 7.13846Z" fill="#0C001F"/>
<path d="M2938.42 7.13846C2940.7 7.5861 2942.37 8.51985 2943.62 10.4347C2945.15 12.7738 2945.66 14.8298 2944.53 17.4668C2941.58 18.3458 2940 19.2248 2936.6 18.1261C2937.96 21.6421 2941.58 21.6421 2943.62 21.6421L2943.62 21.6421C2944.08 21.6421 2943.62 23.8396 2943.62 23.8396C2942.4 25.6881 2938.87 26.9162 2938.87 26.9162L2941.58 31.9705L2955.62 28.0149L2964 24.4989L2959.7 34.168L2942.49 42.5186L2940.45 51.7482L2948.83 57.9012L2938.87 59L2934.34 51.3087L2930.49 59L2919.4 57.9012L2928.68 51.3087L2925.28 42.5186L2909.89 34.168L2904 24.4989L2914.42 28.0149L2928 31.9705L2932.98 26.9162L2930.49 21.6421C2930.49 21.6421 2928.22 17.4798 2928.68 14.61C2929.16 11.5901 2930.24 9.95759 2932.98 8.45698C2934.89 7.41445 2936.08 6.68192 2938.42 7.13846Z" fill="#0C001F"/>
<path d="M2879.34 7.13846C2881.59 7.5861 2883.24 8.51985 2884.46 10.4347C2885.96 12.7738 2886.47 14.8298 2885.35 17.4668C2882.46 18.3458 2880.9 19.2248 2877.56 18.1261C2878.9 21.6421 2882.46 21.6421 2884.46 21.6421L2884.46 21.6421C2884.91 21.6421 2884.46 23.8396 2884.46 23.8396C2883.26 25.6881 2879.79 26.9162 2879.79 26.9162L2882.46 31.9705L2896.26 28.0149L2904.5 24.4989L2900.27 34.168L2883.35 42.5186L2881.35 51.7482L2889.58 57.9012L2879.79 59L2875.33 51.3087L2871.55 59L2860.64 57.9012L2869.77 51.3087L2866.43 42.5186L2851.29 34.168L2845.5 24.4989L2855.74 28.0149L2869.1 31.9705L2874 26.9162L2871.55 21.6421C2871.55 21.6421 2869.32 17.4798 2869.77 14.61C2870.24 11.5901 2871.3 9.95759 2874 8.45698C2875.87 7.41445 2877.05 6.68192 2879.34 7.13846Z" fill="#0C001F"/>
<path d="M1936.62 19.5C1933.5 18 1931.9 21.5988 1928.5 20.5C1930.13 24.7155 1931.38 23.5 1936 22.5C1934.78 24.3485 1931.87 26.9163 1931.87 26.9163L1940 30L1948.62 28.0151L1957 24.499L1952.7 34.1681L1940.5 43.5L1942 48.5L1934.5 49L1937 55L1949 56.5L1947 60.5L1936 59.5L1934.5 60.5L1932.5 60L1931 57.5L1929.5 51L1925.98 57.5L1924.98 60L1918.98 60.5L1918 60L1908.48 61L1907 57.5L1918.98 55L1920 48.5L1915.5 48.5L1915.5 43.5L1902.89 34.1681L1897 24.499L1907.42 28.0151L1917.5 30.5L1925.98 26.9163C1924.3 25.1916 1923.32 25 1922.5 22.5C1921.68 20 1922.04 15.3698 1922.5 12.5C1922.54 12.2474 1923.17 11.6279 1922.5 11.5C1919.5 12 1912 11.8494 1908.5 11.5C1907.1 11.3598 1909.25 10.272 1909.5 10C1910.12 9.31056 1920.94 7.07842 1922 6.50003C1922.94 5.98664 1922.19 1.75809 1923 1.50003C1923.43 1.36495 1931.09 -0.183971 1931.87 1.00003C1932.62 2.14723 1935.42 5.886 1936 6.00003C1936.97 6.19011 1942.96 6.96774 1946 7.00003C1947.01 7.01081 1947.77 8.33593 1948 8.50001C1945.5 9.00001 1941 10 1937.13 10.3708C1936.78 10.3709 1936.59 10.3867 1936.62 10.4349C1937.89 12.3747 1937.83 15.862 1937.13 18.5C1936.99 19.0429 1936.82 19.0499 1936.62 19.5Z" fill="#EE0521"/>
<path d="M1936.65 19.0001C1936.54 19.0001 1935.5 22.5498 1936 22.5001C1944.5 21.65 1942.5 16.0001 1942.5 16.0001C1942.5 16.0001 1939 19.0001 1936.65 19.0001Z" fill="#EE0521"/>
<path d="M923.342 7.13852C925.592 7.58616 927.235 8.51991 928.462 10.4348C929.961 12.7739 930.466 14.8299 929.353 17.4669C926.458 18.3459 924.9 19.2249 921.56 18.1261C922.896 21.6422 926.458 21.6422 928.462 21.6422L928.462 21.6422C928.908 21.6422 928.462 23.8397 928.462 23.8397C927.258 25.6882 923.787 26.9162 923.787 26.9162L926.458 31.9705L940.262 28.015L948.5 24.499L944.27 34.1681L927.349 42.5186L925.345 51.7482L933.583 57.9013L923.787 59.0001L919.334 51.3087L915.549 59.0001L904.64 57.9013L913.768 51.3087L910.428 42.5186L895.289 34.1681L889.5 24.499L899.742 28.015L913.1 31.9705L917.998 26.9162L915.549 21.6422C915.549 21.6422 913.318 17.4798 913.768 14.6101C914.241 11.5901 915.301 9.95765 917.998 8.45704C919.872 7.41451 921.047 6.68198 923.342 7.13852Z" fill="#0C001F"/>
<path d="M863.915 7.13852C866.203 7.58616 867.875 8.51991 869.123 10.4348C870.647 12.7739 871.16 14.8299 870.028 17.4669C867.085 18.3459 865.5 19.2249 862.104 18.1261C863.462 21.6422 867.085 21.6422 869.123 21.6422L869.123 21.6422C869.575 21.6422 869.123 23.8397 869.123 23.8397C867.898 25.6882 864.368 26.9162 864.368 26.9162L867.085 31.9705L881.123 28.015L889.5 24.499L885.198 34.1681L867.991 42.5186L865.953 51.7482L874.33 57.9013L864.368 59.0001L859.84 51.3087L855.991 59.0001L844.896 57.9013L854.179 51.3087L850.783 42.5186L835.387 34.1681L829.5 24.499L839.915 28.015L853.5 31.9705L858.481 26.9162L855.991 21.6422C855.991 21.6422 853.722 17.4798 854.179 14.6101C854.661 11.5901 855.738 9.95765 858.481 8.45704C860.387 7.41451 861.581 6.68198 863.915 7.13852Z" fill="#0C001F"/>
<path d="M804.342 7.13846C806.592 7.5861 808.235 8.51985 809.462 10.4347C810.961 12.7738 811.466 14.8298 810.353 17.4668C807.458 18.3458 805.9 19.2248 802.56 18.1261C803.896 21.6421 807.458 21.6421 809.462 21.6421L809.462 21.6421C809.908 21.6421 809.462 23.8396 809.462 23.8396C808.258 25.6881 804.787 26.9162 804.787 26.9162L807.458 31.9705L821.262 28.0149L829.5 24.4989L825.27 34.168L808.349 42.5186L806.345 51.7482L814.583 57.9012L804.787 59L800.334 51.3087L796.549 59L785.64 57.9012L794.768 51.3087L791.428 42.5186L776.289 34.168L770.5 24.4989L780.742 28.0149L794.1 31.9705L798.998 26.9162L796.549 21.6421C796.549 21.6421 794.318 17.4798 794.768 14.61C795.241 11.5901 796.301 9.95759 798.998 8.45698C800.872 7.41445 802.047 6.68192 804.342 7.13846Z" fill="#0C001F"/>
<path d="M745.342 7.13846C747.592 7.5861 749.235 8.51985 750.462 10.4347C751.961 12.7738 752.466 14.8298 751.353 17.4668C748.458 18.3458 746.9 19.2248 743.56 18.1261C744.896 21.6421 748.458 21.6421 750.462 21.6421L750.462 21.6421C750.908 21.6421 750.462 23.8396 750.462 23.8396C749.258 25.6881 745.787 26.9162 745.787 26.9162L748.458 31.9705L762.262 28.0149L770.5 24.4989L766.27 34.168L749.349 42.5186L747.345 51.7482L755.583 57.9012L745.787 59L741.334 51.3087L737.549 59L726.64 57.9012L735.768 51.3087L732.428 42.5186L717.289 34.168L711.5 24.4989L721.742 28.0149L735.1 31.9705L739.998 26.9162L737.549 21.6421C737.549 21.6421 735.318 17.4798 735.768 14.61C736.241 11.5901 737.301 9.95759 739.998 8.45698C741.872 7.41445 743.047 6.68192 745.342 7.13846Z" fill="#0C001F"/>
<path d="M685.915 7.13846C688.203 7.5861 689.875 8.51985 691.123 10.4347C692.647 12.7738 693.16 14.8298 692.028 17.4668C689.085 18.3458 687.5 19.2248 684.104 18.1261C685.462 21.6421 689.085 21.6421 691.123 21.6421L691.123 21.6421C691.575 21.6421 691.123 23.8396 691.123 23.8396C689.898 25.6881 686.368 26.9162 686.368 26.9162L689.085 31.9705L703.123 28.0149L711.5 24.4989L707.198 34.168L689.991 42.5186L687.953 51.7482L696.33 57.9012L686.368 59L681.84 51.3087L677.991 59L666.896 57.9012L676.179 51.3087L672.783 42.5186L657.387 34.168L651.5 24.4989L661.915 28.0149L675.5 31.9705L680.481 26.9162L677.991 21.6421C677.991 21.6421 675.722 17.4798 676.179 14.61C676.661 11.5901 677.738 9.95759 680.481 8.45698C682.387 7.41445 683.581 6.68192 685.915 7.13846Z" fill="#0C001F"/>
<path d="M626.342 7.13846C628.592 7.5861 630.235 8.51985 631.462 10.4347C632.961 12.7738 633.466 14.8298 632.353 17.4668C629.458 18.3458 627.9 19.2248 624.56 18.1261C625.896 21.6421 629.458 21.6421 631.462 21.6421L631.462 21.6421C631.908 21.6421 631.462 23.8396 631.462 23.8396C630.258 25.6881 626.787 26.9162 626.787 26.9162L629.458 31.9705L643.262 28.0149L651.5 24.4989L647.27 34.168L630.349 42.5186L628.345 51.7482L636.583 57.9012L626.787 59L622.334 51.3087L618.549 59L607.64 57.9012L616.768 51.3087L613.428 42.5186L598.289 34.168L592.5 24.4989L602.742 28.0149L616.1 31.9705L620.998 26.9162L618.549 21.6421C618.549 21.6421 616.318 17.4798 616.768 14.61C617.241 11.5901 618.301 9.95759 620.998 8.45698C622.872 7.41445 624.047 6.68192 626.342 7.13846Z" fill="#0C001F"/>
<path d="M567.342 7.13846C569.592 7.5861 571.235 8.51985 572.462 10.4347C573.961 12.7738 574.466 14.8298 573.353 17.4668C570.458 18.3458 568.9 19.2248 565.56 18.1261C566.896 21.6421 570.458 21.6421 572.462 21.6421L572.462 21.6421C572.908 21.6421 572.462 23.8396 572.462 23.8396C571.258 25.6881 567.787 26.9162 567.787 26.9162L570.458 31.9705L584.262 28.0149L592.5 24.4989L588.27 34.168L571.349 42.5186L569.345 51.7482L577.583 57.9012L567.787 59L563.334 51.3087L559.549 59L548.64 57.9012L557.768 51.3087L554.428 42.5186L539.289 34.168L533.5 24.4989L543.742 28.0149L557.1 31.9705L561.998 26.9162L559.549 21.6421C559.549 21.6421 557.318 17.4798 557.768 14.61C558.241 11.5901 559.301 9.95759 561.998 8.45698C563.872 7.41445 565.047 6.68192 567.342 7.13846Z" fill="#0C001F"/>
<path d="M507.915 7.13846C510.203 7.5861 511.875 8.51985 513.123 10.4347C514.647 12.7738 515.16 14.8298 514.028 17.4668C511.085 18.3458 509.5 19.2248 506.104 18.1261C507.462 21.6421 511.085 21.6421 513.123 21.6421L513.123 21.6421C513.575 21.6421 513.123 23.8396 513.123 23.8396C511.898 25.6881 508.368 26.9162 508.368 26.9162L511.085 31.9705L525.123 28.0149L533.5 24.4989L529.198 34.168L511.991 42.5186L509.953 51.7482L518.33 57.9012L508.368 59L503.84 51.3087L499.991 59L488.896 57.9012L498.179 51.3087L494.783 42.5186L479.387 34.168L473.5 24.4989L483.915 28.0149L497.5 31.9705L502.481 26.9162L499.991 21.6421C499.991 21.6421 497.722 17.4798 498.179 14.61C498.661 11.5901 499.738 9.95759 502.481 8.45698C504.387 7.41445 505.581 6.68192 507.915 7.13846Z" fill="#0C001F"/>
<path d="M448.342 7.13846C450.592 7.5861 452.235 8.51985 453.462 10.4347C454.961 12.7738 455.466 14.8298 454.353 17.4668C451.458 18.3458 449.9 19.2248 446.56 18.1261C447.896 21.6421 451.458 21.6421 453.462 21.6421L453.462 21.6421C453.908 21.6421 453.462 23.8396 453.462 23.8396C452.258 25.6881 448.787 26.9162 448.787 26.9162L451.458 31.9705L465.262 28.0149L473.5 24.4989L469.27 34.168L452.349 42.5186L450.345 51.7482L458.583 57.9012L448.787 59L444.334 51.3087L440.549 59L429.64 57.9012L438.768 51.3087L435.428 42.5186L420.289 34.168L414.5 24.4989L424.742 28.0149L438.1 31.9705L442.998 26.9162L440.549 21.6421C440.549 21.6421 438.318 17.4798 438.768 14.61C439.241 11.5901 440.301 9.95759 442.998 8.45698C444.872 7.41445 446.047 6.68192 448.342 7.13846Z" fill="#0C001F"/>
<path d="M389.342 7.13846C391.592 7.5861 393.235 8.51985 394.462 10.4347C395.961 12.7738 396.466 14.8298 395.353 17.4668C392.458 18.3458 390.9 19.2248 387.56 18.1261C388.896 21.6421 392.458 21.6421 394.462 21.6421L394.462 21.6421C394.908 21.6421 394.462 23.8396 394.462 23.8396C393.258 25.6881 389.787 26.9162 389.787 26.9162L392.458 31.9705L406.262 28.0149L414.5 24.4989L410.27 34.168L393.349 42.5186L391.345 51.7482L399.583 57.9012L389.787 59L385.334 51.3087L381.549 59L370.64 57.9012L379.768 51.3087L376.428 42.5186L361.289 34.168L355.5 24.4989L365.742 28.0149L379.1 31.9705L383.998 26.9162L381.549 21.6421C381.549 21.6421 379.318 17.4798 379.768 14.61C380.241 11.5901 381.301 9.95759 383.998 8.45698C385.872 7.41445 387.047 6.68192 389.342 7.13846Z" fill="#0C001F"/>
<path d="M329.915 7.13846C332.203 7.5861 333.875 8.51985 335.123 10.4347C336.647 12.7738 337.16 14.8298 336.028 17.4668C333.085 18.3458 331.5 19.2248 328.104 18.1261C329.462 21.6421 333.085 21.6421 335.123 21.6421L335.123 21.6421C335.575 21.6421 335.123 23.8396 335.123 23.8396C333.898 25.6881 330.368 26.9162 330.368 26.9162L333.085 31.9705L347.123 28.0149L355.5 24.4989L351.198 34.168L333.991 42.5186L331.953 51.7482L340.33 57.9012L330.368 59L325.84 51.3087L321.991 59L310.896 57.9012L320.179 51.3087L316.783 42.5186L301.387 34.168L295.5 24.4989L305.915 28.0149L319.5 31.9705L324.481 26.9162L321.991 21.6421C321.991 21.6421 319.722 17.4798 320.179 14.61C320.661 11.5901 321.738 9.95759 324.481 8.45698C326.387 7.41445 327.581 6.68192 329.915 7.13846Z" fill="#0C001F"/>
<path d="M270.342 7.13846C272.592 7.5861 274.235 8.51985 275.462 10.4347C276.961 12.7738 277.466 14.8298 276.353 17.4668C273.458 18.3458 271.9 19.2248 268.56 18.1261C269.896 21.6421 273.458 21.6421 275.462 21.6421L275.462 21.6421C275.908 21.6421 275.462 23.8396 275.462 23.8396C274.258 25.6881 270.787 26.9162 270.787 26.9162L273.458 31.9705L287.262 28.0149L295.5 24.4989L291.27 34.168L274.349 42.5186L272.345 51.7482L280.583 57.9012L270.787 59L266.334 51.3087L262.549 59L251.64 57.9012L260.768 51.3087L257.428 42.5186L242.289 34.168L236.5 24.4989L246.742 28.0149L260.1 31.9705L264.998 26.9162L262.549 21.6421C262.549 21.6421 260.318 17.4798 260.768 14.61C261.241 11.5901 262.301 9.95759 264.998 8.45698C266.872 7.41445 268.047 6.68192 270.342 7.13846Z" fill="#0C001F"/>
<path d="M152.342 7.13846C154.592 7.5861 156.235 8.51985 157.462 10.4347C158.961 12.7738 159.466 14.8298 158.353 17.4668C155.458 18.3458 153.9 19.2248 150.56 18.1261C151.896 21.6421 155.458 21.6421 157.462 21.6421C157.908 21.6421 157.462 23.8396 157.462 23.8396C156.258 25.6881 152.787 26.9162 152.787 26.9162L155.458 31.9705L169.262 28.0149L177.5 24.4989L173.27 34.168L156.349 42.5186L154.345 51.7482L162.583 57.9012L152.787 59L148.334 51.3087L144.549 59L133.64 57.9012L142.768 51.3087L139.428 42.5186L124.289 34.168L118.5 24.4989L128.742 28.0149L142.1 31.9705L146.998 26.9162L144.549 21.6421C144.549 21.6421 142.318 17.4798 142.768 14.61C143.241 11.5901 144.301 9.95759 146.998 8.45698C148.872 7.41445 150.047 6.68192 152.342 7.13846Z" fill="#0C001F"/>
<path d="M211.342 7.13846C213.592 7.5861 215.235 8.51985 216.462 10.4347C217.961 12.7738 218.466 14.8298 217.353 17.4668C214.458 18.3458 212.9 19.2248 209.56 18.1261C210.896 21.6421 214.458 21.6421 216.462 21.6421C216.908 21.6421 216.462 23.8396 216.462 23.8396C215.258 25.6881 211.787 26.9162 211.787 26.9162L214.458 31.9705L228.262 28.0149L236.5 24.4989L232.27 34.168L215.349 42.5186L213.345 51.7482L221.583 57.9012L211.787 59L207.334 51.3087L203.549 59L192.64 57.9012L201.768 51.3087L198.428 42.5186L183.289 34.168L177.5 24.4989L187.742 28.0149L201.1 31.9705L205.998 26.9162L203.549 21.6421C203.549 21.6421 201.318 17.4798 201.768 14.61C202.241 11.5901 203.301 9.95759 205.998 8.45698C207.872 7.41445 209.047 6.68192 211.342 7.13846Z" fill="#0C001F"/>
<path d="M93.3415 7.13846C95.5917 7.5861 97.2354 8.51985 98.4623 10.4347C99.9609 12.7738 100.466 14.8298 99.3528 17.4668C96.4585 18.3458 94.9 19.2248 91.5604 18.1261C92.8962 21.6421 96.4585 21.6421 98.4623 21.6421C98.9075 21.6421 98.4623 23.8396 98.4623 23.8396C97.2583 25.6881 93.7868 26.9162 93.7868 26.9162L96.4585 31.9705L110.262 28.0149L118.5 24.4989L114.27 34.168L97.3491 42.5186L95.3453 51.7482L103.583 57.9012L93.7868 59L89.334 51.3087L85.5491 59L74.6396 57.9012L83.7679 51.3087L80.4283 42.5186L65.2887 34.168L59.5 24.4989L69.7415 28.0149L83.1 31.9705L87.9981 26.9162L85.5491 21.6421C85.5491 21.6421 83.3179 17.4798 83.7679 14.61C84.2415 11.5901 85.301 9.95759 87.9981 8.45698C89.8719 7.41445 91.0465 6.68192 93.3415 7.13846Z" fill="#0C001F"/>
<path d="M1636.34 7.13846C1638.59 7.5861 1640.24 8.51985 1641.46 10.4347C1642.96 12.7738 1643.47 14.8298 1642.35 17.4668C1639.46 18.3458 1637.9 19.2248 1634.56 18.1261C1635.9 21.6421 1639.46 21.6421 1641.46 21.6421C1641.91 21.6421 1641.46 23.8396 1641.46 23.8396C1640.26 25.6881 1636.79 26.9162 1636.79 26.9162L1639.46 31.9705L1653.26 28.0149L1661.5 24.4989L1657.27 34.168L1640.35 42.5186L1638.35 51.7482L1646.58 57.9012L1636.79 59L1632.33 51.3087L1628.55 59L1617.64 57.9012L1626.77 51.3087L1623.43 42.5186L1608.29 34.168L1602.5 24.4989L1612.74 28.0149L1626.1 31.9705L1631 26.9162L1628.55 21.6421C1628.55 21.6421 1626.32 17.4798 1626.77 14.61C1627.24 11.5901 1628.3 9.95759 1631 8.45698C1632.87 7.41445 1634.05 6.68192 1636.34 7.13846Z" fill="#0C001F"/>
<path d="M1695.34 7.13852C1697.59 7.58616 1699.24 8.51991 1700.46 10.4348C1701.96 12.7739 1702.47 14.8299 1701.35 17.4669C1698.46 18.3459 1696.9 19.2249 1693.56 18.1261C1694.9 21.6422 1698.46 21.6422 1700.46 21.6422C1700.91 21.6422 1700.46 23.8397 1700.46 23.8397C1699.26 25.6882 1695.79 26.9162 1695.79 26.9162L1698.46 31.9705L1712.26 28.015L1720.5 24.499L1716.27 34.1681L1699.35 42.5186L1697.35 51.7482L1705.58 57.9013L1695.79 59.0001L1691.33 51.3087L1687.55 59.0001L1676.64 57.9013L1685.77 51.3087L1682.43 42.5186L1667.29 34.1681L1661.5 24.499L1671.74 28.015L1685.1 31.9705L1690 26.9162L1687.55 21.6422C1687.55 21.6422 1685.32 17.4798 1685.77 14.6101C1686.24 11.5901 1687.3 9.95765 1690 8.45704C1691.87 7.41451 1693.05 6.68198 1695.34 7.13852Z" fill="#0C001F"/>
<path d="M1754.34 7.13852C1756.59 7.58616 1758.24 8.51991 1759.46 10.4348C1760.96 12.7739 1761.47 14.8299 1760.35 17.4669C1757.46 18.3459 1755.9 19.2249 1752.56 18.1261C1753.9 21.6422 1757.46 21.6422 1759.46 21.6422C1759.91 21.6422 1759.46 23.8397 1759.46 23.8397C1758.26 25.6882 1754.79 26.9162 1754.79 26.9162L1757.46 31.9705L1771.26 28.015L1779.5 24.499L1775.27 34.1681L1758.35 42.5186L1756.35 51.7482L1764.58 57.9013L1754.79 59.0001L1750.33 51.3087L1746.55 59.0001L1735.64 57.9013L1744.77 51.3087L1741.43 42.5186L1726.29 34.1681L1720.5 24.499L1730.74 28.015L1744.1 31.9705L1749 26.9162L1746.55 21.6422C1746.55 21.6422 1744.32 17.4798 1744.77 14.6101C1745.24 11.5901 1746.3 9.95765 1749 8.45704C1750.87 7.41451 1752.05 6.68198 1754.34 7.13852Z" fill="#0C001F"/>
<path d="M1813.34 7.13852C1815.59 7.58616 1817.24 8.51991 1818.46 10.4348C1819.96 12.7739 1820.47 14.8299 1819.35 17.4669C1816.46 18.3459 1814.9 19.2249 1811.56 18.1261C1812.9 21.6422 1816.46 21.6422 1818.46 21.6422C1818.91 21.6422 1818.46 23.8397 1818.46 23.8397C1817.26 25.6882 1813.79 26.9162 1813.79 26.9162L1816.46 31.9705L1830.26 28.015L1838.5 24.499L1834.27 34.1681L1817.35 42.5186L1815.35 51.7482L1823.58 57.9013L1813.79 59.0001L1809.33 51.3087L1805.55 59.0001L1794.64 57.9013L1803.77 51.3087L1800.43 42.5186L1785.29 34.1681L1779.5 24.499L1789.74 28.015L1803.1 31.9705L1808 26.9162L1805.55 21.6422C1805.55 21.6422 1803.32 17.4798 1803.77 14.6101C1804.24 11.5901 1805.3 9.95765 1808 8.45704C1809.87 7.41451 1811.05 6.68198 1813.34 7.13852Z" fill="#0C001F"/>
<path d="M1872.34 7.13852C1874.59 7.58616 1876.24 8.51991 1877.46 10.4348C1878.96 12.7739 1879.47 14.8299 1878.35 17.4669C1875.46 18.3459 1873.9 19.2249 1870.56 18.1261C1871.9 21.6422 1875.46 21.6422 1877.46 21.6422C1877.91 21.6422 1877.46 23.8397 1877.46 23.8397C1876.26 25.6882 1872.79 26.9162 1872.79 26.9162L1875.46 31.9705L1889.26 28.015L1897.5 24.499L1893.27 34.1681L1876.35 42.5186L1874.35 51.7482L1882.58 57.9013L1872.79 59.0001L1868.33 51.3087L1864.55 59.0001L1853.64 57.9013L1862.77 51.3087L1859.43 42.5186L1844.29 34.1681L1838.5 24.499L1848.74 28.015L1862.1 31.9705L1867 26.9162L1864.55 21.6422C1864.55 21.6422 1862.32 17.4798 1862.77 14.6101C1863.24 11.5901 1864.3 9.95765 1867 8.45704C1868.87 7.41451 1870.05 6.68198 1872.34 7.13852Z" fill="#0C001F"/>
<path d="M1576.92 7.13846C1579.2 7.5861 1580.87 8.51985 1582.12 10.4347C1583.65 12.7738 1584.16 14.8298 1583.03 17.4668C1580.08 18.3458 1578.5 19.2248 1575.1 18.1261C1576.46 21.6421 1580.08 21.6421 1582.12 21.6421L1582.12 21.6421C1582.58 21.6421 1582.12 23.8396 1582.12 23.8396C1580.9 25.6881 1577.37 26.9162 1577.37 26.9162L1580.08 31.9705L1594.12 28.0149L1602.5 24.4989L1598.2 34.168L1580.99 42.5186L1578.95 51.7482L1587.33 57.9012L1577.37 59L1572.84 51.3087L1568.99 59L1557.9 57.9012L1567.18 51.3087L1563.78 42.5186L1548.39 34.168L1542.5 24.4989L1552.92 28.0149L1566.5 31.9705L1571.48 26.9162L1568.99 21.6421C1568.99 21.6421 1566.72 17.4798 1567.18 14.61C1567.66 11.5901 1568.74 9.95759 1571.48 8.45698C1573.39 7.41445 1574.58 6.68192 1576.92 7.13846Z" fill="#0C001F"/>
<path d="M1517.34 7.13846C1519.59 7.5861 1521.24 8.51985 1522.46 10.4347C1523.96 12.7738 1524.47 14.8298 1523.35 17.4668C1520.46 18.3458 1518.9 19.2248 1515.56 18.1261C1516.9 21.6421 1520.46 21.6421 1522.46 21.6421L1522.46 21.6421C1522.91 21.6421 1522.46 23.8396 1522.46 23.8396C1521.26 25.6881 1517.79 26.9162 1517.79 26.9162L1520.46 31.9705L1534.26 28.0149L1542.5 24.4989L1538.27 34.168L1521.35 42.5186L1519.35 51.7482L1527.58 57.9012L1517.79 59L1513.33 51.3087L1509.55 59L1498.64 57.9012L1507.77 51.3087L1504.43 42.5186L1489.29 34.168L1483.5 24.4989L1493.74 28.0149L1507.1 31.9705L1512 26.9162L1509.55 21.6421C1509.55 21.6421 1507.32 17.4798 1507.77 14.61C1508.24 11.5901 1509.3 9.95759 1512 8.45698C1513.87 7.41445 1515.05 6.68192 1517.34 7.13846Z" fill="#0C001F"/>
<path d="M1458.34 7.13846C1460.59 7.5861 1462.24 8.51985 1463.46 10.4347C1464.96 12.7738 1465.47 14.8298 1464.35 17.4668C1461.46 18.3458 1459.9 19.2248 1456.56 18.1261C1457.9 21.6421 1461.46 21.6421 1463.46 21.6421L1463.46 21.6421C1463.91 21.6421 1463.46 23.8396 1463.46 23.8396C1462.26 25.6881 1458.79 26.9162 1458.79 26.9162L1461.46 31.9705L1475.26 28.0149L1483.5 24.4989L1479.27 34.168L1462.35 42.5186L1460.35 51.7482L1468.58 57.9012L1458.79 59L1454.33 51.3087L1450.55 59L1439.64 57.9012L1448.77 51.3087L1445.43 42.5186L1430.29 34.168L1424.5 24.4989L1434.74 28.0149L1448.1 31.9705L1453 26.9162L1450.55 21.6421C1450.55 21.6421 1448.32 17.4798 1448.77 14.61C1449.24 11.5901 1450.3 9.95759 1453 8.45698C1454.87 7.41445 1456.05 6.68192 1458.34 7.13846Z" fill="#0C001F"/>
<path d="M1398.92 7.13846C1401.2 7.5861 1402.87 8.51985 1404.12 10.4347C1405.65 12.7738 1406.16 14.8298 1405.03 17.4668C1402.08 18.3458 1400.5 19.2248 1397.1 18.1261C1398.46 21.6421 1402.08 21.6421 1404.12 21.6421L1404.12 21.6421C1404.58 21.6421 1404.12 23.8396 1404.12 23.8396C1402.9 25.6881 1399.37 26.9162 1399.37 26.9162L1402.08 31.9705L1416.12 28.0149L1424.5 24.4989L1420.2 34.168L1402.99 42.5186L1400.95 51.7482L1409.33 57.9012L1399.37 59L1394.84 51.3087L1390.99 59L1379.9 57.9012L1389.18 51.3087L1385.78 42.5186L1370.39 34.168L1364.5 24.4989L1374.92 28.0149L1388.5 31.9705L1393.48 26.9162L1390.99 21.6421C1390.99 21.6421 1388.72 17.4798 1389.18 14.61C1389.66 11.5901 1390.74 9.95759 1393.48 8.45698C1395.39 7.41445 1396.58 6.68192 1398.92 7.13846Z" fill="#0C001F"/>
<path d="M1339.34 7.13846C1341.59 7.5861 1343.24 8.51985 1344.46 10.4347C1345.96 12.7738 1346.47 14.8298 1345.35 17.4668C1342.46 18.3458 1340.9 19.2248 1337.56 18.1261C1338.9 21.6421 1342.46 21.6421 1344.46 21.6421L1344.46 21.6421C1344.91 21.6421 1344.46 23.8396 1344.46 23.8396C1343.26 25.6881 1339.79 26.9162 1339.79 26.9162L1342.46 31.9705L1356.26 28.0149L1364.5 24.4989L1360.27 34.168L1343.35 42.5186L1341.35 51.7482L1349.58 57.9012L1339.79 59L1335.33 51.3087L1331.55 59L1320.64 57.9012L1329.77 51.3087L1326.43 42.5186L1311.29 34.168L1305.5 24.4989L1315.74 28.0149L1329.1 31.9705L1334 26.9162L1331.55 21.6421C1331.55 21.6421 1329.32 17.4798 1329.77 14.61C1330.24 11.5901 1331.3 9.95759 1334 8.45698C1335.87 7.41445 1337.05 6.68192 1339.34 7.13846Z" fill="#0C001F"/>
<path d="M1280.34 7.13846C1282.59 7.5861 1284.24 8.51985 1285.46 10.4347C1286.96 12.7738 1287.47 14.8298 1286.35 17.4668C1283.46 18.3458 1281.9 19.2248 1278.56 18.1261C1279.9 21.6421 1283.46 21.6421 1285.46 21.6421L1285.46 21.6421C1285.91 21.6421 1285.46 23.8396 1285.46 23.8396C1284.26 25.6881 1280.79 26.9162 1280.79 26.9162L1283.46 31.9705L1297.26 28.0149L1305.5 24.4989L1301.27 34.168L1284.35 42.5186L1282.35 51.7482L1290.58 57.9012L1280.79 59L1276.33 51.3087L1272.55 59L1261.64 57.9012L1270.77 51.3087L1267.43 42.5186L1252.29 34.168L1246.5 24.4989L1256.74 28.0149L1270.1 31.9705L1275 26.9162L1272.55 21.6421C1272.55 21.6421 1270.32 17.4798 1270.77 14.61C1271.24 11.5901 1272.3 9.95759 1275 8.45698C1276.87 7.41445 1278.05 6.68192 1280.34 7.13846Z" fill="#0C001F"/>
<path d="M1220.92 7.13846C1223.2 7.5861 1224.87 8.51985 1226.12 10.4347C1227.65 12.7738 1228.16 14.8298 1227.03 17.4668C1224.08 18.3458 1222.5 19.2248 1219.1 18.1261C1220.46 21.6421 1224.08 21.6421 1226.12 21.6421L1226.12 21.6421C1226.58 21.6421 1226.12 23.8396 1226.12 23.8396C1224.9 25.6881 1221.37 26.9162 1221.37 26.9162L1224.08 31.9705L1238.12 28.0149L1246.5 24.4989L1242.2 34.168L1224.99 42.5186L1222.95 51.7482L1231.33 57.9012L1221.37 59L1216.84 51.3087L1212.99 59L1201.9 57.9012L1211.18 51.3087L1207.78 42.5186L1192.39 34.168L1186.5 24.4989L1196.92 28.0149L1210.5 31.9705L1215.48 26.9162L1212.99 21.6421C1212.99 21.6421 1210.72 17.4798 1211.18 14.61C1211.66 11.5901 1212.74 9.95759 1215.48 8.45698C1217.39 7.41445 1218.58 6.68192 1220.92 7.13846Z" fill="#0C001F"/>
<path d="M1161.34 7.13846C1163.59 7.5861 1165.24 8.51985 1166.46 10.4347C1167.96 12.7738 1168.47 14.8298 1167.35 17.4668C1164.46 18.3458 1162.9 19.2248 1159.56 18.1261C1160.9 21.6421 1164.46 21.6421 1166.46 21.6421L1166.46 21.6421C1166.91 21.6421 1166.46 23.8396 1166.46 23.8396C1165.26 25.6881 1161.79 26.9162 1161.79 26.9162L1164.46 31.9705L1178.26 28.0149L1186.5 24.4989L1182.27 34.168L1165.35 42.5186L1163.35 51.7482L1171.58 57.9012L1161.79 59L1157.33 51.3087L1153.55 59L1142.64 57.9012L1151.77 51.3087L1148.43 42.5186L1133.29 34.168L1127.5 24.4989L1137.74 28.0149L1151.1 31.9705L1156 26.9162L1153.55 21.6421C1153.55 21.6421 1151.32 17.4798 1151.77 14.61C1152.24 11.5901 1153.3 9.95759 1156 8.45698C1157.87 7.41445 1159.05 6.68192 1161.34 7.13846Z" fill="#0C001F"/>
<path d="M1101.92 7.13846C1104.2 7.5861 1105.87 8.51985 1107.12 10.4347C1108.65 12.7738 1109.16 14.8298 1108.03 17.4668C1105.08 18.3458 1103.5 19.2248 1100.1 18.1261C1101.46 21.6421 1105.08 21.6421 1107.12 21.6421L1107.12 21.6421C1107.58 21.6421 1107.12 23.8396 1107.12 23.8396C1105.9 25.6881 1102.37 26.9162 1102.37 26.9162L1105.08 31.9705L1119.12 28.0149L1127.5 24.4989L1123.2 34.168L1105.99 42.5186L1103.95 51.7482L1112.33 57.9012L1102.37 59L1097.84 51.3087L1093.99 59L1082.9 57.9012L1092.18 51.3087L1088.78 42.5186L1073.39 34.168L1067.5 24.4989L1077.92 28.0149L1091.5 31.9705L1096.48 26.9162L1093.99 21.6421C1093.99 21.6421 1091.72 17.4798 1092.18 14.61C1092.66 11.5901 1093.74 9.95759 1096.48 8.45698C1098.39 7.41445 1099.58 6.68192 1101.92 7.13846Z" fill="#0C001F"/>
<path d="M1041.42 7.13846C1043.7 7.5861 1045.37 8.51985 1046.62 10.4347C1048.15 12.7738 1048.66 14.8298 1047.53 17.4668C1044.58 18.3458 1043 19.2248 1039.6 18.1261C1040.96 21.6421 1044.58 21.6421 1046.62 21.6421L1046.62 21.6421C1047.08 21.6421 1046.62 23.8396 1046.62 23.8396C1045.4 25.6881 1041.87 26.9162 1041.87 26.9162L1044.58 31.9705L1058.62 28.0149L1067 24.4989L1062.7 34.168L1045.49 42.5186L1043.45 51.7482L1051.83 57.9012L1041.87 59L1037.34 51.3087L1033.49 59L1022.4 57.9012L1031.68 51.3087L1028.28 42.5186L1012.89 34.168L1007 24.4989L1017.42 28.0149L1031 31.9705L1035.98 26.9162L1033.49 21.6421C1033.49 21.6421 1031.22 17.4798 1031.68 14.61C1032.16 11.5901 1033.24 9.95759 1035.98 8.45698C1037.89 7.41445 1039.08 6.68192 1041.42 7.13846Z" fill="#0C001F"/>
<path d="M982.342 7.13846C984.592 7.5861 986.235 8.51985 987.462 10.4347C988.961 12.7738 989.466 14.8298 988.353 17.4668C985.458 18.3458 983.9 19.2248 980.56 18.1261C981.896 21.6421 985.458 21.6421 987.462 21.6421L987.462 21.6421C987.908 21.6421 987.462 23.8396 987.462 23.8396C986.258 25.6881 982.787 26.9162 982.787 26.9162L985.458 31.9705L999.262 28.0149L1007.5 24.4989L1003.27 34.168L986.349 42.5186L984.345 51.7482L992.583 57.9012L982.787 59L978.334 51.3087L974.549 59L963.64 57.9012L972.768 51.3087L969.428 42.5186L954.289 34.168L948.5 24.4989L958.742 28.0149L972.1 31.9705L976.998 26.9162L974.549 21.6421C974.549 21.6421 972.318 17.4798 972.768 14.61C973.241 11.5901 974.301 9.95759 976.998 8.45698C978.872 7.41445 980.047 6.68192 982.342 7.13846Z" fill="#0C001F"/>
<path d="M39.6226 19.5C36.5 18 34.8962 21.5988 31.5 20.5C33.1287 24.7155 34.3774 23.5 39 22.5C37.7756 24.3485 34.8679 26.9163 34.8679 26.9163L43 30L51.6226 28.0151L60 24.499L55.6981 34.1681L43.5 43.5L45 48.5L37.5 49L40 55L52 56.5L50 60.5L39 59.5L37.5 60.5L35.5 60L34 57.5L32.5 51L28.9811 57.5L27.9811 60L21.9811 60.5L21 60L11.4811 61L10 57.5L21.9811 55L23 48.5L18.5 48.5L18.5 43.5L5.88679 34.1681L-1.04654e-06 24.499L10.4151 28.0151L20.5 30.5L28.9811 26.9163C27.3011 25.1916 26.3208 25 25.5 22.5C24.6792 20 25.0424 15.3698 25.5 12.5C25.5403 12.2474 26.1658 11.6279 25.5 11.5C22.5 12 14.9962 11.8494 11.5 11.5C10.0967 11.3598 12.254 10.272 12.5 10C13.1236 9.31056 23.9428 7.07842 25 6.50003C25.9384 5.98664 25.1855 1.75809 26 1.50003C26.4264 1.36495 34.0887 -0.183971 34.8679 1.00003C35.623 2.14723 38.4171 5.886 39 6.00003C39.9717 6.19011 45.961 6.96774 49 7.00003C50.0148 7.01081 50.7658 8.33593 51 8.50001C48.5 9.00001 44 10 40.1318 10.3708C39.7816 10.3709 39.5912 10.3867 39.6226 10.4349C40.8866 12.3747 40.8327 15.862 40.1318 18.5C39.9875 19.0429 39.8159 19.0499 39.6226 19.5Z" fill="#EE0521"/>
<path d="M39.6508 19.0001C39.5414 19.0001 38.5022 22.5498 38.9999 22.5001C47.5 21.65 45.5 16.0001 45.5 16.0001C45.5 16.0001 42 19.0001 39.6508 19.0001Z" fill="#EE0521"/>
</g>
<defs>
<clipPath id="clip0_136_221">
<rect width="3796" height="61" fill="white"/>
</clipPath>
</defs>
</svg>
