<svg width="60" height="2133" viewBox="0 0 60 2133" fill="none" xmlns="http://www.w3.org/2000/svg">
<g clip-path="url(#clip0_128_134)">
<path d="M6.13846 1211.16C6.5861 1208.91 7.51985 1207.26 9.43475 1206.04C11.7738 1204.54 13.8298 1204.03 16.4668 1205.15C17.3458 1208.04 18.2248 1209.6 17.1261 1212.94C20.6421 1211.6 20.6421 1208.04 20.6421 1206.04V1206.04C20.6421 1205.59 22.8396 1206.04 22.8396 1206.04C24.6881 1207.24 25.9162 1210.71 25.9162 1210.71L30.9705 1208.04L27.0149 1194.24L23.4989 1186L33.168 1190.23L41.5186 1207.15L50.7482 1209.15L56.9012 1200.92L58 1210.71L50.3087 1215.17L58 1218.95L56.9012 1229.86L50.3087 1220.73L41.5186 1224.07L33.168 1239.21L23.4989 1245L27.0149 1234.76L30.9705 1221.4L25.9162 1216.5L20.6421 1218.95C20.6421 1218.95 16.4798 1221.18 13.61 1220.73C10.5901 1220.26 8.95759 1219.2 7.45698 1216.5C6.41445 1214.63 5.68192 1213.45 6.13846 1211.16Z" fill="#0C001F"/>
<path d="M6.13846 1270.58C6.5861 1268.3 7.51985 1266.63 9.43475 1265.38C11.7738 1263.85 13.8298 1263.34 16.4668 1264.47C17.3458 1267.42 18.2248 1269 17.1261 1272.4C20.6421 1271.04 20.6421 1267.42 20.6421 1265.38V1265.38C20.6421 1264.92 22.8396 1265.38 22.8396 1265.38C24.6881 1266.6 25.9162 1270.13 25.9162 1270.13L30.9705 1267.42L27.0149 1253.38L23.4989 1245L33.168 1249.3L41.5186 1266.51L50.7482 1268.55L56.9012 1260.17L58 1270.13L50.3087 1274.66L58 1278.51L56.9012 1289.6L50.3087 1280.32L41.5186 1283.72L33.168 1299.11L23.4989 1305L27.0149 1294.58L30.9705 1281L25.9162 1276.02L20.6421 1278.51C20.6421 1278.51 16.4798 1280.78 13.61 1280.32C10.5901 1279.84 8.95759 1278.76 7.45698 1276.02C6.41445 1274.11 5.68192 1272.92 6.13846 1270.58Z" fill="#0C001F"/>
<path d="M6.13846 1330.16C6.5861 1327.91 7.51985 1326.26 9.43475 1325.04C11.7738 1323.54 13.8298 1323.03 16.4668 1324.15C17.3458 1327.04 18.2248 1328.6 17.1261 1331.94C20.6421 1330.6 20.6421 1327.04 20.6421 1325.04V1325.04C20.6421 1324.59 22.8396 1325.04 22.8396 1325.04C24.6881 1326.24 25.9162 1329.71 25.9162 1329.71L30.9705 1327.04L27.0149 1313.24L23.4989 1305L33.168 1309.23L41.5186 1326.15L50.7482 1328.15L56.9012 1319.92L58 1329.71L50.3087 1334.17L58 1337.95L56.9012 1348.86L50.3087 1339.73L41.5186 1343.07L33.168 1358.21L23.4989 1364L27.0149 1353.76L30.9705 1340.4L25.9162 1335.5L20.6421 1337.95C20.6421 1337.95 16.4798 1340.18 13.61 1339.73C10.5901 1339.26 8.95759 1338.2 7.45698 1335.5C6.41445 1333.63 5.68192 1332.45 6.13846 1330.16Z" fill="#0C001F"/>
<path d="M6.13846 1389.16C6.5861 1386.91 7.51985 1385.26 9.43475 1384.04C11.7738 1382.54 13.8298 1382.03 16.4668 1383.15C17.3458 1386.04 18.2248 1387.6 17.1261 1390.94C20.6421 1389.6 20.6421 1386.04 20.6421 1384.04V1384.04C20.6421 1383.59 22.8396 1384.04 22.8396 1384.04C24.6881 1385.24 25.9162 1388.71 25.9162 1388.71L30.9705 1386.04L27.0149 1372.24L23.4989 1364L33.168 1368.23L41.5186 1385.15L50.7482 1387.15L56.9012 1378.92L58 1388.71L50.3087 1393.17L58 1396.95L56.9012 1407.86L50.3087 1398.73L41.5186 1402.07L33.168 1417.21L23.4989 1423L27.0149 1412.76L30.9705 1399.4L25.9162 1394.5L20.6421 1396.95C20.6421 1396.95 16.4798 1399.18 13.61 1398.73C10.5901 1398.26 8.95759 1397.2 7.45698 1394.5C6.41445 1392.63 5.68192 1391.45 6.13846 1389.16Z" fill="#0C001F"/>
<path d="M6.13846 1448.58C6.5861 1446.3 7.51985 1444.63 9.43475 1443.38C11.7738 1441.85 13.8298 1441.34 16.4668 1442.47C17.3458 1445.42 18.2248 1447 17.1261 1450.4C20.6421 1449.04 20.6421 1445.42 20.6421 1443.38V1443.38C20.6421 1442.92 22.8396 1443.38 22.8396 1443.38C24.6881 1444.6 25.9162 1448.13 25.9162 1448.13L30.9705 1445.42L27.0149 1431.38L23.4989 1423L33.168 1427.3L41.5186 1444.51L50.7482 1446.55L56.9012 1438.17L58 1448.13L50.3087 1452.66L58 1456.51L56.9012 1467.6L50.3087 1458.32L41.5186 1461.72L33.168 1477.11L23.4989 1483L27.0149 1472.58L30.9705 1459L25.9162 1454.02L20.6421 1456.51C20.6421 1456.51 16.4798 1458.78 13.61 1458.32C10.5901 1457.84 8.95759 1456.76 7.45698 1454.02C6.41445 1452.11 5.68192 1450.92 6.13846 1448.58Z" fill="#0C001F"/>
<path d="M6.13846 1508.16C6.5861 1505.91 7.51985 1504.26 9.43475 1503.04C11.7738 1501.54 13.8298 1501.03 16.4668 1502.15C17.3458 1505.04 18.2248 1506.6 17.1261 1509.94C20.6421 1508.6 20.6421 1505.04 20.6421 1503.04V1503.04C20.6421 1502.59 22.8396 1503.04 22.8396 1503.04C24.6881 1504.24 25.9162 1507.71 25.9162 1507.71L30.9705 1505.04L27.0149 1491.24L23.4989 1483L33.168 1487.23L41.5186 1504.15L50.7482 1506.15L56.9012 1497.92L58 1507.71L50.3087 1512.17L58 1515.95L56.9012 1526.86L50.3087 1517.73L41.5186 1521.07L33.168 1536.21L23.4989 1542L27.0149 1531.76L30.9705 1518.4L25.9162 1513.5L20.6421 1515.95C20.6421 1515.95 16.4798 1518.18 13.61 1517.73C10.5901 1517.26 8.95759 1516.2 7.45698 1513.5C6.41445 1511.63 5.68192 1510.45 6.13846 1508.16Z" fill="#0C001F"/>
<path d="M6.13846 1567.16C6.5861 1564.91 7.51985 1563.26 9.43475 1562.04C11.7738 1560.54 13.8298 1560.03 16.4668 1561.15C17.3458 1564.04 18.2248 1565.6 17.1261 1568.94C20.6421 1567.6 20.6421 1564.04 20.6421 1562.04V1562.04C20.6421 1561.59 22.8396 1562.04 22.8396 1562.04C24.6881 1563.24 25.9162 1566.71 25.9162 1566.71L30.9705 1564.04L27.0149 1550.24L23.4989 1542L33.168 1546.23L41.5186 1563.15L50.7482 1565.15L56.9012 1556.92L58 1566.71L50.3087 1571.17L58 1574.95L56.9012 1585.86L50.3087 1576.73L41.5186 1580.07L33.168 1595.21L23.4989 1601L27.0149 1590.76L30.9705 1577.4L25.9162 1572.5L20.6421 1574.95C20.6421 1574.95 16.4798 1577.18 13.61 1576.73C10.5901 1576.26 8.95759 1575.2 7.45698 1572.5C6.41445 1570.63 5.68192 1569.45 6.13846 1567.16Z" fill="#0C001F"/>
<path d="M6.13846 1626.58C6.5861 1624.3 7.51985 1622.63 9.43475 1621.38C11.7738 1619.85 13.8298 1619.34 16.4668 1620.47C17.3458 1623.42 18.2248 1625 17.1261 1628.4C20.6421 1627.04 20.6421 1623.42 20.6421 1621.38V1621.38C20.6421 1620.92 22.8396 1621.38 22.8396 1621.38C24.6881 1622.6 25.9162 1626.13 25.9162 1626.13L30.9705 1623.42L27.0149 1609.38L23.4989 1601L33.168 1605.3L41.5186 1622.51L50.7482 1624.55L56.9012 1616.17L58 1626.13L50.3087 1630.66L58 1634.51L56.9012 1645.6L50.3087 1636.32L41.5186 1639.72L33.168 1655.11L23.4989 1661L27.0149 1650.58L30.9705 1637L25.9162 1632.02L20.6421 1634.51C20.6421 1634.51 16.4798 1636.78 13.61 1636.32C10.5901 1635.84 8.95759 1634.76 7.45698 1632.02C6.41445 1630.11 5.68192 1628.92 6.13846 1626.58Z" fill="#0C001F"/>
<path d="M6.13846 1686.16C6.5861 1683.91 7.51985 1682.26 9.43475 1681.04C11.7738 1679.54 13.8298 1679.03 16.4668 1680.15C17.3458 1683.04 18.2248 1684.6 17.1261 1687.94C20.6421 1686.6 20.6421 1683.04 20.6421 1681.04V1681.04C20.6421 1680.59 22.8396 1681.04 22.8396 1681.04C24.6881 1682.24 25.9162 1685.71 25.9162 1685.71L30.9705 1683.04L27.0149 1669.24L23.4989 1661L33.168 1665.23L41.5186 1682.15L50.7482 1684.15L56.9012 1675.92L58 1685.71L50.3087 1690.17L58 1693.95L56.9012 1704.86L50.3087 1695.73L41.5186 1699.07L33.168 1714.21L23.4989 1720L27.0149 1709.76L30.9705 1696.4L25.9162 1691.5L20.6421 1693.95C20.6421 1693.95 16.4798 1696.18 13.61 1695.73C10.5901 1695.26 8.95759 1694.2 7.45698 1691.5C6.41445 1689.63 5.68192 1688.45 6.13846 1686.16Z" fill="#0C001F"/>
<path d="M6.13846 1745.16C6.5861 1742.91 7.51985 1741.26 9.43475 1740.04C11.7738 1738.54 13.8298 1738.03 16.4668 1739.15C17.3458 1742.04 18.2248 1743.6 17.1261 1746.94C20.6421 1745.6 20.6421 1742.04 20.6421 1740.04V1740.04C20.6421 1739.59 22.8396 1740.04 22.8396 1740.04C24.6881 1741.24 25.9162 1744.71 25.9162 1744.71L30.9705 1742.04L27.0149 1728.24L23.4989 1720L33.168 1724.23L41.5186 1741.15L50.7482 1743.15L56.9012 1734.92L58 1744.71L50.3087 1749.17L58 1752.95L56.9012 1763.86L50.3087 1754.73L41.5186 1758.07L33.168 1773.21L23.4989 1779L27.0149 1768.76L30.9705 1755.4L25.9162 1750.5L20.6421 1752.95C20.6421 1752.95 16.4798 1755.18 13.61 1754.73C10.5901 1754.26 8.95759 1753.2 7.45698 1750.5C6.41445 1748.63 5.68192 1747.45 6.13846 1745.16Z" fill="#0C001F"/>
<path d="M6.13846 1804.58C6.5861 1802.3 7.51985 1800.63 9.43475 1799.38C11.7738 1797.85 13.8298 1797.34 16.4668 1798.47C17.3458 1801.42 18.2248 1803 17.1261 1806.4C20.6421 1805.04 20.6421 1801.42 20.6421 1799.38V1799.38C20.6421 1798.92 22.8396 1799.38 22.8396 1799.38C24.6881 1800.6 25.9162 1804.13 25.9162 1804.13L30.9705 1801.42L27.0149 1787.38L23.4989 1779L33.168 1783.3L41.5186 1800.51L50.7482 1802.55L56.9012 1794.17L58 1804.13L50.3087 1808.66L58 1812.51L56.9012 1823.6L50.3087 1814.32L41.5186 1817.72L33.168 1833.11L23.4989 1839L27.0149 1828.58L30.9705 1815L25.9162 1810.02L20.6421 1812.51C20.6421 1812.51 16.4798 1814.78 13.61 1814.32C10.5901 1813.84 8.95759 1812.76 7.45698 1810.02C6.41445 1808.11 5.68192 1806.92 6.13846 1804.58Z" fill="#0C001F"/>
<path d="M6.13846 1864.16C6.5861 1861.91 7.51985 1860.26 9.43475 1859.04C11.7738 1857.54 13.8298 1857.03 16.4668 1858.15C17.3458 1861.04 18.2248 1862.6 17.1261 1865.94C20.6421 1864.6 20.6421 1861.04 20.6421 1859.04V1859.04C20.6421 1858.59 22.8396 1859.04 22.8396 1859.04C24.6881 1860.24 25.9162 1863.71 25.9162 1863.71L30.9705 1861.04L27.0149 1847.24L23.4989 1839L33.168 1843.23L41.5186 1860.15L50.7482 1862.15L56.9012 1853.92L58 1863.71L50.3087 1868.17L58 1871.95L56.9012 1882.86L50.3087 1873.73L41.5186 1877.07L33.168 1892.21L23.4989 1898L27.0149 1887.76L30.9705 1874.4L25.9162 1869.5L20.6421 1871.95C20.6421 1871.95 16.4798 1874.18 13.61 1873.73C10.5901 1873.26 8.95759 1872.2 7.45698 1869.5C6.41445 1867.63 5.68192 1866.45 6.13846 1864.16Z" fill="#0C001F"/>
<path d="M6.13846 1982.16C6.5861 1979.91 7.51985 1978.26 9.43475 1977.04C11.7738 1975.54 13.8298 1975.03 16.4668 1976.15C17.3458 1979.04 18.2248 1980.6 17.1261 1983.94C20.6421 1982.6 20.6421 1979.04 20.6421 1977.04C20.6421 1976.59 22.8396 1977.04 22.8396 1977.04C24.6881 1978.24 25.9162 1981.71 25.9162 1981.71L30.9705 1979.04L27.0149 1965.24L23.4989 1957L33.168 1961.23L41.5186 1978.15L50.7482 1980.15L56.9012 1971.92L58 1981.71L50.3087 1986.17L58 1989.95L56.9012 2000.86L50.3087 1991.73L41.5186 1995.07L33.168 2010.21L23.4989 2016L27.0149 2005.76L30.9705 1992.4L25.9162 1987.5L20.6421 1989.95C20.6421 1989.95 16.4798 1992.18 13.61 1991.73C10.5901 1991.26 8.95759 1990.2 7.45698 1987.5C6.41445 1985.63 5.68192 1984.45 6.13846 1982.16Z" fill="#0C001F"/>
<path d="M6.13846 1923.16C6.5861 1920.91 7.51985 1919.26 9.43475 1918.04C11.7738 1916.54 13.8298 1916.03 16.4668 1917.15C17.3458 1920.04 18.2248 1921.6 17.1261 1924.94C20.6421 1923.6 20.6421 1920.04 20.6421 1918.04C20.6421 1917.59 22.8396 1918.04 22.8396 1918.04C24.6881 1919.24 25.9162 1922.71 25.9162 1922.71L30.9705 1920.04L27.0149 1906.24L23.4989 1898L33.168 1902.23L41.5186 1919.15L50.7482 1921.15L56.9012 1912.92L58 1922.71L50.3087 1927.17L58 1930.95L56.9012 1941.86L50.3087 1932.73L41.5186 1936.07L33.168 1951.21L23.4989 1957L27.0149 1946.76L30.9705 1933.4L25.9162 1928.5L20.6421 1930.95C20.6421 1930.95 16.4798 1933.18 13.61 1932.73C10.5901 1932.26 8.95759 1931.2 7.45698 1928.5C6.41445 1926.63 5.68192 1925.45 6.13846 1923.16Z" fill="#0C001F"/>
<path d="M6.13846 2041.16C6.5861 2038.91 7.51985 2037.26 9.43475 2036.04C11.7738 2034.54 13.8298 2034.03 16.4668 2035.15C17.3458 2038.04 18.2248 2039.6 17.1261 2042.94C20.6421 2041.6 20.6421 2038.04 20.6421 2036.04C20.6421 2035.59 22.8396 2036.04 22.8396 2036.04C24.6881 2037.24 25.9162 2040.71 25.9162 2040.71L30.9705 2038.04L27.0149 2024.24L23.4989 2016L33.168 2020.23L41.5186 2037.15L50.7482 2039.15L56.9012 2030.92L58 2040.71L50.3087 2045.17L58 2048.95L56.9012 2059.86L50.3087 2050.73L41.5186 2054.07L33.168 2069.21L23.4989 2075L27.0149 2064.76L30.9705 2051.4L25.9162 2046.5L20.6421 2048.95C20.6421 2048.95 16.4798 2051.18 13.61 2050.73C10.5901 2050.26 8.95759 2049.2 7.45698 2046.5C6.41445 2044.63 5.68192 2043.45 6.13846 2041.16Z" fill="#0C001F"/>
<path d="M6.13846 2099.66C6.5861 2097.41 7.51985 2095.76 9.43475 2094.54C11.7738 2093.04 13.8298 2092.53 16.4668 2093.65C17.3458 2096.54 18.2248 2098.1 17.1261 2101.44C20.6421 2100.1 20.6421 2096.54 20.6421 2094.54C20.6421 2094.09 22.8396 2094.54 22.8396 2094.54C24.6881 2095.74 25.9162 2099.21 25.9162 2099.21L30.9705 2096.54L27.0149 2082.74L23.4989 2074.5L33.168 2078.73L41.5186 2095.65L50.7482 2097.65L56.9012 2089.42L58 2099.21L50.3087 2103.67L58 2107.45L56.9012 2118.36L50.3087 2109.23L41.5186 2112.57L33.168 2127.71L23.4989 2133.5L27.0149 2123.26L30.9705 2109.9L25.9162 2105L20.6421 2107.45C20.6421 2107.45 16.4798 2109.68 13.61 2109.23C10.5901 2108.76 8.95759 2107.7 7.45698 2105C6.41445 2103.13 5.68192 2101.95 6.13846 2099.66Z" fill="#0C001F"/>
<path d="M6.13846 498.158C6.5861 495.908 7.51985 494.265 9.43475 493.038C11.7738 491.539 13.8298 491.034 16.4668 492.147C17.3458 495.042 18.2248 496.6 17.1261 499.94C20.6421 498.604 20.6421 495.042 20.6421 493.038C20.6421 492.592 22.8396 493.038 22.8396 493.038C24.6881 494.242 25.9162 497.713 25.9162 497.713L30.9705 495.042L27.0149 481.238L23.4989 473L33.168 477.23L41.5186 494.151L50.7482 496.155L56.9012 487.917L58 497.713L50.3087 502.166L58 505.951L56.9012 516.86L50.3087 507.732L41.5186 511.072L33.168 526.211L23.4989 532L27.0149 521.758L30.9705 508.4L25.9162 503.502L20.6421 505.951C20.6421 505.951 16.4798 508.182 13.61 507.732C10.5901 507.259 8.95759 506.199 7.45698 503.502C6.41445 501.628 5.68192 500.453 6.13846 498.158Z" fill="#0C001F"/>
<path d="M6.13846 439.158C6.5861 436.908 7.51985 435.265 9.43475 434.038C11.7738 432.539 13.8298 432.034 16.4668 433.147C17.3458 436.042 18.2248 437.6 17.1261 440.94C20.6421 439.604 20.6421 436.042 20.6421 434.038C20.6421 433.592 22.8396 434.038 22.8396 434.038C24.6881 435.242 25.9162 438.713 25.9162 438.713L30.9705 436.042L27.0149 422.238L23.4989 414L33.168 418.23L41.5186 435.151L50.7482 437.155L56.9012 428.917L58 438.713L50.3087 443.166L58 446.951L56.9012 457.86L50.3087 448.732L41.5186 452.072L33.168 467.211L23.4989 473L27.0149 462.758L30.9705 449.4L25.9162 444.502L20.6421 446.951C20.6421 446.951 16.4798 449.182 13.61 448.732C10.5901 448.259 8.95759 447.199 7.45698 444.502C6.41445 442.628 5.68192 441.453 6.13846 439.158Z" fill="#0C001F"/>
<path d="M6.13846 380.158C6.5861 377.908 7.51985 376.265 9.43475 375.038C11.7738 373.539 13.8298 373.034 16.4668 374.147C17.3458 377.042 18.2248 378.6 17.1261 381.94C20.6421 380.604 20.6421 377.042 20.6421 375.038C20.6421 374.592 22.8396 375.038 22.8396 375.038C24.6881 376.242 25.9162 379.713 25.9162 379.713L30.9705 377.042L27.0149 363.238L23.4989 355L33.168 359.23L41.5186 376.151L50.7482 378.155L56.9012 369.917L58 379.713L50.3087 384.166L58 387.951L56.9012 398.86L50.3087 389.732L41.5186 393.072L33.168 408.211L23.4989 414L27.0149 403.758L30.9705 390.4L25.9162 385.502L20.6421 387.951C20.6421 387.951 16.4798 390.182 13.61 389.732C10.5901 389.259 8.95759 388.199 7.45698 385.502C6.41445 383.628 5.68192 382.453 6.13846 380.158Z" fill="#0C001F"/>
<path d="M6.13846 321.158C6.5861 318.908 7.51985 317.265 9.43475 316.038C11.7738 314.539 13.8298 314.034 16.4668 315.147C17.3458 318.042 18.2248 319.6 17.1261 322.94C20.6421 321.604 20.6421 318.042 20.6421 316.038C20.6421 315.592 22.8396 316.038 22.8396 316.038C24.6881 317.242 25.9162 320.713 25.9162 320.713L30.9705 318.042L27.0149 304.238L23.4989 296L33.168 300.23L41.5186 317.151L50.7482 319.155L56.9012 310.917L58 320.713L50.3087 325.166L58 328.951L56.9012 339.86L50.3087 330.732L41.5186 334.072L33.168 349.211L23.4989 355L27.0149 344.758L30.9705 331.4L25.9162 326.502L20.6421 328.951C20.6421 328.951 16.4798 331.182 13.61 330.732C10.5901 330.259 8.95759 329.199 7.45698 326.502C6.41445 324.628 5.68192 323.453 6.13846 321.158Z" fill="#0C001F"/>
<path d="M6.13846 262.158C6.5861 259.908 7.51985 258.265 9.43475 257.038C11.7738 255.539 13.8298 255.034 16.4668 256.147C17.3458 259.042 18.2248 260.6 17.1261 263.94C20.6421 262.604 20.6421 259.042 20.6421 257.038C20.6421 256.592 22.8396 257.038 22.8396 257.038C24.6881 258.242 25.9162 261.713 25.9162 261.713L30.9705 259.042L27.0149 245.238L23.4989 237L33.168 241.23L41.5186 258.151L50.7482 260.155L56.9012 251.917L58 261.713L50.3087 266.166L58 269.951L56.9012 280.86L50.3087 271.732L41.5186 275.072L33.168 290.211L23.4989 296L27.0149 285.758L30.9705 272.4L25.9162 267.502L20.6421 269.951C20.6421 269.951 16.4798 272.182 13.61 271.732C10.5901 271.259 8.95759 270.199 7.45698 267.502C6.41445 265.628 5.68192 264.453 6.13846 262.158Z" fill="#0C001F"/>
<path d="M6.13846 203.158C6.5861 200.908 7.51985 199.265 9.43475 198.038C11.7738 196.539 13.8298 196.034 16.4668 197.147C17.3458 200.042 18.2248 201.6 17.1261 204.94C20.6421 203.604 20.6421 200.042 20.6421 198.038C20.6421 197.592 22.8396 198.038 22.8396 198.038C24.6881 199.242 25.9162 202.713 25.9162 202.713L30.9705 200.042L27.0149 186.238L23.4989 178L33.168 182.23L41.5186 199.151L50.7482 201.155L56.9012 192.917L58 202.713L50.3087 207.166L58 210.951L56.9012 221.86L50.3087 212.732L41.5186 216.072L33.168 231.211L23.4989 237L27.0149 226.758L30.9705 213.4L25.9162 208.502L20.6421 210.951C20.6421 210.951 16.4798 213.182 13.61 212.732C10.5901 212.259 8.95759 211.199 7.45698 208.502C6.41445 206.628 5.68192 205.453 6.13846 203.158Z" fill="#0C001F"/>
<path d="M6.13846 144.158C6.5861 141.908 7.51985 140.265 9.43475 139.038C11.7738 137.539 13.8298 137.034 16.4668 138.147C17.3458 141.042 18.2248 142.6 17.1261 145.94C20.6421 144.604 20.6421 141.042 20.6421 139.038C20.6421 138.592 22.8396 139.038 22.8396 139.038C24.6881 140.242 25.9162 143.713 25.9162 143.713L30.9705 141.042L27.0149 127.238L23.4989 119L33.168 123.23L41.5186 140.151L50.7482 142.155L56.9012 133.917L58 143.713L50.3087 148.166L58 151.951L56.9012 162.86L50.3087 153.732L41.5186 157.072L33.168 172.211L23.4989 178L27.0149 167.758L30.9705 154.4L25.9162 149.502L20.6421 151.951C20.6421 151.951 16.4798 154.182 13.61 153.732C10.5901 153.259 8.95759 152.199 7.45698 149.502C6.41445 147.628 5.68192 146.453 6.13846 144.158Z" fill="#0C001F"/>
<path d="M6.13846 85.1585C6.5861 82.9083 7.51985 81.2646 9.43475 80.0377C11.7738 78.5391 13.8298 78.034 16.4668 79.1472C17.3458 82.0415 18.2248 83.6 17.1261 86.9396C20.6421 85.6038 20.6421 82.0415 20.6421 80.0377C20.6421 79.5925 22.8396 80.0377 22.8396 80.0377C24.6881 81.2417 25.9162 84.7132 25.9162 84.7132L30.9705 82.0415L27.0149 68.2377L23.4989 60L33.168 64.2302L41.5186 81.1509L50.7482 83.1547L56.9012 74.917L58 84.7132L50.3087 89.166L58 92.9509L56.9012 103.86L50.3087 94.7321L41.5186 98.0717L33.168 113.211L23.4989 119L27.0149 108.758L30.9705 95.4L25.9162 90.5019L20.6421 92.9509C20.6421 92.9509 16.4798 95.1821 13.61 94.7321C10.5901 94.2585 8.95759 93.199 7.45698 90.5019C6.41445 88.6281 5.68192 87.4535 6.13846 85.1585Z" fill="#0C001F"/>
<path d="M6.13846 557.585C6.5861 555.297 7.51985 553.625 9.43475 552.377C11.7738 550.853 13.8298 550.34 16.4668 551.472C17.3458 554.415 18.2248 556 17.1261 559.396C20.6421 558.038 20.6421 554.415 20.6421 552.377V552.377C20.6421 551.925 22.8396 552.377 22.8396 552.377C24.6881 553.602 25.9162 557.132 25.9162 557.132L30.9705 554.415L27.0149 540.377L23.4989 532L33.168 536.302L41.5186 553.509L50.7482 555.547L56.9012 547.17L58 557.132L50.3087 561.66L58 565.509L56.9012 576.604L50.3087 567.321L41.5186 570.717L33.168 586.113L23.4989 592L27.0149 581.585L30.9705 568L25.9162 563.019L20.6421 565.509C20.6421 565.509 16.4798 567.778 13.61 567.321C10.5901 566.839 8.95759 565.762 7.45698 563.019C6.41445 561.113 5.68192 559.919 6.13846 557.585Z" fill="#0C001F"/>
<path d="M6.13846 617.158C6.5861 614.908 7.51985 613.265 9.43475 612.038C11.7738 610.539 13.8298 610.034 16.4668 611.147C17.3458 614.042 18.2248 615.6 17.1261 618.94C20.6421 617.604 20.6421 614.042 20.6421 612.038V612.038C20.6421 611.592 22.8396 612.038 22.8396 612.038C24.6881 613.242 25.9162 616.713 25.9162 616.713L30.9705 614.042L27.0149 600.238L23.4989 592L33.168 596.23L41.5186 613.151L50.7482 615.155L56.9012 606.917L58 616.713L50.3087 621.166L58 624.951L56.9012 635.86L50.3087 626.732L41.5186 630.072L33.168 645.211L23.4989 651L27.0149 640.758L30.9705 627.4L25.9162 622.502L20.6421 624.951C20.6421 624.951 16.4798 627.182 13.61 626.732C10.5901 626.259 8.95759 625.199 7.45698 622.502C6.41445 620.628 5.68192 619.453 6.13846 617.158Z" fill="#0C001F"/>
<path d="M6.13846 676.158C6.5861 673.908 7.51985 672.265 9.43475 671.038C11.7738 669.539 13.8298 669.034 16.4668 670.147C17.3458 673.042 18.2248 674.6 17.1261 677.94C20.6421 676.604 20.6421 673.042 20.6421 671.038V671.038C20.6421 670.592 22.8396 671.038 22.8396 671.038C24.6881 672.242 25.9162 675.713 25.9162 675.713L30.9705 673.042L27.0149 659.238L23.4989 651L33.168 655.23L41.5186 672.151L50.7482 674.155L56.9012 665.917L58 675.713L50.3087 680.166L58 683.951L56.9012 694.86L50.3087 685.732L41.5186 689.072L33.168 704.211L23.4989 710L27.0149 699.758L30.9705 686.4L25.9162 681.502L20.6421 683.951C20.6421 683.951 16.4798 686.182 13.61 685.732C10.5901 685.259 8.95759 684.199 7.45698 681.502C6.41445 679.628 5.68192 678.453 6.13846 676.158Z" fill="#0C001F"/>
<path d="M6.13846 735.585C6.5861 733.297 7.51985 731.625 9.43475 730.377C11.7738 728.853 13.8298 728.34 16.4668 729.472C17.3458 732.415 18.2248 734 17.1261 737.396C20.6421 736.038 20.6421 732.415 20.6421 730.377V730.377C20.6421 729.925 22.8396 730.377 22.8396 730.377C24.6881 731.602 25.9162 735.132 25.9162 735.132L30.9705 732.415L27.0149 718.377L23.4989 710L33.168 714.302L41.5186 731.509L50.7482 733.547L56.9012 725.17L58 735.132L50.3087 739.66L58 743.509L56.9012 754.604L50.3087 745.321L41.5186 748.717L33.168 764.113L23.4989 770L27.0149 759.585L30.9705 746L25.9162 741.019L20.6421 743.509C20.6421 743.509 16.4798 745.778 13.61 745.321C10.5901 744.839 8.95759 743.762 7.45698 741.019C6.41445 739.113 5.68192 737.919 6.13846 735.585Z" fill="#0C001F"/>
<path d="M6.13846 795.158C6.5861 792.908 7.51985 791.265 9.43475 790.038C11.7738 788.539 13.8298 788.034 16.4668 789.147C17.3458 792.042 18.2248 793.6 17.1261 796.94C20.6421 795.604 20.6421 792.042 20.6421 790.038V790.038C20.6421 789.592 22.8396 790.038 22.8396 790.038C24.6881 791.242 25.9162 794.713 25.9162 794.713L30.9705 792.042L27.0149 778.238L23.4989 770L33.168 774.23L41.5186 791.151L50.7482 793.155L56.9012 784.917L58 794.713L50.3087 799.166L58 802.951L56.9012 813.86L50.3087 804.732L41.5186 808.072L33.168 823.211L23.4989 829L27.0149 818.758L30.9705 805.4L25.9162 800.502L20.6421 802.951C20.6421 802.951 16.4798 805.182 13.61 804.732C10.5901 804.259 8.95759 803.199 7.45698 800.502C6.41445 798.628 5.68192 797.453 6.13846 795.158Z" fill="#0C001F"/>
<path d="M6.13846 854.158C6.5861 851.908 7.51985 850.265 9.43475 849.038C11.7738 847.539 13.8298 847.034 16.4668 848.147C17.3458 851.042 18.2248 852.6 17.1261 855.94C20.6421 854.604 20.6421 851.042 20.6421 849.038V849.038C20.6421 848.592 22.8396 849.038 22.8396 849.038C24.6881 850.242 25.9162 853.713 25.9162 853.713L30.9705 851.042L27.0149 837.238L23.4989 829L33.168 833.23L41.5186 850.151L50.7482 852.155L56.9012 843.917L58 853.713L50.3087 858.166L58 861.951L56.9012 872.86L50.3087 863.732L41.5186 867.072L33.168 882.211L23.4989 888L27.0149 877.758L30.9705 864.4L25.9162 859.502L20.6421 861.951C20.6421 861.951 16.4798 864.182 13.61 863.732C10.5901 863.259 8.95759 862.199 7.45698 859.502C6.41445 857.628 5.68192 856.453 6.13846 854.158Z" fill="#0C001F"/>
<path d="M6.13846 913.585C6.5861 911.297 7.51985 909.625 9.43475 908.377C11.7738 906.853 13.8298 906.34 16.4668 907.472C17.3458 910.415 18.2248 912 17.1261 915.396C20.6421 914.038 20.6421 910.415 20.6421 908.377V908.377C20.6421 907.925 22.8396 908.377 22.8396 908.377C24.6881 909.602 25.9162 913.132 25.9162 913.132L30.9705 910.415L27.0149 896.377L23.4989 888L33.168 892.302L41.5186 909.509L50.7482 911.547L56.9012 903.17L58 913.132L50.3087 917.66L58 921.509L56.9012 932.604L50.3087 923.321L41.5186 926.717L33.168 942.113L23.4989 948L27.0149 937.585L30.9705 924L25.9162 919.019L20.6421 921.509C20.6421 921.509 16.4798 923.778 13.61 923.321C10.5901 922.839 8.95759 921.762 7.45698 919.019C6.41445 917.113 5.68192 915.919 6.13846 913.585Z" fill="#0C001F"/>
<path d="M6.13846 973.158C6.5861 970.908 7.51985 969.265 9.43475 968.038C11.7738 966.539 13.8298 966.034 16.4668 967.147C17.3458 970.042 18.2248 971.6 17.1261 974.94C20.6421 973.604 20.6421 970.042 20.6421 968.038V968.038C20.6421 967.592 22.8396 968.038 22.8396 968.038C24.6881 969.242 25.9162 972.713 25.9162 972.713L30.9705 970.042L27.0149 956.238L23.4989 948L33.168 952.23L41.5186 969.151L50.7482 971.155L56.9012 962.917L58 972.713L50.3087 977.166L58 980.951L56.9012 991.86L50.3087 982.732L41.5186 986.072L33.168 1001.21L23.4989 1007L27.0149 996.758L30.9705 983.4L25.9162 978.502L20.6421 980.951C20.6421 980.951 16.4798 983.182 13.61 982.732C10.5901 982.259 8.95759 981.199 7.45698 978.502C6.41445 976.628 5.68192 975.453 6.13846 973.158Z" fill="#0C001F"/>
<path d="M6.13846 1032.58C6.5861 1030.3 7.51985 1028.63 9.43475 1027.38C11.7738 1025.85 13.8298 1025.34 16.4668 1026.47C17.3458 1029.42 18.2248 1031 17.1261 1034.4C20.6421 1033.04 20.6421 1029.42 20.6421 1027.38V1027.38C20.6421 1026.92 22.8396 1027.38 22.8396 1027.38C24.6881 1028.6 25.9162 1032.13 25.9162 1032.13L30.9705 1029.42L27.0149 1015.38L23.4989 1007L33.168 1011.3L41.5186 1028.51L50.7482 1030.55L56.9012 1022.17L58 1032.13L50.3087 1036.66L58 1040.51L56.9012 1051.6L50.3087 1042.32L41.5186 1045.72L33.168 1061.11L23.4989 1067L27.0149 1056.58L30.9705 1043L25.9162 1038.02L20.6421 1040.51C20.6421 1040.51 16.4798 1042.78 13.61 1042.32C10.5901 1041.84 8.95759 1040.76 7.45698 1038.02C6.41445 1036.11 5.68192 1034.92 6.13846 1032.58Z" fill="#0C001F"/>
<path d="M6.13846 1152.16C6.5861 1149.91 7.51985 1148.26 9.43475 1147.04C11.7738 1145.54 13.8298 1145.03 16.4668 1146.15C17.3458 1149.04 18.2248 1150.6 17.1261 1153.94C20.6421 1152.6 20.6421 1149.04 20.6421 1147.04V1147.04C20.6421 1146.59 22.8396 1147.04 22.8396 1147.04C24.6881 1148.24 25.9162 1151.71 25.9162 1151.71L30.9705 1149.04L27.0149 1135.24L23.4989 1127L33.168 1131.23L41.5186 1148.15L50.7482 1150.15L56.9012 1141.92L58 1151.71L50.3087 1156.17L58 1159.95L56.9012 1170.86L50.3087 1161.73L41.5186 1165.07L33.168 1180.21L23.4989 1186L27.0149 1175.76L30.9705 1162.4L25.9162 1157.5L20.6421 1159.95C20.6421 1159.95 16.4798 1162.18 13.61 1161.73C10.5901 1161.26 8.95759 1160.2 7.45698 1157.5C6.41445 1155.63 5.68192 1154.45 6.13846 1152.16Z" fill="#0C001F"/>
<path d="M18.943 1087.38C17.443 1090.5 21.0418 1092.1 19.943 1095.5C24.1585 1093.87 22.943 1092.62 21.943 1088C23.7915 1089.22 26.3593 1092.13 26.3593 1092.13L29.443 1084L27.458 1075.38L23.942 1067L33.6111 1071.3L42.943 1083.5L47.943 1082L48.443 1089.5L54.443 1087L55.943 1075L59.943 1077L58.943 1088L59.943 1089.5L59.443 1091.5L56.943 1093L50.443 1094.5L56.943 1098.02L59.443 1099.02L59.943 1105.02L59.443 1106L60.443 1115.52L56.943 1117L54.443 1105.02L47.943 1104V1108.5H42.943L33.6111 1121.11L23.942 1127L27.458 1116.58L29.943 1106.5L26.3593 1098.02C24.6346 1099.7 24.443 1100.68 21.943 1101.5C19.443 1102.32 14.8128 1101.96 11.943 1101.5C11.6904 1101.46 11.0709 1100.83 10.943 1101.5C11.443 1104.5 11.2924 1112 10.943 1115.5C10.8028 1116.9 9.71502 1114.75 9.44302 1114.5C8.75355 1113.88 6.52142 1103.06 5.94303 1102C5.42963 1101.06 1.20108 1101.81 0.943025 1101C0.807942 1100.57 -0.740976 1092.91 0.443022 1092.13C1.59022 1091.38 5.329 1088.58 5.44302 1088C5.63311 1087.03 6.41073 1081.04 6.44302 1078C6.4538 1076.99 7.77892 1076.23 7.943 1076C8.443 1078.5 9.44302 1083 9.81382 1086.87C9.81393 1087.22 9.82965 1087.41 9.87787 1087.38C11.8177 1086.11 15.305 1086.17 17.943 1086.87C18.4859 1087.01 18.4929 1087.18 18.943 1087.38Z" fill="#EE0521"/>
<path d="M18.4431 1087.35C18.4431 1087.46 21.9929 1088.5 21.9431 1088C21.0931 1079.5 15.4431 1081.5 15.4431 1081.5C15.4431 1081.5 18.4431 1085 18.4431 1087.35Z" fill="#EE0521"/>
<path d="M18.943 20.3774C17.443 23.5 21.0418 25.1038 19.943 28.5C24.1585 26.8713 22.943 25.6226 21.943 21C23.7915 22.2244 26.3593 25.1321 26.3593 25.1321L29.443 17L27.458 8.37736L23.942 0L33.6111 4.30189L42.943 16.5L47.943 15L48.443 22.5L54.443 20L55.943 8L59.943 10L58.943 21L59.943 22.5L59.443 24.5L56.943 26L50.443 27.5L56.943 31.0189L59.443 32.0189L59.943 38.0189L59.443 39L60.443 48.5189L56.943 50L54.443 38.0189L47.943 37V41.5H42.943L33.6111 54.1132L23.942 60L27.458 49.5849L29.943 39.5L26.3593 31.0189C24.6346 32.6989 24.443 33.6792 21.943 34.5C19.443 35.3208 14.8128 34.9576 11.943 34.5C11.6904 34.4597 11.0709 33.8342 10.943 34.5C11.443 37.5 11.2924 45.0037 10.943 48.5C10.8028 49.9033 9.71502 47.746 9.44302 47.5C8.75355 46.8764 6.52142 36.0572 5.94303 35C5.42963 34.0616 1.20108 34.8145 0.943025 34C0.807942 33.5736 -0.740976 25.9113 0.443022 25.1321C1.59022 24.377 5.329 21.5829 5.44302 21C5.63311 20.0283 6.41073 14.039 6.44302 11C6.4538 9.98521 7.77892 9.23417 7.943 9C8.443 11.5 9.44302 16 9.81382 19.8682C9.81393 20.2184 9.82965 20.4088 9.87787 20.3774C11.8177 19.1134 15.305 19.1673 17.943 19.8682C18.4859 20.0125 18.4929 20.1841 18.943 20.3774Z" fill="#EE0521"/>
<path d="M18.4431 20.3492C18.4431 20.4586 21.9929 21.4978 21.9431 21.0001C21.0931 12.5 15.4431 14.5 15.4431 14.5C15.4431 14.5 18.4431 18 18.4431 20.3492Z" fill="#EE0521"/>
</g>
<defs>
<clipPath id="clip0_128_134">
<rect width="60" height="2133" fill="white"/>
</clipPath>
</defs>
</svg>
