<svg width="909" height="922" viewBox="0 0 909 922" fill="none" xmlns="http://www.w3.org/2000/svg">
<g clip-path="url(#clip0_175_346)">
<circle cx="455" cy="506" r="416" fill="#B2A2FF"/>
<path d="M890 441C890 662.742 674.5 773.5 460 805C246 773 3 668.242 3 446.5C3 224.758 239.758 66 461.5 66C683.242 66 890 219.258 890 441Z" fill="#FFFFE5"/>
<path d="M803.5 455.5C803.5 648.248 647.247 804.5 454.5 804.5C261.753 804.5 105.5 648.248 105.5 455.5C105.5 430.879 107.936 416.848 111.51 409.972C113.155 406.808 114.605 406.002 115.436 405.742C116.413 405.436 118.298 405.343 121.705 406.774C128.799 409.754 138.419 417.574 150.751 429.826C161.71 440.715 174.103 454.357 187.942 469.592C189.401 471.198 190.876 472.822 192.367 474.462C223.463 508.665 261.171 549.552 303.597 581.858C345.981 614.132 393.909 638.5 445.5 638.5C497.052 638.5 546.081 614.163 590.102 581.943C634.18 549.681 674.134 508.832 707.454 474.652L708.629 473.447C724.902 456.753 739.492 441.786 752.331 430.039C765.677 417.828 776.282 409.915 784.258 406.864C788.123 405.386 790.572 405.367 792.098 405.8C793.431 406.177 795.103 407.189 796.874 410.26C800.778 417.029 803.5 430.917 803.5 455.5Z" stroke="#E41F37" stroke-width="15"/>
<path d="M749 499.5C749 662.148 617.148 601 454.5 601C291.852 601 160 662.148 160 499.5C160 336.852 291.852 205 454.5 205C617.148 205 749 336.852 749 499.5Z" fill="#B2A2FF"/>
<path d="M452.952 762L428.828 665.756L422 640H488L452.952 762Z" fill="#0C001F"/>
<path d="M176 408.5L455 654.5L736 408.5H176Z" fill="#0C001F"/>
<path fill-rule="evenodd" clip-rule="evenodd" d="M455 437C470.464 437 483 424.464 483 409C483 408.833 482.999 408.666 482.996 408.5H427.004C427.001 408.666 427 408.833 427 409C427 424.464 439.536 437 455 437Z" fill="#B2A2FF"/>
<path fill-rule="evenodd" clip-rule="evenodd" d="M485 409C485 409 485 409 485 409C485 393.536 471.569 381 455 381C438.431 381 425 393.536 425 409C425 409 425 409 425 409L485 409Z" fill="#0C001F"/>
<path fill-rule="evenodd" clip-rule="evenodd" d="M63.3992 202.417C76.1063 200.071 88.8823 197.711 102.5 184.5C117.848 169.611 125.367 153.445 132.553 137.996C141.722 118.284 150.348 99.7383 174 86.5C200.774 71.5147 228.663 74.2116 255.718 76.8278C274.065 78.6019 292.028 80.3389 309 76.5C326.303 72.5862 343.26 59.2604 361.663 44.7989C387.928 24.1582 417.138 1.20393 454.5 0V70C417.861 76.2422 400.668 92.0598 383.409 107.937C368.872 121.311 354.289 134.728 328 142.5C300.337 150.679 281.904 147.094 265.95 143.991C248.74 140.645 234.415 137.859 214.5 151C196.279 163.023 189.641 181.149 182.869 199.644C176.882 215.991 170.79 232.627 156.5 245.593C142.109 258.651 128.103 261.01 113.941 263.395C99.0118 265.91 83.9093 268.454 68 283.593C64.814 286.625 63.0183 291.859 61.2668 296.965C59.9935 300.677 58.7437 304.32 57 307L0 257.5C23.0472 209.869 43.1356 206.159 63.3992 202.417ZM845.601 202.417C832.894 200.071 820.118 197.711 806.5 184.5C791.152 169.611 783.633 153.445 776.447 137.996C767.278 118.284 758.652 99.7383 735 86.5C708.226 71.5147 680.337 74.2116 653.282 76.8278C634.935 78.6019 616.972 80.3389 600 76.5C582.697 72.5862 565.74 59.2604 547.337 44.7989C521.072 24.1582 491.862 1.20393 454.5 0V70C491.139 76.2422 508.332 92.0598 525.591 107.937C540.128 121.311 554.711 134.728 581 142.5C608.663 150.679 627.096 147.094 643.05 143.991C660.26 140.645 674.585 137.859 694.5 151C712.721 163.023 719.359 181.149 726.131 199.644C732.118 215.991 738.21 232.627 752.5 245.593C766.891 258.651 780.897 261.01 795.059 263.395C809.988 265.91 825.091 268.454 841 283.593C844.186 286.625 845.982 291.859 847.733 296.965C849.006 300.677 850.256 304.32 852 307L909 257.5C885.953 209.869 865.864 206.159 845.601 202.417Z" fill="#E41F37"/>
</g>
<defs>
<clipPath id="clip0_175_346">
<rect width="909" height="922" fill="white"/>
</clipPath>
</defs>
</svg>
