<svg width="589" height="450" viewBox="0 0 589 450" fill="none" xmlns="http://www.w3.org/2000/svg">
<g clip-path="url(#clip0_139_266)">
<path d="M589 294.5C589 457.148 457.148 396 294.5 396C131.852 396 0 457.148 0 294.5C0 131.852 131.852 0 294.5 0C457.148 0 589 131.852 589 294.5Z" fill="#B2A2FF"/>
<path d="M16 203.5L295 449.5L576 203.5H16Z" fill="#0C001F"/>
<path fill-rule="evenodd" clip-rule="evenodd" d="M295 232C310.464 232 323 219.464 323 204C323 203.833 322.999 203.666 322.996 203.5H267.004C267.001 203.666 267 203.833 267 204C267 219.464 279.536 232 295 232Z" fill="#B2A2FF"/>
<path fill-rule="evenodd" clip-rule="evenodd" d="M325 204C325 204 325 204 325 204C325 188.536 311.569 176 295 176C278.431 176 265 188.536 265 204C265 204 265 204 265 204L325 204Z" fill="#0C001F"/>
</g>
<defs>
<clipPath id="clip0_139_266">
<rect width="589" height="450" fill="white"/>
</clipPath>
</defs>
</svg>
