<svg width="1223" height="1243" viewBox="0 0 1223 1243" fill="none" xmlns="http://www.w3.org/2000/svg">
<g clip-path="url(#clip0_176_347)">
<path fill-rule="evenodd" clip-rule="evenodd" d="M313.015 172.702C329.65 169.334 346.417 165.94 356.5 154.5C368.627 140.741 369.234 126.33 369.829 112.23C370.509 96.0978 371.172 80.3736 389.048 66.5C408.2 51.6357 424.978 56.4836 444.98 62.2626C459.806 66.5462 476.402 71.3413 497.048 69C519.761 66.4242 533.812 51.1277 548.083 35.5901C564.286 17.9504 580.774 4.50006e-06 610.547 0V187.5L323.548 297.5L262.048 220C260.823 183.268 286.754 178.018 313.015 172.702ZM911.844 178.851C895.359 177.099 878.397 175.297 868 163.5C855.93 149.806 854.538 133.526 853.16 117.411C851.569 98.8109 849.997 80.4306 832.048 66.5C812.896 51.6357 796.117 56.4836 776.115 62.2626C761.29 66.5462 744.694 71.3413 724.048 69C701.334 66.4242 687.284 51.1277 673.012 35.5901C656.81 17.9504 640.322 4.50006e-06 610.548 0V187.5L897.548 297.5L959.048 220C960.248 183.994 936.582 181.479 911.844 178.851Z" fill="#FC4F64"/>
<path fill-rule="evenodd" clip-rule="evenodd" d="M974.748 223.97C982.306 239.166 989.925 254.484 1003.58 261.262C1020.01 269.414 1034.09 266.271 1047.86 263.196C1063.62 259.678 1078.98 256.249 1097.01 269.924C1116.32 284.577 1115.98 302.038 1115.58 322.854C1115.28 338.283 1114.94 355.555 1122.55 374.892C1130.91 396.165 1149.33 405.777 1168.03 415.541C1189.26 426.626 1210.87 437.906 1218.57 466.665L1037.46 515.194L856.928 266.443L915.87 186.98C951.034 176.291 962.816 199.979 974.748 223.97ZM1123.8 803.985C1121.22 787.608 1118.57 770.758 1127.28 757.662C1137.38 742.46 1152.75 736.901 1167.95 731.399C1185.51 725.048 1202.86 718.773 1211.67 697.83C1221.07 675.483 1212.04 660.531 1201.28 642.706C1193.31 629.495 1184.38 614.705 1181.3 594.157C1177.91 571.551 1189.05 554.02 1200.36 536.213C1213.21 515.997 1226.28 495.425 1218.57 466.666L1037.46 515.194L1005.49 820.885L1096.27 860.231C1131.36 852.071 1127.66 828.561 1123.8 803.985Z" fill="#FC4F64"/>
<path fill-rule="evenodd" clip-rule="evenodd" d="M123.444 869.53C135.601 881.374 147.855 893.311 150.131 908.389C152.869 926.524 145.572 938.966 138.432 951.139C130.264 965.067 122.301 978.642 129.809 999.988C137.853 1022.86 154.582 1027.87 174.525 1033.85C189.307 1038.29 205.854 1043.25 221.939 1056.4C239.634 1070.87 243.155 1091.34 246.733 1112.13C250.794 1135.74 254.926 1159.76 279.951 1175.89L381.539 1018.3L199.912 770.343L106.232 802.162C85.3007 832.372 104.251 850.833 123.444 869.53ZM642.081 1192.99C629.964 1186.2 615.745 1178.23 596.5 1179.8C571.699 1181.82 558.617 1196.84 545.938 1211.39C534.078 1225.01 522.57 1238.22 502.154 1240.01C478.003 1242.12 466.527 1228.96 452.846 1213.26C442.706 1201.63 431.355 1188.61 412.733 1179.39C392.247 1169.25 372.15 1174.49 351.736 1179.82C328.561 1185.87 304.977 1192.02 279.952 1175.89L381.54 1018.3L682.363 1081.34L692.065 1179.8C673.597 1210.66 660.186 1203.14 642.081 1192.99Z" fill="#FC4F64"/>
<path fill-rule="evenodd" clip-rule="evenodd" d="M1089.65 869.53C1077.49 881.374 1065.24 893.311 1062.96 908.389C1060.22 926.524 1067.52 938.966 1074.66 951.139C1082.83 965.067 1090.79 978.642 1083.28 999.988C1075.24 1022.86 1058.51 1027.87 1038.57 1033.85C1023.78 1038.29 1007.24 1043.25 991.153 1056.4C973.457 1070.87 969.936 1091.34 966.359 1112.13C962.298 1135.74 958.165 1159.76 933.14 1175.89L831.552 1018.3L1013.18 770.343L1106.86 802.162C1127.79 832.372 1108.84 850.833 1089.65 869.53ZM546.079 1141.12C549.641 1139.48 555.532 1136.76 570.5 1141C587.637 1145.85 609.393 1165.86 631.993 1186.64C659.294 1211.74 687.826 1237.98 710.938 1240.01C735.089 1242.12 746.565 1228.96 760.245 1213.26C770.385 1201.63 781.736 1188.61 800.358 1179.39C820.844 1169.25 840.941 1174.49 861.355 1179.82C884.53 1185.87 908.114 1192.02 933.139 1175.89L831.551 1018.3L530.728 1081.34L522 1112.5C540.632 1143.64 540.637 1143.63 546.079 1141.12Z" fill="#FC4F64"/>
<path fill-rule="evenodd" clip-rule="evenodd" d="M248.034 223.97C240.476 239.166 232.857 254.484 219.198 261.262C202.769 269.414 188.692 266.271 174.918 263.196C159.16 259.678 143.8 256.249 125.772 269.924C106.458 284.577 106.798 302.038 107.203 322.854C107.503 338.283 107.84 355.555 100.235 374.892C91.868 396.165 73.4563 405.777 54.7543 415.541C33.5222 426.626 11.916 437.906 4.20997 466.665L185.321 515.194L365.854 266.443L306.912 186.98C271.748 176.291 259.966 199.979 248.034 223.97ZM98.9852 803.985C101.56 787.608 104.209 770.758 95.5053 757.662C85.4016 742.46 70.0367 736.901 54.8275 731.399C37.273 725.048 19.9259 718.773 11.1155 697.83C1.7146 675.483 10.7399 660.531 21.4989 642.706C29.4736 629.495 38.4008 614.705 41.4828 594.157C44.8735 571.551 33.7347 554.02 22.4203 536.213C9.57515 515.997 -3.49623 495.425 4.20983 466.666L185.321 515.194L217.292 820.885L126.515 860.231C91.425 852.071 95.1213 828.561 98.9852 803.985Z" fill="#FC4F64"/>
</g>
<defs>
<clipPath id="clip0_176_347">
<rect width="1223" height="1243" fill="white"/>
</clipPath>
</defs>
</svg>
