<svg width="3366" height="1497" viewBox="0 0 3366 1497" fill="none" xmlns="http://www.w3.org/2000/svg">
<g clip-path="url(#clip0_207_6)">
<circle cx="1682" cy="1081" r="416" fill="#B2A2FF"/>
<path d="M2043 1028.5C2043 1226.49 1882.49 1387 1684.5 1387C1486.51 1387 1326 1226.49 1326 1028.5C1326 1028.5 1486.51 1119.5 1684.5 1119.5C1882.49 1119.5 2043 1028.5 2043 1028.5Z" fill="#E41F37"/>
<path d="M2117 1016C2117 1237.74 1901.5 1348.5 1687 1380C1473 1348 1230 1243.24 1230 1021.5C1230 799.758 1466.76 641 1688.5 641C1910.24 641 2117 794.258 2117 1016Z" fill="#FFFFE5"/>
<path d="M2030.5 1030.5C2030.5 1223.25 1874.25 1379.5 1681.5 1379.5C1488.75 1379.5 1332.5 1223.25 1332.5 1030.5C1332.5 1005.88 1334.94 991.847 1338.51 984.972C1340.16 981.808 1341.61 981.001 1342.44 980.742C1343.41 980.436 1345.3 980.343 1348.7 981.774C1355.8 984.754 1365.42 992.574 1377.75 1004.83C1388.71 1015.71 1401.1 1029.36 1414.94 1044.59C1416.4 1046.2 1417.88 1047.82 1419.37 1049.46C1450.46 1083.67 1488.17 1124.55 1530.6 1156.86C1572.98 1189.13 1620.91 1213.5 1672.5 1213.5C1724.05 1213.5 1773.08 1189.16 1817.1 1156.94C1861.18 1124.68 1901.13 1083.83 1934.45 1049.65L1935.63 1048.45C1951.9 1031.75 1966.49 1016.79 1979.33 1005.04C1992.68 992.828 2003.28 984.915 2011.26 981.864C2015.12 980.385 2017.57 980.367 2019.1 980.799C2020.43 981.177 2022.1 982.189 2023.87 985.259C2027.78 992.029 2030.5 1005.92 2030.5 1030.5Z" stroke="#E41F37" stroke-width="15"/>
<path fill-rule="evenodd" clip-rule="evenodd" d="M1384.02 879.702C1400.65 876.334 1417.42 872.94 1427.5 861.5C1439.63 847.741 1440.23 833.33 1440.83 819.23C1441.51 803.098 1442.17 787.374 1460.05 773.5C1479.2 758.636 1495.98 763.484 1515.98 769.263C1530.81 773.546 1547.4 778.341 1568.05 776C1590.76 773.424 1604.81 758.128 1619.08 742.59C1635.29 724.95 1651.77 707 1681.55 707V894.5L1394.55 1004.5L1333.05 927C1331.82 890.268 1357.75 885.018 1384.02 879.702ZM1982.84 885.851C1966.36 884.099 1949.4 882.297 1939 870.5C1926.93 856.806 1925.54 840.526 1924.16 824.411C1922.57 805.811 1921 787.431 1903.05 773.5C1883.9 758.636 1867.12 763.484 1847.12 769.263C1832.29 773.546 1815.69 778.341 1795.05 776C1772.33 773.424 1758.28 758.128 1744.01 742.59C1727.81 724.95 1711.32 707 1681.55 707V894.5L1968.55 1004.5L2030.05 927C2031.25 890.994 2007.58 888.479 1982.84 885.851Z" fill="#FC4F64"/>
<path d="M1976 1074.5C1976 1237.15 1844.15 1176 1681.5 1176C1518.85 1176 1387 1237.15 1387 1074.5C1387 911.852 1518.85 780 1681.5 780C1844.15 780 1976 911.852 1976 1074.5Z" fill="#B2A2FF"/>
<path d="M1952.5 1343.5C1975.41 1354.23 1996.5 1381.5 1996.5 1381.5L1992 1386.5L1939.5 1390L1833 1323.5C1833 1323.5 1913.1 1325.05 1952.5 1343.5Z" fill="#0C001F" stroke="black"/>
<path d="M1506 1424C1452 1400 1493.5 1330.5 1493.5 1330.5C1493.5 1330.5 1567.5 1385 1679.5 1386C1791.5 1387 1871 1329.5 1871 1329.5C1871 1329.5 1909 1407 1848.5 1426.5C1803 1437 1787.5 1397.5 1787.5 1397.5C1787.5 1397.5 1793.5 1441.5 1740.5 1454.5C1687.5 1451 1679.5 1397.5 1679.5 1397.5C1679.5 1397.5 1677.5 1457.5 1617.5 1454.5C1567 1448 1575 1397.5 1575 1397.5C1575 1397.5 1561.5 1440.5 1506 1424Z" fill="#0C001F"/>
<path d="M1409 1343.5C1386.09 1354.23 1365 1381.5 1365 1381.5L1369.5 1386.5L1422 1390L1532 1322.5C1532 1322.5 1448.4 1325.05 1409 1343.5Z" fill="#0C001F" stroke="black"/>
<path d="M1679.95 1337L1655.83 1240.76L1649 1215H1715L1679.95 1337Z" fill="#0C001F"/>
<path d="M1403 983.5L1682 1229.5L1963 983.5H1403Z" fill="#0C001F"/>
<path fill-rule="evenodd" clip-rule="evenodd" d="M1290.4 777.417C1303.11 775.071 1315.88 772.711 1329.5 759.5C1344.85 744.611 1352.37 728.445 1359.55 712.996C1368.72 693.284 1377.35 674.738 1401 661.5C1427.77 646.515 1455.66 649.212 1482.72 651.828C1501.06 653.602 1519.03 655.339 1536 651.5C1553.3 647.586 1570.26 634.26 1588.66 619.799C1614.93 599.158 1644.14 576.204 1681.5 575V645C1644.86 651.242 1627.67 667.06 1610.41 682.937C1595.87 696.311 1581.29 709.728 1555 717.5C1527.34 725.679 1508.9 722.094 1492.95 718.991C1475.74 715.645 1461.41 712.859 1441.5 726C1423.28 738.023 1416.64 756.149 1409.87 774.644C1403.88 790.991 1397.79 807.627 1383.5 820.593C1369.11 833.651 1355.1 836.01 1340.94 838.395C1326.01 840.91 1310.91 843.454 1295 858.593C1291.81 861.625 1290.02 866.859 1288.27 871.965C1286.99 875.677 1285.74 879.32 1284 882L1227 832.5C1250.05 784.869 1270.14 781.159 1290.4 777.417ZM2072.6 777.417C2059.89 775.071 2047.12 772.711 2033.5 759.5C2018.15 744.611 2010.63 728.445 2003.45 712.996C1994.28 693.284 1985.65 674.738 1962 661.5C1935.23 646.515 1907.34 649.212 1880.28 651.828C1861.94 653.602 1843.97 655.339 1827 651.5C1809.7 647.586 1792.74 634.26 1774.34 619.799C1748.07 599.158 1718.86 576.204 1681.5 575V645C1718.14 651.242 1735.33 667.06 1752.59 682.937C1767.13 696.311 1781.71 709.728 1808 717.5C1835.66 725.679 1854.1 722.094 1870.05 718.991C1887.26 715.645 1901.59 712.859 1921.5 726C1939.72 738.023 1946.36 756.149 1953.13 774.644C1959.12 790.991 1965.21 807.627 1979.5 820.593C1993.89 833.651 2007.9 836.01 2022.06 838.395C2036.99 840.91 2052.09 843.454 2068 858.593C2071.19 861.625 2072.98 866.859 2074.73 871.965C2076.01 875.677 2077.26 879.32 2079 882L2136 832.5C2112.95 784.869 2092.86 781.159 2072.6 777.417Z" fill="#E41F37"/>
<path fill-rule="evenodd" clip-rule="evenodd" d="M0 119V0H293L1670.9 1217.92L1681.78 1225.08L1681.22 1225.92L1676.21 1222.62L1684 1229.5L0 119Z" fill="#E41F37"/>
<path d="M3366 0V119L1682 1229.5L3073 0H3366Z" fill="#E41F37"/>
<path fill-rule="evenodd" clip-rule="evenodd" d="M1682 1012C1697.46 1012 1710 999.464 1710 984C1710 983.833 1710 983.666 1710 983.5H1654C1654 983.666 1654 983.833 1654 984C1654 999.464 1666.54 1012 1682 1012Z" fill="#B2A2FF"/>
<path fill-rule="evenodd" clip-rule="evenodd" d="M1712 984C1712 984 1712 984 1712 984C1712 968.536 1698.57 956 1682 956C1665.43 956 1652 968.536 1652 984C1652 984 1652 984 1652 984L1712 984Z" fill="#0C001F"/>
<circle cx="1682" cy="1228" r="14" fill="#FFFF00"/>
<path d="M1673 1220L291 1.5" stroke="black"/>
</g>
<defs>
<clipPath id="clip0_207_6">
<rect width="3366" height="1497" fill="white"/>
</clipPath>
</defs>
</svg>
