<svg width="725" height="752" viewBox="0 0 725 752" fill="none" xmlns="http://www.w3.org/2000/svg">
<path d="M440.399 558.5C417.492 569.227 396.399 596.5 396.399 596.5L400.899 601.5L453.399 605L563.399 537.5C563.399 537.5 479.798 540.051 440.399 558.5Z" fill="#0C001F" stroke="black"/>
<path d="M11.8989 131C7.39871 70.0001 19.399 41.0001 56.8988 11L713.399 442.5L563.399 538.526C563.399 538.526 425.899 559 399.399 596.5C417.899 608.5 544.899 550.084 544.899 550.084L459.399 603.5C459.399 603.5 383.107 651.164 307.899 690.806C304.258 692.725 402.399 617 399.399 596.5C352.399 596.5 289.243 700.484 285.399 702.426C258.082 716.219 231.962 728.17 210.899 735.5C185.724 744.261 176.873 739.374 170.399 732C165.453 725.039 166.933 715.477 172.652 704.5C175.463 699.104 179.299 693.365 183.899 687.426C188.412 681.6 193.66 675.58 199.398 669.5C240.859 625.571 307.899 578.5 307.899 578.5C307.899 578.5 256.705 575.506 233.399 556C219.593 544.445 210.139 536.497 205.899 519C203.997 511.151 203.763 503.986 204.683 497.5L204.703 497.356C204.905 495.915 205.938 488.539 206.899 489.5C210.399 510 245.401 530.397 263.399 502C263.859 500.938 251.899 504 241.399 498.5C230.899 493 219.399 478.5 218.899 474C218.399 469.5 220.588 465.844 223.588 463C232.407 454.64 240.899 450.5 240.899 450.5C240.899 450.5 205.899 448 183.899 435C183.022 433.566 176.186 429.929 177.399 429C207.343 434.989 218.372 426.024 226.354 419.537L226.399 419.5C235.899 411.779 236.081 381.739 233.399 379.5C230.765 377.302 219.899 400 205.899 406.919C191.899 413.838 155.943 409.71 153.399 405C137.901 376.309 132.503 348.925 150.899 322C160.705 307.647 192.899 284 192.899 284C192.899 284 146.399 273.5 140.399 272C134.399 270.5 118.966 264.167 119.399 262C133.399 263 150.899 264 165.899 244C174.32 232.772 176.199 213.859 173.899 200.5C172.102 190.063 163.898 184.602 162.899 184C161.163 182.955 162.963 198.066 147.399 213C126.061 233.475 90.7185 243.654 88.3989 242L84.3989 213C84.3989 213 35.2809 204.127 31.5433 197.5C20.2346 177.449 13.6583 154.85 11.8989 131Z" fill="#7464BF"/>
<path d="M239.399 450.5C222.899 453.5 215.559 465 218.899 473.5C229.9 501.5 249.899 503 263.399 501.5C294.399 496.5 278.399 473.5 278.399 473.5L339.899 455.5L239.399 450.5Z" fill="#BBADFF"/>
<path d="M159.899 359C160.238 371.926 168.399 391 168.399 391L211.399 365.5C211.399 365.5 223.141 377.225 232.899 379.5C246.044 382.564 255.186 378.512 266.399 371C266.399 371 299.899 344.5 278.399 296.5L220.399 289.5C220.399 289.5 158.993 324.411 159.899 359Z" fill="#BBADFF"/>
<path d="M202.002 349.324C187.571 339.168 175.995 386.279 175.995 386.279L211.502 365.779C211.502 365.779 208.07 353.594 202.002 349.324Z" fill="#FFFF00"/>
<path d="M230.062 467.591C223.806 476.481 252.825 483.611 252.825 483.611L240.198 461.74C240.198 461.74 232.693 463.854 230.062 467.591Z" fill="#FFFF00"/>
<path d="M261.12 325.424C245.762 315.802 229.995 365.333 229.995 365.333L270.62 341.878C270.62 341.878 267.578 329.469 261.12 325.424Z" fill="#FFFF00"/>
<path d="M39.5089 106.5C37.6069 177.5 61.0089 208.5 61.0089 208.5L90.8989 190.5C90.8989 190.5 130.022 222.146 143.399 216C161.899 207.5 200.899 106.5 200.899 106.5L80.3989 27C80.3989 27 41.0089 50.5 39.5089 106.5Z" fill="#BBADFF"/>
<circle cx="280.899" cy="218.5" r="28.5" fill="#D9D9D9"/>
<path d="M91.1581 190.484C91.1581 190.484 69.7483 179.662 83.9009 150.805C87.8686 142.715 92.4217 137.848 96.9201 135.034L114.655 143.998L91.1581 190.484Z" fill="#FFFF00"/>
<path d="M188.899 283.5C381.399 321.5 449.899 268.5 449.899 268.5" stroke="#0C001F"/>
<path d="M233.399 450C444.399 468 541.399 428.5 595.399 364.5" stroke="#0C001F"/>
<path d="M300.899 583C477.899 462 553.399 484 684.899 423.5" stroke="#0C001F"/>
<path d="M426.899 254.5C421.899 286.5 225.399 275.5 209.399 262.84C193.4 250.18 199.398 158 280.899 158L426.899 254.5Z" fill="#FC4F64"/>
<path d="M467.399 280.5C421.899 335 357.399 314 303.399 357C249.399 400 382.804 440.437 447.398 428C516.182 414.757 572.824 374.5 586.899 360L467.399 280.5Z" fill="#FC4F64"/>
<path d="M701.899 435.5L603.978 371C552.785 441.069 496.399 473.672 416.899 475.5C337.399 477.328 309.899 487 292.399 518C274.899 549 320.304 563.937 384.899 551.5C421.89 544.378 497.399 511 558.899 483.5C620.399 456 695.393 442.202 701.899 435.5Z" fill="#FC4F64"/>
<path d="M69.9804 187.377C73.3077 185.456 79.6627 186.639 79.6627 186.639C79.6627 186.639 77.5097 192.734 74.1824 194.655C70.8551 196.576 64.5001 195.393 64.5001 195.393C64.5001 195.393 66.6531 189.298 69.9804 187.377Z" fill="#E41F37"/>
<path d="M66.1531 168C69.9951 168 74.9072 172.202 74.9072 172.202C74.9072 172.202 69.9951 176.404 66.1531 176.404C62.311 176.404 57.3989 172.202 57.3989 172.202C57.3989 172.202 62.311 168 66.1531 168Z" fill="#E41F37"/>
<path d="M195.782 332.456C196.777 336.167 193.989 341.999 193.989 341.999C193.989 341.999 188.659 338.342 187.665 334.631C186.67 330.92 189.458 325.088 189.458 325.088C189.458 325.088 194.788 328.745 195.782 332.456Z" fill="#E41F37"/>
<path d="M205.124 320.013C204.494 323.803 199.544 327.96 199.544 327.96C199.544 327.96 196.204 322.426 196.834 318.636C197.464 314.846 202.414 310.689 202.414 310.689C202.414 310.689 205.754 316.223 205.124 320.013Z" fill="#E41F37"/>
<path d="M210.595 337.456C209.709 341.194 204.488 345.005 204.488 345.005C204.488 345.005 201.531 339.257 202.417 335.518C203.303 331.78 208.524 327.969 208.524 327.969C208.524 327.969 211.481 333.717 210.595 337.456Z" fill="#E41F37"/>
<path d="M313.899 613C306.661 632.603 318.899 657.5 318.899 657.5C335.04 636.947 352.988 620.358 371.032 607C379.526 600.713 387.899 597.5 399.399 596.5C411.399 583 421.446 578.205 432.399 573.5C466.764 558.739 472.399 558.5 472.399 558.5C457.399 534 431.399 537.5 431.399 537.5L365.399 554C365.399 554 325.899 580.5 313.899 613Z" fill="#BBADFF"/>
<path d="M253.974 313.216C255.3 316.822 253.053 322.882 253.053 322.882C253.053 322.882 247.413 319.723 246.087 316.117C244.76 312.511 247.008 306.451 247.008 306.451C247.008 306.451 252.648 309.61 253.974 313.216Z" fill="#E41F37"/>
<path d="M262.604 304.482C262.32 308.313 257.766 312.901 257.766 312.901C257.766 312.901 253.939 307.692 254.223 303.861C254.507 300.029 259.06 295.441 259.06 295.441C259.06 295.441 262.888 300.65 262.604 304.482Z" fill="#E41F37"/>
<path d="M269.178 316.378C268.635 320.181 263.78 324.449 263.78 324.449C263.78 324.449 260.315 318.992 260.859 315.189C261.402 311.385 266.257 307.117 266.257 307.117C266.257 307.117 269.722 312.574 269.178 316.378Z" fill="#E41F37"/>
<path d="M261.022 491.644C258.554 490.219 256.957 485.699 256.957 485.699C256.957 485.699 261.67 484.822 264.138 486.246C266.606 487.671 268.203 492.192 268.203 492.192C268.203 492.192 263.489 493.069 261.022 491.644Z" fill="#E41F37"/>
<path d="M353.748 582.451C350.962 581.856 348.05 578.048 348.05 578.048C348.05 578.048 352.263 575.761 355.05 576.356C357.837 576.951 360.749 580.76 360.749 580.76C360.749 580.76 356.535 583.046 353.748 582.451Z" fill="#E41F37"/>
<path d="M389.291 558.634C389.08 555.793 391.919 551.929 391.919 551.929C391.919 551.929 395.296 555.331 395.507 558.173C395.718 561.015 392.879 564.879 392.879 564.879C392.879 564.879 389.502 561.476 389.291 558.634Z" fill="#E41F37"/>
<path d="M69.0299 146.265C72.741 147.26 76.3982 152.59 76.3982 152.59C76.3982 152.59 70.5659 155.377 66.8548 154.383C63.1437 153.389 59.4865 148.058 59.4865 148.058C59.4865 148.058 65.3188 145.271 69.0299 146.265Z" fill="#E41F37"/>
<path d="M81.5316 127.19C84.2483 129.907 84.7504 136.351 84.7504 136.351C84.7504 136.351 78.3058 135.849 75.589 133.133C72.8723 130.416 72.3702 123.971 72.3702 123.971C72.3702 123.971 78.8148 124.473 81.5316 127.19Z" fill="#E41F37"/>
<path d="M102.782 118.457C103.777 122.168 100.989 128 100.989 128C100.989 128 95.6591 124.343 94.6647 120.632C93.6703 116.921 96.4577 111.088 96.4577 111.088C96.4577 111.088 101.788 114.745 102.782 118.457Z" fill="#E41F37"/>
<path d="M330.087 630.951C330.087 630.951 319.571 619.623 342.954 597.574C349.51 591.393 355.017 587.923 359.548 586.129L368.26 595.513C368.26 595.513 336.925 620.241 330.087 630.951Z" fill="#FFFF00"/>
<path d="M451.588 555.578C451.588 555.578 445.827 541.234 415.911 552.979C407.524 556.272 402.036 559.773 398.482 563.107L403.253 574.988C403.253 574.988 438.984 557.194 451.588 555.578Z" fill="#FFFF00"/>
</svg>
