<svg width="906" height="455" viewBox="0 0 906 455" fill="none" xmlns="http://www.w3.org/2000/svg">
<g clip-path="url(#clip0_138_264)">
<path fill-rule="evenodd" clip-rule="evenodd" d="M886.71 455C886.902 450.383 887 445.717 887 441C887 219.258 680.242 66 458.5 66C236.758 66 0 224.758 0 446.5C0 449.353 0.040217 452.186 0.120072 455H886.71Z" fill="#FFFFE5"/>
<path fill-rule="evenodd" clip-rule="evenodd" d="M154.015 304.702C170.65 301.334 187.417 297.94 197.5 286.5C209.627 272.741 210.234 258.33 210.829 244.23C211.509 228.098 212.172 212.374 230.048 198.5C249.2 183.636 265.978 188.484 285.98 194.263C300.806 198.546 317.402 203.341 338.048 201C360.761 198.424 374.812 183.128 389.083 167.59C405.286 149.95 421.774 132 451.547 132V319.5L164.548 429.5L103.048 352C101.823 315.268 127.754 310.018 154.015 304.702ZM752.844 310.851C736.359 309.099 719.397 307.297 709 295.5C696.93 281.806 695.538 265.526 694.16 249.411C692.569 230.811 690.997 212.431 673.048 198.5C653.896 183.636 637.117 188.484 617.115 194.263C602.29 198.546 585.694 203.341 565.048 201C542.334 198.424 528.284 183.128 514.012 167.59C497.81 149.95 481.322 132 451.548 132V319.5L738.548 429.5L800.048 352C801.248 315.994 777.582 313.479 752.844 310.851Z" fill="#FC4F64"/>
<path fill-rule="evenodd" clip-rule="evenodd" d="M60.3992 202.417C73.1063 200.071 85.8823 197.711 99.5 184.5C114.848 169.611 122.367 153.445 129.553 137.996C138.722 118.284 147.348 99.7383 171 86.5C197.774 71.5147 225.663 74.2116 252.718 76.8278C271.065 78.6019 289.028 80.3389 306 76.5C323.303 72.5862 340.26 59.2604 358.663 44.7989C384.928 24.1582 414.138 1.20393 451.5 0C488.862 1.20393 518.072 24.1582 544.337 44.7989C562.74 59.2604 579.697 72.5862 597 76.5C613.972 80.3389 631.935 78.6019 650.282 76.8278C677.337 74.2116 705.226 71.5147 732 86.5C755.652 99.7383 764.278 118.284 773.447 137.996C780.633 153.445 788.152 169.611 803.5 184.5C817.118 197.711 829.894 200.071 842.601 202.417C862.864 206.159 882.953 209.869 906 257.5L849 307C847.256 304.32 846.006 300.677 844.733 296.965C842.982 291.859 841.186 286.625 838 283.593C822.091 268.454 806.988 265.91 792.059 263.395C777.897 261.01 763.891 258.651 749.5 245.593C735.21 232.627 729.118 215.991 723.131 199.644C716.359 181.149 709.721 163.023 691.5 151C671.585 137.859 657.26 140.645 640.05 143.991C624.096 147.094 605.663 150.679 578 142.5C551.711 134.728 537.128 121.311 522.591 107.937C505.332 92.0598 488.139 76.2422 451.5 70C414.861 76.2422 397.668 92.0598 380.409 107.937C365.872 121.311 351.289 134.728 325 142.5C297.337 150.679 278.904 147.094 262.95 143.991C245.74 140.645 231.415 137.859 211.5 151C193.279 163.023 186.641 181.149 179.869 199.644C173.882 215.991 167.79 232.627 153.5 245.593C139.109 258.651 125.103 261.01 110.941 263.395C96.0118 265.91 80.9093 268.454 65 283.593C61.814 286.625 60.0183 291.859 58.2668 296.965C56.9935 300.677 55.7437 304.32 54 307L-3 257.5C20.0472 209.869 40.1356 206.159 60.3992 202.417Z" fill="#E41F37"/>
</g>
<defs>
<clipPath id="clip0_138_264">
<rect width="906" height="455" fill="white"/>
</clipPath>
</defs>
</svg>
