<svg width="887" height="856" viewBox="0 0 887 856" fill="none" xmlns="http://www.w3.org/2000/svg">
<g clip-path="url(#clip0_140_269)">
<circle cx="452" cy="440" r="416" fill="#B2A2FF"/>
<path d="M887 375C887 596.742 671.5 707.5 457 739C243 707 0 602.242 0 380.5C0 158.758 236.758 0 458.5 0C680.242 0 887 153.258 887 375Z" fill="#FFFFE5"/>
<path d="M800.5 389.5C800.5 582.247 644.247 738.5 451.5 738.5C258.753 738.5 102.5 582.247 102.5 389.5C102.5 364.879 104.936 350.847 108.51 343.972C110.155 340.808 111.605 340.001 112.436 339.742C113.413 339.436 115.298 339.343 118.705 340.774C125.799 343.754 135.419 351.574 147.751 363.826C158.71 374.714 171.103 388.356 184.942 403.592C186.401 405.198 187.876 406.822 189.367 408.462C220.463 442.665 258.171 483.552 300.597 515.858C342.981 548.132 390.909 572.5 442.5 572.5C494.052 572.5 543.081 548.163 587.102 515.943C631.18 483.68 671.134 442.832 704.454 408.652L705.629 407.446C721.902 390.753 736.492 375.786 749.331 364.039C762.677 351.828 773.282 343.915 781.258 340.864C785.123 339.385 787.572 339.367 789.098 339.799C790.431 340.177 792.103 341.189 793.874 344.259C797.778 351.029 800.5 364.917 800.5 389.5Z" stroke="#E41F37" stroke-width="15"/>
<path d="M276 783C222 759 263.5 689.5 263.5 689.5C263.5 689.5 337.5 744 449.5 745C561.5 746 641 688.5 641 688.5C641 688.5 679 766 618.5 785.5C573 796 557.5 756.5 557.5 756.5C557.5 756.5 563.5 800.5 510.5 813.5C457.5 810 449.5 756.5 449.5 756.5C449.5 756.5 447.5 816.5 387.5 813.5C337 807 345 756.5 345 756.5C345 756.5 331.5 799.5 276 783Z" fill="#0C001F"/>
<path d="M449.952 696L425.828 599.756L419 574H485L449.952 696Z" fill="#0C001F"/>
</g>
<defs>
<clipPath id="clip0_140_269">
<rect width="887" height="856" fill="white"/>
</clipPath>
</defs>
</svg>
