<svg width="1920" height="1080" viewBox="0 0 1920 1080" fill="none" xmlns="http://www.w3.org/2000/svg">
<circle cx="960" cy="617" r="416" fill="#837C96"/>
<path d="M1321 564.5C1321 762.494 1160.49 923 962.5 923C764.506 923 604 762.494 604 564.5C604 564.5 764.506 655.5 962.5 655.5C1160.49 655.5 1321 564.5 1321 564.5Z" fill="#E3E3FF"/>
<path d="M1395 552C1395 773.742 1179.5 884.5 965 916C751 884 508 779.242 508 557.5C508 335.758 744.758 177 966.5 177C1188.24 177 1395 330.258 1395 552Z" fill="#E3E3FF"/>
<path d="M1308.5 566.5C1308.5 759.247 1152.25 915.5 959.5 915.5C766.753 915.5 610.5 759.247 610.5 566.5C610.5 541.879 612.936 527.847 616.51 520.972C618.155 517.808 619.605 517.001 620.436 516.742C621.413 516.436 623.298 516.343 626.705 517.774C633.799 520.754 643.419 528.574 655.751 540.826C666.71 551.714 679.103 565.356 692.942 580.592C694.401 582.198 695.876 583.822 697.367 585.462C728.463 619.665 766.171 660.552 808.597 692.858C850.981 725.132 898.909 749.5 950.5 749.5C1002.05 749.5 1051.08 725.163 1095.1 692.943C1139.18 660.68 1179.13 619.832 1212.45 585.652L1213.63 584.446C1229.9 567.753 1244.49 552.785 1257.33 541.039C1270.68 528.828 1281.28 520.915 1289.26 517.864C1293.12 516.385 1295.57 516.367 1297.1 516.799C1298.43 517.177 1300.1 518.189 1301.87 521.259C1305.78 528.029 1308.5 541.917 1308.5 566.5Z" stroke="#E3E3FF" stroke-width="15"/>
<path fill-rule="evenodd" clip-rule="evenodd" d="M662.015 415.702C678.65 412.334 695.417 408.94 705.5 397.5C717.627 383.741 718.234 369.33 718.829 355.23C719.509 339.098 720.172 323.374 738.048 309.5C757.2 294.636 773.978 299.484 793.98 305.263C808.806 309.546 825.402 314.341 846.048 312C868.761 309.424 882.812 294.128 897.083 278.59C913.286 260.95 929.774 243 959.547 243V430.5L672.548 540.5L611.048 463C609.823 426.268 635.754 421.018 662.015 415.702ZM1260.84 421.851C1244.36 420.099 1227.4 418.297 1217 406.5C1204.93 392.806 1203.54 376.526 1202.16 360.411C1200.57 341.811 1199 323.431 1181.05 309.5C1161.9 294.636 1145.12 299.484 1125.12 305.263C1110.29 309.546 1093.69 314.341 1073.05 312C1050.33 309.424 1036.28 294.128 1022.01 278.59C1005.81 260.95 989.322 243 959.548 243V430.5L1246.55 540.5L1308.05 463C1309.25 426.994 1285.58 424.479 1260.84 421.851Z" fill="#B1B1D7"/>
<path d="M1254 610.5C1254 773.148 1122.15 712 959.5 712C796.852 712 665 773.148 665 610.5C665 447.852 796.852 316 959.5 316C1122.15 316 1254 447.852 1254 610.5Z" fill="#817996"/>
<path d="M1230.5 879.5C1253.41 890.227 1274.5 917.5 1274.5 917.5L1270 922.5L1217.5 926L1111 859.5C1111 859.5 1191.1 861.051 1230.5 879.5Z" fill="#0C001F" stroke="#070323"/>
<path d="M784 960C730 936 771.5 866.5 771.5 866.5C771.5 866.5 845.5 921 957.5 922C1069.5 923 1149 865.5 1149 865.5C1149 865.5 1187 943 1126.5 962.5C1081 973 1065.5 933.5 1065.5 933.5C1065.5 933.5 1071.5 977.5 1018.5 990.5C965.5 987 957.5 933.5 957.5 933.5C957.5 933.5 955.5 993.5 895.5 990.5C845 984 853 933.5 853 933.5C853 933.5 839.5 976.5 784 960Z" fill="#0C001F"/>
<path d="M957.952 873L933.828 776.756L927 751H993L957.952 873Z" fill="#0C001F"/>
<path d="M258.5 452C254 391 266 362 303.5 332L960 763.5C960 763.5 873.538 823.668 815.5 862C763.309 896.471 731.783 917.497 677.5 949.5C623.217 981.504 532 1023.43 532 1023.43C532 1023.43 478.563 1049.17 457.5 1056.5C432.325 1065.26 423.474 1060.37 417 1053C412.054 1046.04 413.534 1036.48 419.253 1025.5C422.064 1020.1 425.9 1014.37 430.5 1008.43C435.013 1002.6 440.261 996.58 445.999 990.5C487.459 946.571 554.5 899.5 554.5 899.5C554.5 899.5 503.306 896.506 480 877C466.194 865.445 456.74 857.497 452.5 840C450.598 832.151 450.364 824.986 451.284 818.5C453.103 805.684 470.189 784 470.189 784C479.008 775.64 487.5 771.5 487.5 771.5C448.842 768.739 419.018 760.286 400 727C383.719 698.505 379.104 669.925 397.5 643C407.306 628.647 439.5 605 439.5 605C439.5 605 393 594.5 387 593C352.354 584.339 294.782 548 278.144 518.5C266.836 498.449 260.259 475.85 258.5 452Z" fill="#595570"/>
<path d="M1647.5 452C1652 391 1640 362 1602.5 332L946 763.5C946 763.5 1032.46 823.668 1090.5 862C1142.69 896.471 1174.22 917.497 1228.5 949.5C1282.78 981.504 1374 1023.43 1374 1023.43C1374 1023.43 1427.44 1049.17 1448.5 1056.5C1473.68 1065.26 1482.53 1060.37 1489 1053C1493.95 1046.04 1492.47 1036.48 1486.75 1025.5C1483.94 1020.1 1480.1 1014.37 1475.5 1008.43C1470.99 1002.6 1465.74 996.58 1460 990.5C1418.54 946.571 1351.5 899.5 1351.5 899.5C1351.5 899.5 1402.69 896.506 1426 877C1439.81 865.445 1449.26 857.497 1453.5 840C1455.4 832.151 1455.64 824.986 1454.72 818.5C1452.9 805.684 1435.81 784 1435.81 784C1426.99 775.64 1418.5 771.5 1418.5 771.5C1457.16 768.739 1486.98 760.286 1506 727C1522.28 698.505 1526.9 669.925 1508.5 643C1498.69 628.647 1466.5 605 1466.5 605C1466.5 605 1513 594.5 1519 593C1553.65 584.339 1611.22 548 1627.86 518.5C1639.16 498.449 1645.74 475.85 1647.5 452Z" fill="#595570"/>
<path d="M681 519.5L960 765.5L1241 519.5H681Z" fill="#0C001F"/>
<path fill-rule="evenodd" clip-rule="evenodd" d="M568.399 313.417C581.106 311.071 593.882 308.711 607.5 295.5C622.848 280.611 630.367 264.445 637.553 248.996C646.722 229.284 655.348 210.738 679 197.5C705.774 182.515 733.663 185.212 760.718 187.828C779.065 189.602 797.028 191.339 814 187.5C831.303 183.586 848.26 170.26 866.663 155.799C892.928 135.158 922.138 112.204 959.5 111V181C922.861 187.242 905.668 203.06 888.409 218.937C873.872 232.311 859.289 245.728 833 253.5C805.337 261.679 786.904 258.094 770.95 254.991C753.74 251.645 739.415 248.859 719.5 262C701.279 274.023 694.641 292.149 687.869 310.644C681.882 326.991 675.79 343.627 661.5 356.593C647.109 369.651 633.103 372.01 618.941 374.395C604.012 376.91 588.909 379.454 573 394.593C569.814 397.625 568.018 402.859 566.267 407.965C564.994 411.677 563.744 415.32 562 418L505 368.5C528.047 320.869 548.136 317.159 568.399 313.417ZM1350.6 313.417C1337.89 311.071 1325.12 308.711 1311.5 295.5C1296.15 280.611 1288.63 264.445 1281.45 248.996C1272.28 229.284 1263.65 210.738 1240 197.5C1213.23 182.515 1185.34 185.212 1158.28 187.828C1139.94 189.602 1121.97 191.339 1105 187.5C1087.7 183.586 1070.74 170.26 1052.34 155.799C1026.07 135.158 996.862 112.204 959.5 111V181C996.139 187.242 1013.33 203.06 1030.59 218.937C1045.13 232.311 1059.71 245.728 1086 253.5C1113.66 261.679 1132.1 258.094 1148.05 254.991C1165.26 251.645 1179.59 248.859 1199.5 262C1217.72 274.023 1224.36 292.149 1231.13 310.644C1237.12 326.991 1243.21 343.627 1257.5 356.593C1271.89 369.651 1285.9 372.01 1300.06 374.395C1314.99 376.91 1330.09 379.454 1346 394.593C1349.19 397.625 1350.98 402.859 1352.73 407.965C1354.01 411.677 1355.26 415.32 1357 418L1414 368.5C1390.95 320.869 1370.86 317.159 1350.6 313.417Z" fill="#E3E3FF"/>
<path fill-rule="evenodd" clip-rule="evenodd" d="M87 189V84H189.5L961 764.618L1732.5 84H1835V189L961.145 764.746L962 765.5L961 764.841L960 765.5L960.855 764.746L87 189Z" fill="#E3E3FF"/>
<path fill-rule="evenodd" clip-rule="evenodd" d="M960 548C975.464 548 988 535.464 988 520C988 519.833 987.999 519.666 987.996 519.5H932.004C932.001 519.666 932 519.833 932 520C932 535.464 944.536 548 960 548Z" fill="#837C96"/>
<path fill-rule="evenodd" clip-rule="evenodd" d="M990 520C990 520 990 520 990 520C990 504.536 976.569 492 960 492C943.431 492 930 504.536 930 520C930 520 930 520 930 520L990 520Z" fill="#0C001F"/>
<circle cx="960" cy="764" r="14" fill="#E3E3FF"/>
</svg>
