<svg width="875" height="977" viewBox="0 0 875 977" fill="none" xmlns="http://www.w3.org/2000/svg">
<g clip-path="url(#clip0_140_267)">
<path d="M270.5 795.5C293.407 806.227 314.5 833.5 314.5 833.5L310 838.5L257.5 842L151 775.5C151 775.5 231.101 777.051 270.5 795.5Z" fill="#0C001F" stroke="black"/>
<path d="M875 0V105L0 681.5L772.5 0H875Z" fill="#E41F37"/>
<path d="M702 368C706.5 307 694.5 278 657 248L0 681.5L150.5 775.526C150.5 775.526 288 796 314.5 833.5C296 845.5 169 787.084 169 787.084L254.5 840.5C254.5 840.5 330.792 888.164 406 927.806C409.641 929.725 311.5 854 314.5 833.5C361.5 833.5 424.656 937.484 428.5 939.426C455.817 953.219 481.937 965.17 503 972.5C528.175 981.261 537.026 976.374 543.5 969C548.446 962.039 546.966 952.477 541.247 941.5C538.436 936.104 534.6 930.365 530 924.426C525.487 918.6 520.239 912.58 514.501 906.5C473.04 862.571 406 815.5 406 815.5C406 815.5 457.194 812.506 480.5 793C494.306 781.445 503.76 773.497 508 756C509.902 748.151 510.136 740.986 509.216 734.5L509.196 734.356C508.994 732.915 507.961 725.539 507 726.5C503.5 747 468.498 767.397 450.5 739C450.04 737.938 462 741 472.5 735.5C483 730 494.5 715.5 495 711C495.5 706.5 493.311 702.844 490.311 700C481.492 691.64 473 687.5 473 687.5C473 687.5 508 685 530 672C530.877 670.566 537.713 666.929 536.5 666C506.556 671.989 495.527 663.024 487.545 656.537L487.5 656.5C478 648.779 477.818 618.739 480.5 616.5C483.134 614.302 494 637 508 643.919C522 650.838 557.956 646.71 560.5 642C575.998 613.309 581.396 585.925 563 559C553.194 544.647 521 521 521 521C521 521 567.5 510.5 573.5 509C579.5 507.5 594.933 501.167 594.5 499C580.5 500 563 501 548 481C539.579 469.772 537.7 450.859 540 437.5C541.797 427.063 550.001 421.602 551 421C552.736 419.955 550.936 435.066 566.5 450C587.838 470.475 623.18 480.654 625.5 479L629.5 450C629.5 450 678.618 441.127 682.356 434.5C693.664 414.449 700.241 391.85 702 368Z" fill="#7464BF"/>
<path d="M474.5 687.5C491 690.5 498.34 702 495 710.5C483.999 738.5 464 740 450.5 738.5C419.5 733.5 435.5 710.5 435.5 710.5L374 692.5L474.5 687.5Z" fill="#BBADFF"/>
<path d="M554 596C553.661 608.926 545.5 628 545.5 628L502.5 602.5C502.5 602.5 490.758 614.225 481 616.5C467.855 619.564 458.713 615.512 447.5 608C447.5 608 414 581.5 435.5 533.5L493.5 526.5C493.5 526.5 554.906 561.411 554 596Z" fill="#BBADFF"/>
<path d="M511.897 586.324C526.328 576.168 537.904 623.279 537.904 623.279L502.397 602.779C502.397 602.779 505.829 590.594 511.897 586.324Z" fill="#FFFF00"/>
<path d="M483.837 704.591C490.093 713.481 461.074 720.611 461.074 720.611L473.701 698.74C473.701 698.74 481.206 700.854 483.837 704.591Z" fill="#FFFF00"/>
<path d="M452.779 562.424C468.136 552.803 483.904 602.334 483.904 602.334L443.279 578.879C443.279 578.879 446.321 566.47 452.779 562.424Z" fill="#FFFF00"/>
<path d="M674.39 343.5C676.292 414.5 652.89 445.5 652.89 445.5L623 427.5C623 427.5 583.877 459.146 570.5 453C552 444.5 513 343.5 513 343.5L633.5 264C633.5 264 672.89 287.5 674.39 343.5Z" fill="#BBADFF"/>
<path d="M622.741 427.484C622.741 427.484 644.151 416.662 629.998 387.805C626.03 379.715 621.477 374.849 616.979 372.034L599.244 380.999L622.741 427.484Z" fill="#FFFF00"/>
<path d="M287 491.5C292 523.5 488.5 512.5 504.5 499.84C520.499 487.18 514.501 395 433 395L287 491.5Z" fill="#FC4F64"/>
<path d="M246.5 517.5C292 572 356.5 551 410.5 594C464.5 637 331.095 677.437 266.5 665C197.717 651.757 141.075 611.5 127 597L246.5 517.5Z" fill="#FC4F64"/>
<path d="M643.919 424.377C640.591 422.456 634.236 423.639 634.236 423.639C634.236 423.639 636.389 429.734 639.717 431.655C643.044 433.576 649.399 432.393 649.399 432.393C649.399 432.393 647.246 426.298 643.919 424.377Z" fill="#E41F37"/>
<path d="M647.746 405C643.904 405 638.992 409.202 638.992 409.202C638.992 409.202 643.904 413.404 647.746 413.404C651.588 413.404 656.5 409.202 656.5 409.202C656.5 409.202 651.588 405 647.746 405Z" fill="#E41F37"/>
<path d="M518.117 569.456C517.122 573.167 519.91 578.999 519.91 578.999C519.91 578.999 525.24 575.342 526.234 571.631C527.229 567.92 524.441 562.088 524.441 562.088C524.441 562.088 519.111 565.745 518.117 569.456Z" fill="#E41F37"/>
<path d="M508.775 557.013C509.404 560.803 514.355 564.96 514.355 564.96C514.355 564.96 517.695 559.426 517.065 555.636C516.435 551.846 511.485 547.689 511.485 547.689C511.485 547.689 508.145 553.223 508.775 557.013Z" fill="#E41F37"/>
<path d="M503.304 574.456C504.19 578.194 509.411 582.005 509.411 582.005C509.411 582.005 512.367 576.257 511.482 572.518C510.596 568.78 505.375 564.969 505.375 564.969C505.375 564.969 502.418 570.717 503.304 574.456Z" fill="#E41F37"/>
<path d="M400 850C407.238 869.603 395 894.5 395 894.5C378.859 873.947 360.911 857.358 342.867 844C334.373 837.713 326 834.5 314.5 833.5C302.5 820 292.453 815.205 281.5 810.5C247.135 795.739 241.5 795.5 241.5 795.5C256.5 771 282.5 774.5 282.5 774.5L348.5 791C348.5 791 388 817.5 400 850Z" fill="#BBADFF"/>
<path d="M459.925 550.216C458.599 553.822 460.846 559.882 460.846 559.882C460.846 559.882 466.486 556.723 467.812 553.117C469.139 549.511 466.891 543.451 466.891 543.451C466.891 543.451 461.251 546.61 459.925 550.216Z" fill="#E41F37"/>
<path d="M451.295 541.482C451.579 545.313 456.133 549.901 456.133 549.901C456.133 549.901 459.96 544.692 459.676 540.861C459.392 537.029 454.839 532.441 454.839 532.441C454.839 532.441 451.011 537.65 451.295 541.482Z" fill="#E41F37"/>
<path d="M444.721 553.378C445.264 557.181 450.119 561.449 450.119 561.449C450.119 561.449 453.584 555.992 453.04 552.189C452.497 548.385 447.642 544.117 447.642 544.117C447.642 544.117 444.177 549.574 444.721 553.378Z" fill="#E41F37"/>
<path d="M452.877 728.644C455.345 727.219 456.942 722.699 456.942 722.699C456.942 722.699 452.229 721.822 449.761 723.246C447.293 724.671 445.696 729.192 445.696 729.192C445.696 729.192 450.41 730.069 452.877 728.644Z" fill="#E41F37"/>
<path d="M360.151 819.452C362.937 818.856 365.849 815.048 365.849 815.048C365.849 815.048 361.636 812.761 358.849 813.356C356.062 813.951 353.15 817.76 353.15 817.76C353.15 817.76 357.364 820.047 360.151 819.452Z" fill="#E41F37"/>
<path d="M324.608 795.634C324.819 792.793 321.98 788.929 321.98 788.929C321.98 788.929 318.603 792.331 318.392 795.173C318.181 798.015 321.02 801.879 321.02 801.879C321.02 801.879 324.397 798.476 324.608 795.634Z" fill="#E41F37"/>
<path d="M644.869 383.266C641.158 384.26 637.501 389.59 637.501 389.59C637.501 389.59 643.333 392.378 647.044 391.383C650.755 390.389 654.412 385.059 654.412 385.059C654.412 385.059 648.58 382.271 644.869 383.266Z" fill="#E41F37"/>
<path d="M632.367 364.19C629.651 366.907 629.148 373.352 629.148 373.352C629.148 373.352 635.593 372.849 638.31 370.133C641.027 367.416 641.529 360.971 641.529 360.971C641.529 360.971 635.084 361.474 632.367 364.19Z" fill="#E41F37"/>
<path d="M611.117 355.456C610.122 359.167 612.91 364.999 612.91 364.999C612.91 364.999 618.24 361.342 619.234 357.631C620.229 353.92 617.441 348.088 617.441 348.088C617.441 348.088 612.111 351.745 611.117 355.456Z" fill="#E41F37"/>
<path d="M383.812 867.951C383.812 867.951 394.328 856.623 370.945 834.574C364.389 828.393 358.882 824.923 354.351 823.129L345.639 832.513C345.639 832.513 376.974 857.241 383.812 867.951Z" fill="#FFFF00"/>
<path d="M262.311 792.578C262.311 792.578 268.072 778.234 297.988 789.979C306.375 793.272 311.863 796.773 315.417 800.107L310.646 811.988C310.646 811.988 274.915 794.194 262.311 792.578Z" fill="#FFFF00"/>
<path d="M525.5 520.5C333 558.5 264 503.5 264 503.5" stroke="#0C001F"/>
<path d="M482 686.5C267.5 706 172.5 666.5 118.5 602.5" stroke="#0C001F"/>
<path d="M416 822C239 701 160.5 721.5 29 661" stroke="#0C001F"/>
<path d="M12 672.5L109.921 608C161.114 678.069 217.5 710.672 297 712.5C376.5 714.328 404 724 421.5 755C439 786 393.595 800.937 329 788.5C292.009 781.378 216.5 748 155 720.5C93.5 693 18.5055 679.202 12 672.5Z" fill="#FC4F64"/>
</g>
<defs>
<clipPath id="clip0_140_267">
<rect width="875" height="977" fill="white"/>
</clipPath>
</defs>
</svg>
