<svg width="907" height="155" viewBox="0 0 907 155" fill="none" xmlns="http://www.w3.org/2000/svg">
<path d="M97.96 60.7C96.84 57.62 95.09 54.68 92.71 51.88C90.47 48.94 87.74 46.35 84.52 44.11C81.44 41.87 78.01 40.12 74.23 38.86C70.59 37.46 66.74 36.76 62.68 36.76C60.16 36.76 57.64 37.18 55.12 38.02C52.74 38.86 50.57 40.05 48.61 41.59C46.79 43.13 45.25 45.02 43.99 47.26C42.87 49.36 42.31 51.74 42.31 54.4C42.31 58.6 43.71 61.82 46.51 64.06C49.45 66.16 53.23 67.77 57.85 68.89C62.47 69.87 67.72 70.57 73.6 70.99C79.62 71.41 85.71 71.9 91.87 72.46C98.03 73.02 103.98 73.93 109.72 75.19C115.6 76.31 120.78 78.27 125.26 81.07C129.74 83.87 133.24 87.72 135.76 92.62C138.28 97.38 139.33 103.61 138.91 111.31C138.63 117.75 137.09 123.35 134.29 128.11C131.63 132.73 128.27 136.65 124.21 139.87C120.15 143.09 115.6 145.68 110.56 147.64C105.52 149.46 100.55 150.86 95.65 151.84C90.75 152.82 86.06 153.45 81.58 153.73C77.24 154.15 73.6 154.36 70.66 154.36C62.96 154.36 55.61 153.38 48.61 151.42C41.61 149.46 35.03 146.73 28.87 143.23C22.85 139.73 17.39 135.53 12.49 130.63C7.59 125.73 3.46 120.41 0.1 114.67L42.1 83.17C43.5 86.39 45.11 89.4 46.93 92.2C48.89 95 51.13 97.45 53.65 99.55C56.17 101.65 59.11 103.33 62.47 104.59C65.97 105.71 70.03 106.27 74.65 106.27C76.61 106.27 78.99 105.99 81.79 105.43C84.73 104.73 87.6 103.75 90.4 102.49C93.2 101.09 95.58 99.27 97.54 97.03C99.5 94.79 100.48 92.06 100.48 88.84C100.48 84.5 98.45 81.42 94.39 79.6C90.47 77.78 85.5 76.45 79.48 75.61C73.46 74.77 66.95 74.07 59.95 73.51C52.95 72.95 46.44 71.69 40.42 69.73C34.4 67.63 29.36 64.55 25.3 60.49C21.38 56.29 19.42 50.27 19.42 42.43C19.42 35.15 21.1 28.92 24.46 23.74C27.82 18.42 32.23 14.08 37.69 10.72C43.15 7.21999 49.31 4.62999 56.17 2.94999C63.17 1.27 70.24 0.429998 77.38 0.429998C88.86 0.429998 99.71 2.53 109.93 6.72999C120.29 10.93 128.83 16.88 135.55 24.58L97.96 60.7ZM157.945 3.99999H194.905V67H211.915L209.815 3.99999H251.815V150.16H214.855L212.335 75.82L196.165 84.43L201.205 150.16H157.945V3.99999ZM268.58 152.05V85.9C273.62 86.74 278.38 87.16 282.86 87.16C294.62 87.16 304.98 84.64 313.94 79.6C322.9 74.42 330.39 67.84 336.41 59.86C342.43 51.88 346.91 42.99 349.85 33.19C352.93 23.25 354.47 13.52 354.47 3.99999H417.47C413.13 28.36 410.96 52.86 410.96 77.5C410.96 102.14 413.13 126.64 417.47 151H354.47C357.13 136.86 359.02 122.51 360.14 107.95C359.86 105.57 358.95 103.75 357.41 102.49C355.87 101.23 354.12 100.6 352.16 100.6C350.2 100.6 348.17 101.16 346.07 102.28C343.97 103.26 342.08 104.8 340.4 106.9C336.9 113.34 332.84 119.29 328.22 124.75C323.6 130.21 318.35 134.97 312.47 139.03C306.59 143.09 300.01 146.31 292.73 148.69C285.45 150.93 277.4 152.05 268.58 152.05ZM345.02 97.24H360.77C361.47 84.5 361.47 71.83 360.77 59.23C360.21 46.63 359.09 34.03 357.41 21.43C357.83 26.89 357.9 32.77 357.62 39.07C357.48 45.23 356.92 51.6 355.94 58.18C354.96 64.76 353.56 71.34 351.74 77.92C350.06 84.5 347.82 90.94 345.02 97.24ZM438.368 0.639996H475.538V3.37C478.198 2.52999 480.998 1.89999 483.938 1.48C486.878 0.919996 489.958 0.639996 493.178 0.639996C502.418 0.639996 510.258 2.6 516.698 6.52C523.278 10.44 528.598 15.83 532.658 22.69C536.858 29.41 539.868 37.39 541.688 46.63C543.648 55.73 544.628 65.53 544.628 76.03C544.628 83.73 543.578 92.06 541.478 101.02C539.518 109.98 536.368 118.31 532.028 126.01C527.828 133.57 522.368 139.94 515.648 145.12C508.928 150.16 500.878 152.68 491.498 152.68L475.538 150.79H438.368V0.639996ZM481.418 76.03C481.418 83.17 481.978 89.96 483.098 96.4C484.358 102.7 485.758 108.3 487.298 113.2C488.978 118.8 490.868 124.05 492.968 128.95C495.068 124.19 496.958 119.01 498.638 113.41C500.178 108.65 501.508 103.12 502.628 96.82C503.748 90.52 504.308 83.8 504.308 76.66V64.48C504.308 58.74 504.168 53.49 503.888 48.73C503.608 43.97 503.048 39.84 502.208 36.34C501.368 32.84 500.178 30.11 498.638 28.15C497.238 26.19 495.348 25.21 492.968 25.21C490.028 25.21 487.788 26.54 486.248 29.2C484.708 31.72 483.588 35.29 482.888 39.91C482.188 44.39 481.768 49.78 481.628 56.08C481.488 62.24 481.418 68.89 481.418 76.03ZM628.113 154.36C619.013 154.36 610.473 152.47 602.493 148.69C594.653 144.77 587.723 139.45 581.703 132.73C575.823 126.01 571.063 118.1 567.423 109C563.783 99.9 561.753 90.1 561.333 79.6C560.913 68.54 562.173 58.25 565.113 48.73C568.193 39.07 572.463 30.67 577.923 23.53C583.523 16.39 590.103 10.79 597.663 6.72999C605.363 2.66999 613.693 0.639996 622.653 0.639996C631.613 0.639996 640.083 2.6 648.063 6.52C656.043 10.3 662.973 15.55 668.853 22.27C674.873 28.99 679.703 36.9 683.343 46C686.983 55.1 689.013 64.9 689.433 75.4C689.853 86.46 688.523 96.82 685.443 106.48C682.503 116 678.233 124.33 672.633 131.47C667.173 138.61 660.593 144.21 652.893 148.27C645.333 152.33 637.073 154.36 628.113 154.36ZM601.233 82.33C604.453 105.01 608.653 121.32 613.833 131.26C619.153 141.2 626.083 145.68 634.623 144.7C643.163 143.58 648.623 137.35 651.003 126.01C653.383 114.53 652.893 96.75 649.533 72.67C646.453 49.99 642.253 33.68 636.933 23.74C631.613 13.66 624.683 9.17999 616.143 10.3C607.603 11.28 602.143 17.51 599.763 28.99C597.383 40.47 597.873 58.25 601.233 82.33ZM880.133 107.53C878.593 112.71 877.263 117.47 876.143 121.81C875.023 126.01 874.183 129.86 873.623 133.36C873.063 136.86 872.853 140.01 872.993 142.81C873.273 145.61 874.043 148.2 875.303 150.58V151L809.993 150.79V150.37C812.513 145.61 813.283 139.8 812.303 132.94C811.463 125.94 809.853 117.19 807.473 106.69L803.063 87.37L798.023 107.11C795.363 117.61 793.473 126.29 792.353 133.15C791.233 140.01 791.933 145.82 794.453 150.58V151L735.443 150.79V150.37C737.963 145.61 738.733 139.8 737.753 132.94C736.913 125.94 735.303 117.19 732.923 106.69L719.483 48.1C717.103 37.6 714.233 28.92 710.873 22.06C707.653 15.06 704.783 9.17999 702.263 4.42V3.99999H752.873V4.42C750.353 9.17999 749.583 15.06 750.563 22.06C751.543 28.92 753.223 37.6 755.603 48.1L766.733 97.03C768.553 105.15 770.373 111.1 772.193 114.88C774.153 118.52 775.973 120.48 777.653 120.76C779.333 121.04 780.873 119.92 782.273 117.4C783.813 114.88 785.143 111.52 786.263 107.32L797.393 63.01L794.033 48.1C791.653 37.6 788.783 28.92 785.423 22.06C782.203 15.06 779.333 9.17999 776.813 4.42V3.99999H827.423V4.42C824.903 9.17999 824.133 15.06 825.113 22.06C826.093 28.92 827.773 37.6 830.153 48.1L841.283 97.03C843.103 105.15 845.203 111.03 847.583 114.67C850.103 118.31 852.553 120.27 854.933 120.55C857.453 120.83 859.763 119.71 861.863 117.19C864.103 114.67 865.853 111.38 867.113 107.32L875.513 78.34C876.633 74.42 876.843 71.41 876.143 69.31C875.583 67.07 873.623 65.32 870.263 64.06L860.603 60.28C847.303 54.96 840.653 46.7 840.653 35.5C840.653 30.74 841.703 26.33 843.803 22.27C846.043 18.21 849.123 14.78 853.043 11.98C856.963 9.03999 861.583 6.8 866.903 5.26C872.363 3.58 878.313 2.73999 884.753 2.73999C886.153 2.73999 888.113 2.80999 890.633 2.94999C893.293 3.08999 895.813 3.36999 898.193 3.78999C900.573 4.06999 902.603 4.48999 904.283 5.04999C905.963 5.60999 906.663 6.30999 906.383 7.14999L896.303 46.63C895.603 49.01 894.203 49.64 892.103 48.52C887.343 46.42 882.513 44.74 877.613 43.48C872.853 42.22 868.303 41.59 863.963 41.59C860.463 41.59 858.713 42.57 858.713 44.53C858.713 46.35 860.113 47.82 862.913 48.94L881.183 55.45C889.303 58.11 892.103 63.99 889.583 73.09L880.133 107.53Z" fill="#FFFFE5"/>
</svg>
