<svg width="432" height="549" viewBox="0 0 432 549" fill="none" xmlns="http://www.w3.org/2000/svg">
<g clip-path="url(#clip0_247_1924)">
<path d="M20.873 83.6563C36.5958 133.143 132.638 134.012 132.638 134.012C132.638 134.012 94.2093 166.496 95.1959 192.993C96.2372 220.961 139.332 253.137 139.332 253.137L-5.9966 298.147L126.177 452.717C126.177 452.717 42.8268 480.583 54.4431 516.236L137.791 548.745C137.791 548.745 154.365 484.549 187.022 470.886C204.55 463.552 240.473 460.793 259.371 462.764C310.438 468.09 335.046 539.613 335.046 539.613L408.343 507.249C418.225 469.051 307.894 440.337 307.894 440.337L432.487 268.274L275.204 248.92C275.204 248.92 319.346 214.277 309.638 180.843C302.5 156.263 269.762 130.893 269.762 130.893C299.368 126.116 385.322 98.5936 370.876 56.1519C358.55 19.938 262.897 68.2625 262.897 68.2625C262.897 68.2625 256.852 20.5108 233.942 7.95589C214.338 -2.78671 196.05 -2.08532 176.713 9.13023C154.609 21.9506 147.717 67.786 147.717 67.786C147.717 67.786 2.31239 25.2373 20.873 83.6563Z" fill="#3C3369"/>
</g>
<defs>
<clipPath id="clip0_247_1924">
<rect width="432" height="549" fill="white"/>
</clipPath>
</defs>
</svg>
