<svg width="685" height="653" viewBox="0 0 685 653" fill="none" xmlns="http://www.w3.org/2000/svg">
<g clip-path="url(#clip0_247_1924)">
<rect width="685" height="653" fill="#0C001F"/>
<path d="M148.873 150.656C164.596 200.143 260.638 201.012 260.638 201.012C260.638 201.012 222.209 233.496 223.196 259.993C224.237 287.961 267.332 320.137 267.332 320.137L122.003 365.147L254.177 519.717C254.177 519.717 170.827 547.583 182.443 583.236L265.791 615.745C265.791 615.745 282.365 551.549 315.022 537.886C332.55 530.552 368.473 527.793 387.371 529.764C438.438 535.09 463.046 606.613 463.046 606.613L536.343 574.249C546.225 536.051 435.894 507.337 435.894 507.337L560.487 335.274L403.204 315.92C403.204 315.92 447.346 281.277 437.638 247.843C430.5 223.263 397.762 197.893 397.762 197.893C427.368 193.116 513.322 165.594 498.876 123.152C486.55 86.938 390.897 135.262 390.897 135.262C390.897 135.262 384.852 87.5108 361.942 74.9559C342.338 64.2133 324.05 64.9147 304.713 76.1302C282.609 88.9506 275.717 134.786 275.717 134.786C275.717 134.786 130.312 92.2373 148.873 150.656Z" fill="#7464BF"/>
<path d="M222.05 258.044C221.775 287.45 240.05 296.544 266.05 319.544C320.55 329.044 354.55 330.044 403.551 315.044C424.05 296.044 440.911 283.612 438.55 255.544C436.33 229.16 419.55 218.045 399.05 198.544C342.55 205.044 315.55 204.044 260.05 201.044C239.2 217.724 222.299 231.345 222.05 258.044Z" fill="#B2A2FF"/>
<path d="M265.957 243.624C264.668 262.4 311.623 259.024 311.623 259.024C311.623 259.024 314.765 229.136 301.513 222.833C286.988 215.923 267.058 227.576 265.957 243.624Z" fill="#FFFF00"/>
<path d="M349.957 243.624C348.668 262.4 395.623 259.024 395.623 259.024C395.623 259.024 398.765 229.136 385.513 222.833C370.988 215.923 351.058 227.576 349.957 243.624Z" fill="#FFFF00"/>
<path d="M363.36 279.16C339.55 293.044 305.078 280.749 302.05 279.16C299.022 277.572 293.461 277.653 293.55 279.16C314.966 310.364 353.375 314.539 374.757 277.044C372.932 275.561 369.04 275.848 363.36 279.16Z" fill="#0C001F"/>
<path d="M175.55 221.544C171.05 200.044 182.048 179.544 182.048 179.544" stroke="#7464BF" stroke-width="2"/>
<path d="M467.05 212.544C467.05 191.044 458.55 170.544 458.55 170.544" stroke="#7464BF" stroke-width="2"/>
<path d="M335.55 143.044C311.886 143.31 275.55 134.544 275.55 134.544L280.05 115.544C280.05 115.544 313.934 123.541 335.55 124.544C355.506 125.47 388.05 120.044 388.05 120.044L391.05 134.544C391.05 134.544 357.475 142.797 335.55 143.044Z" fill="#B2A2FF"/>
<path d="M175.484 216.092C176.936 216.059 178.081 216.41 179.102 217.424C180.351 218.664 180.946 219.865 180.621 221.648C178.953 222.589 178.111 223.347 175.895 223.128C177.205 225.117 179.406 224.627 180.645 224.351L180.645 224.351C180.92 224.289 180.947 225.709 180.947 225.709C180.457 227.017 178.481 228.254 178.481 228.254L180.828 231.01L188.815 226.665L193.422 223.359L192.138 229.917L182.83 237.406L182.862 243.386L188.799 246.055L182.896 248.082L179.086 243.942L177.805 249.216L170.912 250.038L175.646 244.708L172.372 239.735L161.866 236.657L156.958 231.478L163.771 232.242L172.572 232.848L174.903 229.05L172.664 226.128C172.664 226.128 170.712 223.862 170.595 222.027C170.473 220.095 170.903 218.941 172.363 217.642C173.378 216.74 174.003 216.125 175.484 216.092Z" fill="#B2A2FF"/>
<path d="M222.55 237.544C222.55 217.544 229.048 195.544 229.048 195.544" stroke="#7464BF" stroke-width="2"/>
<path d="M224.494 235.497C226.054 235.867 227.178 236.56 227.986 237.929C228.974 239.6 229.274 241.048 228.43 242.862C226.387 243.402 225.276 243.977 222.972 243.125C223.816 245.614 226.304 245.704 227.703 245.755L227.703 245.755C228.014 245.766 227.647 247.289 227.647 247.289C226.76 248.55 224.304 249.319 224.304 249.319L226.042 252.916L235.782 250.504L241.623 248.257L238.424 254.902L226.397 260.305L224.764 266.699L230.361 271.204L223.492 271.724L220.578 266.24L217.74 271.515L210.15 270.472L216.691 266.099L214.581 259.877L204.22 253.662L200.423 246.764L207.486 249.478L216.714 252.578L220.262 249.173L218.685 245.428C218.685 245.428 217.233 242.465 217.62 240.472C218.027 238.375 218.808 237.262 220.729 236.283C222.064 235.602 222.903 235.12 224.494 235.497Z" fill="#E41F37"/>
<path d="M427.55 238.544C427.55 218.544 419.55 186.544 419.55 186.544" stroke="#7464BF" stroke-width="2"/>
<path d="M429.494 235.497C431.054 235.867 432.178 236.56 432.986 237.929C433.974 239.6 434.274 241.048 433.43 242.862C431.387 243.402 430.276 243.977 427.972 243.125C428.816 245.614 431.304 245.704 432.703 245.755L432.703 245.755C433.014 245.766 432.647 247.289 432.647 247.289C431.76 248.55 429.304 249.319 429.304 249.319L431.042 252.916L440.782 250.504L446.623 248.257L443.424 254.902L431.397 260.305L429.764 266.699L435.361 271.204L428.492 271.724L425.578 266.24L422.74 271.515L415.15 270.472L421.691 266.099L419.581 259.877L409.22 253.662L405.423 246.764L412.486 249.478L421.714 252.578L425.262 249.173L423.685 245.428C423.685 245.428 422.233 242.465 422.62 240.472C423.027 238.375 423.808 237.262 425.729 236.283C427.064 235.602 427.903 235.12 429.494 235.497Z" fill="#E41F37"/>
<path d="M141.55 196.544C137.05 175.044 153.05 151.044 153.05 151.044" stroke="#7464BF" stroke-width="1.4"/>
<path d="M141.014 193.806C140.088 193.785 139.358 194.009 138.707 194.656C137.911 195.446 137.532 196.212 137.739 197.348C138.802 197.949 139.339 198.432 140.752 198.292C139.917 199.56 138.513 199.248 137.723 199.072C137.548 199.033 137.531 199.938 137.531 199.938C137.843 200.772 139.103 201.56 139.103 201.56L137.607 203.317L132.514 200.548L129.577 198.439L130.395 202.621L136.33 207.396L136.31 211.208L132.524 212.91L136.288 214.203L138.717 211.563L139.534 214.926L143.929 215.45L140.911 212.051L142.998 208.88L149.696 206.918L152.826 203.616L148.481 204.103L142.871 204.49L141.384 202.068L142.812 200.205C142.812 200.205 144.056 198.76 144.131 197.59C144.209 196.359 143.935 195.622 143.004 194.794C142.357 194.219 141.958 193.827 141.014 193.806Z" fill="#B2A2FF"/>
<path d="M501.361 196.544C505.861 175.044 489.861 151.044 489.861 151.044" stroke="#7464BF" stroke-width="1.4"/>
<path d="M501.897 193.806C502.823 193.785 503.552 194.009 504.204 194.656C505 195.446 505.379 196.212 505.172 197.348C504.108 197.949 503.571 198.432 502.159 198.292C502.994 199.56 504.398 199.248 505.187 199.072C505.363 199.033 505.38 199.938 505.38 199.938C505.068 200.772 503.808 201.56 503.808 201.56L505.304 203.317L510.396 200.548L513.334 198.439L512.515 202.621L506.58 207.396L506.601 211.208L510.387 212.91L506.623 214.203L504.193 211.563L503.377 214.926L498.982 215.45L502 212.051L499.913 208.88L493.214 206.918L490.085 203.616L494.429 204.103L500.04 204.49L501.527 202.068L500.099 200.205C500.099 200.205 498.854 198.76 498.78 197.59C498.702 196.359 498.976 195.622 499.907 194.794C500.554 194.219 500.952 193.827 501.897 193.806Z" fill="#B2A2FF"/>
<path d="M241.969 154.138C243.402 154.376 244.461 154.934 245.276 156.121C246.272 157.571 246.633 158.862 245.981 160.554C244.167 161.168 243.199 161.756 241.063 161.128C241.979 163.326 244.234 163.254 245.502 163.214L245.502 163.214C245.784 163.205 245.546 164.605 245.546 164.605C244.821 165.799 242.649 166.646 242.649 166.646L244.442 169.79L253.098 167.009L258.24 164.618L255.758 170.822L245.218 176.448L244.136 182.329L249.473 186.057L243.296 186.95L240.323 182.172L238.082 187.116L231.156 186.64L236.8 182.284L234.51 176.789L224.76 171.809L220.902 165.807L227.454 167.826L235.988 170.06L238.986 166.762L237.33 163.474C237.33 163.474 235.834 160.885 236.061 159.06C236.3 157.139 236.937 156.085 238.614 155.081C239.779 154.383 240.507 153.896 241.969 154.138Z" fill="#B2A2FF"/>
<path d="M197.43 136.976C198.546 137.905 199.178 138.922 199.281 140.358C199.407 142.112 199.067 143.409 197.65 144.539C195.774 144.153 194.641 144.17 193.116 142.549C192.795 144.909 194.777 145.986 195.892 146.592L195.892 146.592C196.139 146.727 195.227 147.815 195.227 147.815C193.998 148.479 191.696 148.112 191.696 148.112L191.653 151.731L200.528 153.706L206.174 154.242L200.896 158.341L188.958 157.868L185.052 162.396L187.774 168.311L181.992 165.959L181.841 160.334L177.41 163.467L171.674 159.557L178.745 158.65L179.546 152.751L173.65 143.527L173.354 136.397L177.988 141.451L184.222 147.691L188.476 146.361L188.709 142.687C188.709 142.687 188.726 139.697 189.845 138.236C191.021 136.7 192.105 136.112 194.059 136.093C195.416 136.08 196.291 136.028 197.43 136.976Z" fill="#B2A2FF"/>
<path d="M313.331 160.824C314.602 161.526 315.414 162.406 315.787 163.797C316.241 165.496 316.151 166.833 314.973 168.21C313.058 168.184 311.949 168.415 310.145 167.111C310.275 169.489 312.425 170.173 313.633 170.558L313.633 170.558C313.902 170.644 313.211 171.884 313.211 171.884C312.13 172.768 309.799 172.842 309.799 172.842L310.44 176.404L319.528 176.67L325.174 176.131L320.764 181.152L308.951 182.939L305.969 188.122L309.756 193.417L303.635 192.198L302.426 186.702L298.665 190.615L292.294 187.856L299.068 185.633L298.742 179.688L291.213 171.741L289.578 164.796L295.081 168.885L302.381 173.838L306.307 171.729L305.843 168.077C305.843 168.077 305.296 165.137 306.119 163.492C306.985 161.761 307.938 160.98 309.854 160.593C311.184 160.324 312.034 160.108 313.331 160.824Z" fill="#B2A2FF"/>
<path d="M370.91 157.509C372.317 157.148 373.511 157.232 374.736 157.989C376.232 158.915 377.083 159.95 377.169 161.761C375.757 163.055 375.108 163.983 372.9 164.27C374.625 165.912 376.659 164.937 377.803 164.388L377.803 164.388C378.057 164.266 378.405 165.643 378.405 165.643C378.223 167.028 376.577 168.679 376.577 168.679L379.486 170.834L386.285 164.797L390.026 160.535L390.257 167.213L382.881 176.612L384.263 182.431L390.651 183.689L385.358 186.998L380.711 183.825L380.655 189.252L374.125 191.611L377.533 185.348L373.22 181.244L362.291 180.619L356.339 176.683L363.149 175.888L371.859 174.49L373.272 170.263L370.43 167.922C370.43 167.922 368.017 166.157 367.489 164.395C366.932 162.541 367.091 161.319 368.22 159.724C369.004 158.616 369.475 157.876 370.91 157.509Z" fill="#B2A2FF"/>
<path d="M439.135 136.357C440.581 136.503 441.673 136.993 442.562 138.125C443.647 139.509 444.09 140.775 443.547 142.504C441.776 143.233 440.847 143.881 438.676 143.39C439.73 145.525 441.975 145.31 443.238 145.189L443.238 145.189C443.519 145.162 443.371 146.574 443.371 146.574C442.723 147.812 440.609 148.796 440.609 148.796L442.598 151.82L451.06 148.494L456.04 145.781L453.957 152.13L443.796 158.415L443.09 164.353L448.653 167.734L442.545 169.018L439.275 164.438L437.353 169.515L430.411 169.48L435.766 164.774L433.131 159.436L423.085 155.086L418.853 149.341L425.52 150.939L434.179 152.626L436.961 149.145L435.099 145.968C435.099 145.968 433.442 143.48 433.552 141.644C433.668 139.712 434.238 138.619 435.847 137.51C436.965 136.74 437.661 136.208 439.135 136.357Z" fill="#B2A2FF"/>
<path d="M468.734 209.089C470.185 209.149 471.305 209.573 472.259 210.651C473.426 211.968 473.942 213.204 473.504 214.963C471.779 215.796 470.89 216.498 468.693 216.137C469.873 218.206 472.101 217.858 473.355 217.662L473.355 217.662C473.633 217.618 473.569 219.037 473.569 219.037C472.997 220.311 470.945 221.418 470.945 221.418L473.11 224.319L481.359 220.495L486.169 217.491L484.467 223.953L474.698 230.83L474.346 236.8L480.101 239.844L474.08 241.489L470.543 237.113L468.927 242.294L461.995 242.673L467.061 237.657L464.113 232.484L453.826 228.739L449.26 223.256L456.01 224.455L464.753 225.624L467.324 221.984L465.276 218.924C465.276 218.924 463.474 216.538 463.475 214.699C463.476 212.763 463.979 211.638 465.52 210.436C466.59 209.601 467.254 209.028 468.734 209.089Z" fill="#B2A2FF"/>
<ellipse cx="423.328" cy="395.663" rx="14.811" ry="11.8198" transform="rotate(-78.2616 423.328 395.663)" fill="#B2A2FF"/>
<ellipse cx="14.811" cy="11.8198" rx="14.811" ry="11.8198" transform="matrix(-0.979087 -0.203444 -0.203444 0.979087 454.005 378.926)" fill="#B2A2FF"/>
<ellipse cx="14.811" cy="11.8198" rx="14.811" ry="11.8198" transform="matrix(0.979087 0.203444 0.203444 -0.979087 398.702 391.58)" fill="#B2A2FF"/>
<ellipse cx="427.311" cy="374.072" rx="14.811" ry="11.8198" transform="rotate(101.738 427.311 374.072)" fill="#B2A2FF"/>
<ellipse cx="334.961" cy="407.95" rx="10.6675" ry="8.51313" transform="rotate(-91.0818 334.961 407.95)" fill="#B2A2FF"/>
<ellipse cx="10.6675" cy="8.51313" rx="10.6675" ry="8.51313" transform="matrix(-0.999822 0.0188806 0.0188806 0.999822 353.83 391.293)" fill="#B2A2FF"/>
<ellipse cx="10.6675" cy="8.51313" rx="10.6675" ry="8.51313" transform="matrix(0.999822 -0.0188805 -0.0188805 -0.999822 317.013 409.019)" fill="#B2A2FF"/>
<ellipse cx="334.307" cy="392.151" rx="10.6675" ry="8.51313" transform="rotate(88.9182 334.307 392.151)" fill="#B2A2FF"/>
<ellipse cx="287.954" cy="455.779" rx="14.6142" ry="11.6627" transform="rotate(-109.675 287.954 455.779)" fill="#B2A2FF"/>
<ellipse cx="14.6142" cy="11.6627" rx="14.6142" ry="11.6627" transform="matrix(-0.941615 0.33669 0.33669 0.941615 305.178 425.908)" fill="#B2A2FF"/>
<ellipse cx="14.6142" cy="11.6627" rx="14.6142" ry="11.6627" transform="matrix(0.941615 -0.33669 -0.33669 -0.941615 265.116 465.005)" fill="#B2A2FF"/>
<ellipse cx="280.203" cy="435.549" rx="14.6142" ry="11.6627" transform="rotate(70.3247 280.203 435.549)" fill="#B2A2FF"/>
<ellipse cx="237.436" cy="391.745" rx="11.4475" ry="9.13553" transform="rotate(-24.7364 237.436 391.745)" fill="#B2A2FF"/>
<ellipse cx="11.4475" cy="9.13553" rx="11.4475" ry="9.13553" transform="matrix(-0.418444 -0.908242 -0.908242 0.418444 261.933 403.121)" fill="#B2A2FF"/>
<ellipse cx="11.4475" cy="9.13553" rx="11.4475" ry="9.13553" transform="matrix(0.418444 0.908243 0.908243 -0.418444 228.659 374.563)" fill="#B2A2FF"/>
<ellipse cx="252.685" cy="384.299" rx="11.4475" ry="9.13553" transform="rotate(155.264 252.685 384.299)" fill="#B2A2FF"/>
<ellipse cx="376.638" cy="456.073" rx="8.53925" ry="6.81467" transform="rotate(-24.7364 376.638 456.073)" fill="#B2A2FF"/>
<ellipse cx="8.53925" cy="6.81467" rx="8.53925" ry="6.81467" transform="matrix(-0.418444 -0.908242 -0.908242 0.418444 394.912 464.559)" fill="#B2A2FF"/>
<ellipse cx="8.53925" cy="6.81467" rx="8.53925" ry="6.81467" transform="matrix(0.418444 0.908243 0.908243 -0.418444 370.091 443.256)" fill="#B2A2FF"/>
<ellipse cx="388.013" cy="450.519" rx="8.53925" ry="6.81467" transform="rotate(155.264 388.013 450.519)" fill="#B2A2FF"/>
<ellipse cx="334.531" cy="471.196" rx="4.5672" ry="3.64481" transform="rotate(34.5416 334.531 471.196)" fill="#B2A2FF"/>
<ellipse cx="4.5672" cy="3.64481" rx="4.5672" ry="3.64481" transform="matrix(0.567005 -0.823715 -0.823715 -0.567005 335.623 481.917)" fill="#B2A2FF"/>
<ellipse cx="4.5672" cy="3.64481" rx="4.5672" ry="3.64481" transform="matrix(-0.567005 0.823714 0.823714 0.567005 338.635 464.685)" fill="#B2A2FF"/>
<ellipse cx="340.193" cy="474.909" rx="4.5672" ry="3.64481" transform="rotate(-145.458 340.193 474.909)" fill="#B2A2FF"/>
<path d="M279.55 511.544L164.05 376.044C164.05 376.044 229.05 352.544 275.55 342.544C295.859 344.61 315.652 355.73 336.05 356.544C360.048 357.502 378.178 341.182 402.05 338.544C444.55 338.544 521.05 352.544 521.05 352.544L412.55 499.044" stroke="#B2A2FF" stroke-width="15"/>
</g>
<defs>
<clipPath id="clip0_247_1924">
<rect width="685" height="653" fill="white"/>
</clipPath>
</defs>
</svg>
