<svg width="685" height="653" viewBox="0 0 685 653" fill="none" xmlns="http://www.w3.org/2000/svg">
<path d="M205.5 211.285C184.197 215.298 175.654 235.642 192.5 249.285C207.978 261.82 216.429 262.833 235.558 257.285C247.468 253.83 277.558 247.284 277.558 247.284V278.285C277.558 278.285 122.5 268.285 107.556 292.785C92.6122 317.285 148 478.285 165.058 484.284C182.116 490.283 205.558 484.284 205.558 484.284C205.558 484.284 185.92 516.597 181.058 539.785C176.25 562.717 170.786 578.725 181.058 599.784H304.058C309.945 576.206 289.256 564.026 287.556 539.785C286.031 518.037 282.839 503.268 293.558 484.284C327.5 468.285 378.5 467.285 416.558 484.284C425.473 504.04 420.012 518.387 416.558 539.785C412.592 564.357 390.519 575.311 395.058 599.784H519.558C531.327 579.409 528.268 563.094 525.056 539.785C521.893 516.828 504.058 484.284 504.058 484.284C504.058 484.284 516.117 494.783 539.558 484.284C563 473.785 608.056 255.284 596.5 247.284C584.944 239.284 425.056 261.285 425.056 261.285C425.056 261.285 406.378 238.363 409.556 222.285C411.72 211.339 425.024 209.442 425.056 198.285C425.08 189.978 418.71 186.808 416.558 178.785C416.558 178.785 515.057 203.784 557.057 167.284C599.057 130.784 455.188 178.101 433.058 132.284C420.235 105.734 435.682 87.2264 416.558 64.7849C389.955 33.5659 377.728 80.5905 337.056 75.2841C314.889 72.3919 299.432 65.667 277.558 70.285C247.181 76.6983 257.295 110.116 235.558 132.284C192.355 176.345 70.9073 138.254 87.5566 167.284C107.056 201.284 187.556 174.784 249.058 174.784C247 194.285 240 204.785 205.5 211.285Z" fill="#3C3369"/>
</svg>
