<svg width="685" height="653" viewBox="0 0 685 653" fill="none" xmlns="http://www.w3.org/2000/svg">
<rect width="685" height="653" fill="#0C001F"/>
<path d="M205.5 211.285C184.197 215.298 175.654 235.642 192.5 249.285C207.978 261.82 216.429 262.833 235.558 257.285C247.468 253.83 277.558 247.284 277.558 247.284V278.285C277.558 278.285 122.5 268.285 107.556 292.785C92.6122 317.285 148 478.285 165.058 484.284C182.116 490.283 205.558 484.284 205.558 484.284C205.558 484.284 185.92 516.597 181.058 539.785C176.25 562.717 170.786 578.725 181.058 599.784H304.058C309.945 576.206 289.256 564.026 287.556 539.785C286.031 518.037 282.839 503.268 293.558 484.284C327.5 468.285 378.5 467.285 416.558 484.284C425.473 504.04 420.012 518.387 416.558 539.785C412.592 564.357 390.519 575.311 395.058 599.784H519.558C531.327 579.409 528.268 563.094 525.056 539.785C521.893 516.828 504.058 484.284 504.058 484.284C504.058 484.284 516.117 494.783 539.558 484.284C563 473.785 608.056 255.284 596.5 247.284C584.944 239.284 425.056 261.285 425.056 261.285C425.056 261.285 406.378 238.363 409.556 222.285C411.72 211.339 425.024 209.442 425.056 198.285C425.08 189.978 418.71 186.808 416.558 178.785C416.558 178.785 515.057 203.784 557.057 167.284C599.057 130.784 455.188 178.101 433.058 132.284C420.235 105.734 435.682 87.2264 416.558 64.7849C389.955 33.5659 377.728 80.5905 337.056 75.2841C314.889 72.3919 299.432 65.667 277.558 70.285C247.181 76.6983 257.295 110.116 235.558 132.284C192.355 176.345 70.9073 138.254 87.5566 167.284C107.056 201.284 187.556 174.784 249.058 174.784C247 194.285 240 204.785 205.5 211.285Z" fill="#7464BF"/>
<path d="M207.5 260.784C228.832 264.457 250.189 252.998 277.5 247.784C319 263.785 388.5 258.285 409.5 221.285C413.5 211.785 424.5 208.285 425.5 198.285C424 189.785 422 189.285 417 178.785C340 168.785 302 174.784 249 174.784C247 204.285 196 214.284 196 214.284C196 214.284 181.491 223.561 183 234.284C184.734 246.602 190.283 257.82 207.5 260.784Z" fill="#B2A2FF"/>
<path d="M277 278.785V248.285L409 222.285C409 222.285 419 244.785 425.5 260.285C425.5 285.785 444.5 282.285 450.5 318.785C456.5 355.285 386.043 373.22 342.5 373.785C297.934 374.363 231.586 361.997 242.5 318.785C247.551 298.784 277 278.785 277 278.785Z" fill="#B2A2FF"/>
<path d="M226.471 249.968C218.493 244.98 211.089 262.885 211.089 262.885L231.368 268.338C231.368 268.338 232.689 253.855 226.471 249.968Z" fill="#0C001F"/>
<path d="M195.266 249.676C189.951 241.912 176 255.356 176 255.356L192.402 268.471C192.402 268.471 199.408 255.727 195.266 249.676Z" fill="#0C001F"/>
<path d="M329.976 208.001C327.873 211.643 297.826 215.588 291.516 211.643C288.796 200.331 297.168 188.464 308.643 187.367C320.127 186.268 330.567 196.366 329.976 208.001Z" fill="#FFFF00"/>
<path d="M248 193.284C245.006 195.149 243.045 198.697 240 193.284L248 181.785C249.5 184.285 248.847 182.552 248 193.284Z" fill="#FFFF00"/>
<path d="M289 253.285C313.551 254.648 349.5 245.284 346.5 232.284C345.147 231.124 332.849 238.144 319.5 241.285C298.329 246.266 273 248.785 273 248.785C273 248.785 280.724 252.826 289 253.285Z" fill="#0C001F"/>
<path d="M313 140.785C270.895 141.563 204 150.285 204 150.285C225.5 142.285 238 130.285 238 130.285C238 130.285 283.537 122.68 313 121.785C359.687 120.365 400.5 126.285 434.5 135.285C444 145.785 454.5 148.785 454.5 148.785C454.5 148.785 367.96 139.769 313 140.785Z" fill="#B2A2FF"/>
<path d="M250.098 352.477C250.098 352.477 248.874 336.941 255.098 330.977C262.31 324.066 280.598 328.977 280.598 328.977" stroke="#7464BF" stroke-width="3"/>
<path d="M338.193 379.537C338.193 379.537 349.741 369.072 349.303 360.463C348.796 350.487 332.12 341.516 332.12 341.516" stroke="#7464BF" stroke-width="3"/>
<path d="M386.392 372.95C386.392 372.95 388.917 357.572 383.216 351.106C376.61 343.614 357.974 346.971 357.974 346.971" stroke="#7464BF" stroke-width="3"/>
<path d="M289.098 374.477C289.098 374.477 287.874 358.941 294.098 352.977C301.31 346.066 319.598 350.977 319.598 350.977C319.598 350.977 329.598 355.285 322 364.785C314.402 374.285 304.5 364.785 304.5 364.785" stroke="#7464BF" stroke-width="3"/>
<path d="M421.233 362.465C421.233 362.465 429.058 348.988 426.027 340.918C422.514 331.567 403.902 328.083 403.902 328.083C403.902 328.083 393.022 327.64 395.762 339.492C398.502 351.344 411.54 347.063 411.54 347.063" stroke="#7464BF" stroke-width="3"/>
<path d="M241.061 306.23C241.061 306.23 252.5 316.813 261.037 315.621C270.93 314.239 278.401 296.839 278.401 296.839" stroke="#7464BF" stroke-width="3"/>
<path d="M418.095 275.73C418.095 275.73 420.7 291.094 428.191 295.359C436.873 300.3 453.408 291.074 453.408 291.074" stroke="#7464BF" stroke-width="3"/>
<path d="M456.669 319.23C456.669 319.23 445.23 329.813 436.692 328.621C426.799 327.239 419.328 309.839 419.328 309.839" stroke="#7464BF" stroke-width="3"/>
<path d="M248.014 369.762C248.014 369.762 263.213 373.207 270.01 367.906C277.886 361.762 275.655 342.958 275.655 342.958C275.655 342.958 266.334 328.467 262.118 347.054" stroke="#7464BF" stroke-width="3"/>
<path d="M157 414.785C153.531 454.83 207 472.785 255.5 467.785C304 462.785 328.286 447.711 356 428.785C376.5 414.785 617.5 357.285 617.5 357.285L615 374.785L625.5 377.285V355.285L632 353.285V377.285H637L641 353.285H647.5L643.5 369.785H649.5L655 355.285L660 337.285L666 322.285H660L652 337.285H643.5V319.785H632L637 337.285H628L619.5 319.785L615 322.285L619.5 337.285C619.5 337.285 372.5 387.285 356 387.285C339.5 387.285 288.958 363.583 244 369.785C206.108 375.012 160.301 376.676 157 414.785Z" fill="#E41F37"/>
<path d="M261 420.785C261 434.316 247.531 443.285 234 443.285C220.469 443.285 212 434.316 212 420.785C212 407.254 222.969 396.285 236.5 396.285C250.031 396.285 261 407.254 261 420.785Z" fill="#0C001F"/>
<path d="M520.628 289.554C524.087 289.354 524.201 293.292 527.76 293.567C524.651 296.847 523.958 295.248 520.063 292.565C520.493 294.74 522.205 298.221 522.205 298.221L513.512 297.98L506.292 292.866L499.881 286.428L500.182 297.007L507.916 310.276L504.627 314.33L511.373 317.645L506.779 322.243L495.111 319.067L495.439 323.527L505.993 326.785L507 328.281L509.04 328.579L511.378 326.837L515.237 321.396L516.02 328.745L515.994 331.438L521.353 334.182L522.451 334.093L530.874 338.637L533.575 335.963L523.445 329.095L524.974 322.696L529.136 324.407L531.037 319.783L546.252 315.948L555.373 309.244L544.403 308.536L534.131 306.999L527.65 300.459C529.86 299.503 530.839 299.699 532.549 297.699C534.259 295.698 535.684 291.278 536.352 288.45C536.411 288.201 536.068 287.39 536.732 287.525C539.316 289.128 546.314 291.842 549.68 292.849C551.031 293.253 549.45 291.426 549.326 291.081C549.011 290.206 539.854 284.028 539.096 283.091C538.423 282.259 540.727 278.634 540.072 278.086C539.729 277.799 533.232 273.453 532.061 274.251C530.926 275.025 526.92 277.421 526.338 277.304C525.367 277.111 519.532 275.552 516.709 274.427C515.766 274.051 514.567 274.991 514.288 275.053C516.411 276.467 520.192 279.103 523.629 280.917C523.953 281.05 524.123 281.137 524.075 281.169C522.169 282.483 520.892 285.729 520.538 288.435C520.464 288.992 520.621 289.064 520.628 289.554Z" fill="#3C3369"/>
<path d="M520.792 289.081C520.893 289.122 520.505 292.8 520.063 292.565C512.525 288.547 516.523 284.082 516.523 284.082C516.523 284.082 518.62 288.187 520.792 289.081Z" fill="#3C3369"/>
<path d="M167.572 324.055C165.003 323.906 164.918 326.832 162.274 327.036C164.584 329.472 165.098 328.284 167.992 326.292C167.673 327.907 166.4 330.493 166.4 330.493L172.858 330.314L178.221 326.515L182.984 321.733L182.759 329.591L177.015 339.448L179.458 342.459L174.447 344.921L177.859 348.337L186.527 345.978L186.283 349.291L178.443 351.711L177.695 352.822L176.18 353.043L174.443 351.749L171.577 347.708L170.995 353.167L171.014 355.167L167.033 357.205L166.218 357.139L159.961 360.515L157.955 358.529L165.48 353.427L164.344 348.674L161.252 349.945L159.84 346.51L148.538 343.661L141.763 338.681L149.911 338.155L157.542 337.013L162.356 332.156C160.715 331.445 159.987 331.591 158.717 330.105C157.447 328.619 156.389 325.336 155.892 323.235C155.849 323.05 156.103 322.448 155.61 322.548C153.69 323.739 148.492 325.755 145.992 326.503C144.988 326.803 146.163 325.446 146.255 325.19C146.489 324.54 153.291 319.95 153.854 319.254C154.354 318.636 152.642 315.944 153.129 315.537C153.383 315.323 158.21 312.095 159.08 312.688C159.923 313.263 162.898 315.042 163.331 314.956C164.052 314.812 168.387 313.655 170.484 312.818C171.184 312.539 172.074 313.237 172.281 313.284C170.705 314.334 167.896 316.292 165.343 317.639C165.103 317.738 164.976 317.803 165.011 317.827C166.428 318.803 167.376 321.214 167.639 323.224C167.694 323.638 167.578 323.691 167.572 324.055Z" fill="#3C3369"/>
<path d="M167.45 323.704C167.375 323.734 167.664 326.467 167.992 326.292C173.591 323.307 170.621 319.99 170.621 319.99C170.621 319.99 169.064 323.04 167.45 323.704Z" fill="#3C3369"/>
<path d="M472.428 434.149C474.38 433.901 474.598 436.128 476.625 436.145C474.991 438.124 474.536 437.245 472.225 435.877C472.553 437.092 473.659 438.998 473.659 438.998L468.724 439.2L464.434 436.582L460.552 433.184L461.134 439.166L466.031 446.383L464.325 448.808L468.277 450.424L465.853 453.208L459.118 451.862L459.478 454.376L465.584 455.812L466.212 456.62L467.38 456.709L468.637 455.632L470.612 452.399L471.341 456.533L471.431 458.059L474.574 459.405L475.192 459.312L480.141 461.559L481.568 459.94L475.561 456.442L476.179 452.757L478.603 453.565L479.501 450.871L487.972 448.107L492.879 443.954L486.636 443.979L480.757 443.508L476.83 440.054C478.045 439.427 478.608 439.499 479.499 438.3C480.39 437.1 481.025 434.54 481.294 432.912C481.317 432.769 481.091 432.323 481.473 432.373C483 433.181 487.07 434.447 489.016 434.886C489.797 435.062 488.83 434.089 488.747 433.898C488.534 433.415 483.106 430.27 482.64 429.769C482.226 429.324 483.391 427.181 482.999 426.896C482.793 426.746 478.943 424.536 478.31 425.034C477.698 425.517 475.521 427.03 475.187 426.987C474.629 426.915 471.262 426.259 469.619 425.731C469.071 425.554 468.428 426.133 468.272 426.18C469.53 426.898 471.775 428.244 473.792 429.138C473.981 429.201 474.081 429.244 474.055 429.264C473.026 430.083 472.429 431.971 472.333 433.518C472.313 433.837 472.405 433.871 472.428 434.149Z" fill="#3C3369"/>
<path d="M472.502 433.874C472.561 433.894 472.484 435.993 472.225 435.877C467.797 433.893 469.889 431.208 469.889 431.208C469.889 431.208 471.236 433.453 472.502 433.874Z" fill="#3C3369"/>
<path d="M253 407.785C338 412.785 375.185 397.242 451.5 379.785C528 362.285 606 341.285 649 341.285" stroke="#0C001F" stroke-width="3"/>
<path d="M254 418.785C338 418.785 375.185 403.242 451.5 385.785C528 368.285 605.5 345.785 648.5 345.785" stroke="#0C001F" stroke-width="3"/>
<path d="M254 430.785C340 424.785 377.185 409.742 453.5 392.285C530 374.785 606 350.285 649 350.285" stroke="#0C001F" stroke-width="3"/>
<path d="M384.5 388.785L392 411.785" stroke="#0C001F" stroke-width="3"/>
<path d="M439 377.785V397.285" stroke="#0C001F" stroke-width="3"/>
<path d="M476.5 369.285L487 386.785" stroke="#0C001F" stroke-width="3"/>
<path d="M526 358.285L528 377.285" stroke="#0C001F" stroke-width="3"/>
<path d="M567 351.285L575.5 364.285" stroke="#0C001F" stroke-width="3"/>
<path d="M202.5 399.785C202.5 401.385 203.833 427.785 204.5 440.785" stroke="#0C001F" stroke-width="3"/>
</svg>
