<svg width="1344" height="273" viewBox="0 0 1344 273" fill="none" xmlns="http://www.w3.org/2000/svg">
<g clip-path="url(#clip0_175_34)">
<path d="M171.662 189.453C156.737 180.754 142.909 170.8 132.794 159.09C72.2588 154.74 6.71193 101.057 121.1 91.0243C123.179 85.1981 126.206 80.127 131.672 74.8476C139.552 67.2373 143.255 78.5319 147.838 91.8851C157.463 94.2029 165.921 98.6084 177.561 102.748C183.073 104.709 188.206 106.09 193.042 107.432C197.361 102.978 202.121 97.3105 207.381 90.2338C216.221 78.3405 208.398 95.16 209.27 113.009C214.577 115.539 219.573 119.019 224.418 124.508C230.285 131.155 235.862 136.057 237.613 143.356C244.269 144.13 252.416 143.835 262.368 142.132C277.583 139.527 266.652 174.071 252.586 180.428C241.442 185.465 225.637 184.635 222.187 172.902C219.086 162.356 237.5 160.683 238.136 149.709C238.271 147.374 238.075 145.282 237.613 143.356C215.645 140.803 209.934 126.607 209.27 113.009C204.193 110.589 198.83 109.039 193.042 107.432C163.897 137.491 154.84 112.285 147.838 91.8851C142.404 90.5766 136.598 89.9336 129.638 90.3794C126.687 90.5684 123.841 90.7838 121.1 91.0243C119.575 95.2969 118.559 99.9755 117.466 105.44C113.193 126.785 120.046 144.333 132.794 159.09C150.963 160.395 168.68 157.256 180.946 147.159C196.554 134.31 190.249 198.085 190.249 198.085C190.249 198.085 178.576 193.484 171.662 189.453Z" fill="#FFFF00"/>
</g>
<path d="M503.492 200.361C472.783 192.955 405.648 165.922 410.543 147.059C398.378 136.214 399.451 124.204 431.521 118.101C430.485 112.602 429.646 106.769 432.294 102.054C439.678 88.9038 449.807 104.729 462.64 115.062C469.273 114.984 476.264 115.206 484.259 115.611C487.956 115.798 491.442 115.807 494.774 115.762C499.391 111.424 504.21 104.767 509.233 95.0647C514.833 84.2471 519.272 100.597 525.871 118.397C528.969 119.483 532.119 120.973 535.39 123.008C538.864 125.169 535.921 130.423 533.194 135.5C535.571 140.034 538.21 144.004 541.187 146.822C544.869 146.207 549.642 145.045 555.763 143.211C558.195 142.483 558.768 144.892 558.642 148.956C563.939 145.911 569.943 139.632 576.801 128.998C591.508 106.195 587.994 148.474 594.021 168.59C597.531 180.306 588.98 187.887 576.916 189.896C550.049 194.37 558.223 162.488 558.642 148.956C551.722 152.934 546.011 151.39 541.187 146.822C525.983 149.365 529.377 142.605 533.194 135.5C530.441 130.251 528.039 124.246 525.871 118.397C515.719 114.836 506.135 115.61 494.774 115.762C482.654 127.152 471.937 122.549 462.64 115.062C453.256 115.172 444.586 115.881 434.802 117.516C433.674 117.705 432.581 117.9 431.521 118.101C433.008 125.998 434.902 133.208 427.464 135.437C416.864 138.613 411.698 142.609 410.543 147.059C431.325 165.589 490.745 180.719 500.247 157.182C507.815 138.435 520.141 178.095 520.141 178.095C520.141 178.095 511.272 202.238 503.492 200.361Z" fill="#FFFF00"/>
<g clip-path="url(#clip1_175_34)">
<path d="M872.678 182.137C868.878 181.815 864.294 182.508 859.188 183.882C854.855 201.273 830.545 207.521 806.588 205.432C780.797 216.202 759.939 220.933 765.952 191.603C753.109 181.522 750.28 166.625 770.387 148.698C783.025 137.43 794.355 130.176 811.205 120.707C818.392 116.669 822.709 114.901 826.677 114.214C828.536 105.884 829.748 94.9536 829.915 80.4301C830.12 62.6969 860.679 110.572 883.024 84.9461C900.857 64.4947 916.481 93.1751 932.308 106.977C936.289 110.448 920.029 111.144 905.416 112.384C903.297 115.178 899.586 118.824 893.896 123.509C897.046 124.742 901.084 126.12 906.145 127.662C940.023 137.988 876.1 137.729 891.466 125.477C892.313 124.802 893.123 124.146 893.896 123.509C874.434 115.891 888.869 113.789 905.416 112.384C920.029 93.123 858.985 114.358 849.365 114.417C837.434 114.49 832.42 113.22 826.677 114.214C818.399 151.305 797.291 136.83 798.391 158.42C799.061 171.576 778.736 155.582 773.739 167.77C769.764 177.463 767.241 185.316 765.952 191.603C775.645 199.211 791.042 204.077 806.588 205.432C824.142 198.101 843.981 187.973 859.188 183.882C861.44 174.844 858.296 162.796 846.903 147.344C834.905 131.072 874.885 154.423 874.885 154.423C874.885 154.423 880.653 182.813 872.678 182.137Z" fill="#FFFF00"/>
</g>
<g clip-path="url(#clip2_175_34)">
<path d="M1154.59 178.036C1112.62 174.211 1030.13 86.0658 1122.74 81.3615C1118.59 66.9432 1123.46 59.8181 1146.18 70.7479C1152.31 73.701 1154.18 81.8386 1156.65 89.2232C1158.98 89.3525 1161.38 88.9602 1163.91 87.7541C1178.47 80.8065 1170.9 91.9412 1180.68 100.938C1182.81 100.11 1185.14 99.0345 1187.7 97.6825C1198.81 91.8084 1200.97 98.7807 1202.92 109.366C1210.19 110.377 1219.44 110.781 1231.24 110.281C1249.42 109.511 1201.86 141.877 1248.28 142.871C1275.41 143.453 1246.93 142.186 1240.27 162.101C1239.78 163.564 1239 165.061 1238.01 166.589C1243.25 170.759 1248.73 174.13 1254.09 175.924C1284.1 185.963 1209.94 216.51 1212.16 201.966C1214.11 189.257 1231.15 177.174 1238.01 166.589C1223.78 155.263 1211.36 138.041 1208.16 130.499C1205.2 123.495 1204.1 115.769 1202.92 109.366C1191.15 107.729 1184.55 104.501 1180.68 100.938C1164.2 107.352 1159.9 98.9392 1156.65 89.2232C1148.01 88.7445 1140.22 81.1151 1129.85 81.1685C1127.38 81.1812 1125.01 81.2464 1122.74 81.3615C1125.99 92.6485 1134.75 108.405 1144.8 123.468C1158.42 126.494 1172.93 133.042 1176.82 140.873C1203.8 195.252 1170.21 161.579 1144.8 123.468C1126.92 119.497 1110.57 121.594 1121.8 134.825C1128.82 143.105 1162.56 178.762 1154.59 178.036Z" fill="#FFFF00"/>
</g>
<defs>
<clipPath id="clip0_175_34">
<rect width="336" height="169" fill="white" transform="translate(0 52)"/>
</clipPath>
<clipPath id="clip1_175_34">
<rect width="336" height="169" fill="white" transform="translate(672 52)"/>
</clipPath>
<clipPath id="clip2_175_34">
<rect width="336" height="169" fill="white" transform="translate(1008 52)"/>
</clipPath>
</defs>
</svg>
