<svg width="1304" height="239" viewBox="0 0 1304 239" fill="none" xmlns="http://www.w3.org/2000/svg">
<g clip-path="url(#clip0_240_1537)">
<path d="M216.916 68.1197C222.89 84.7239 226.687 101.903 225.399 118.671C278.026 156.684 290.056 244.283 173.859 189.758C166.566 194.119 159.08 197.233 149.121 199.179C134.765 201.984 141.67 189.201 149.64 173.973C142.765 166.387 138.898 157.475 131.811 147.033C128.455 142.088 124.922 137.904 121.631 133.925C113.503 135.73 103.848 138.44 92.4325 142.205C73.2475 148.534 96.0034 136.965 111.572 119.552C108.93 114.182 107.452 108.085 107.958 100.168C108.572 90.5804 107.856 82.81 112.918 74.9084C107.403 70.4489 99.5117 66.1671 88.6399 62.2114C72.0186 56.1637 113.95 29.5272 132.942 31.3734C147.989 32.8362 162.009 42.4711 154.466 55.5287C147.687 67.2645 128.927 58.5423 118.26 68.5923C115.99 70.7306 114.253 72.8241 112.918 74.9084C131.121 89.6284 123.432 106.286 111.572 119.552C114.099 124.689 117.691 129.161 121.631 133.925C176.482 121.739 161.817 150.709 149.64 173.973C153.521 178.256 158.361 182.116 165.281 185.59C168.214 187.063 171.073 188.451 173.859 189.758C179.207 186.561 184.451 182.693 190.49 178.123C214.079 160.275 223.776 139.8 225.399 118.671C209.603 107.261 190.151 100.319 169.411 103.026C143.017 106.472 207.454 49.5286 207.454 49.5286C207.454 49.5286 214.148 60.4269 216.916 68.1197Z" fill="#B2A2FF"/>
<path d="M542.916 68.1195C547.886 81.9357 551.35 96.1499 551.631 110.194C632.101 105.933 635.929 197.44 504.336 186.92C495.529 192.794 487.12 196.834 475.12 199.179C435.583 206.904 499.499 167.5 418.432 142.205C404.506 137.86 415.04 128.978 429.666 117.793C423.934 111.043 419.943 103.711 420.5 94.9997C421.266 83.0269 447.69 73.0758 458.809 62.9572C453.802 58.3466 445.805 53.8388 433.958 49.5284C417.337 43.4807 459.269 16.8441 478.26 18.6904C493.308 20.1531 502.953 36.4709 495.41 49.5284C488.63 61.2643 469.871 52.542 459.204 62.592C459.074 62.7138 458.943 62.8355 458.809 62.9572C479.097 81.6384 450.306 102.009 429.666 117.793C438.291 127.949 450.858 136.789 457.81 147.033C468.898 163.369 469.984 182.971 491.28 185.59C495.772 186.142 500.124 186.583 504.336 186.92C508.199 184.344 512.138 181.416 516.489 178.123C543.222 157.897 552.113 134.296 551.631 110.194C548.818 110.343 545.913 110.609 542.916 111C516.522 114.446 533.453 49.5284 533.453 49.5284C533.453 49.5284 540.148 60.4267 542.916 68.1195Z" fill="#B2A2FF"/>
<path d="M1199.5 62.5922C1206.98 83.3781 1207.18 106.761 1198.68 128.926C1222.31 169.043 1228.34 211.747 1145.61 188.675C1137.74 193.607 1129.87 197.075 1119.1 199.179C1097.08 203.482 1115.85 189.595 1117.95 174.063C1113.28 168.321 1110.23 161.339 1106.06 153.97C1097.64 149.094 1083.94 144.927 1062.41 142.205C1046.59 140.204 1061.59 127.22 1079.63 110.147C1078.24 105.351 1077.58 100.204 1077.94 94.5C1078.72 82.3832 1092.31 72.8369 1103.19 62.5922C1106.67 59.3145 1111 58.0335 1115.51 57.3884C1115.29 46.2959 1107.05 36.0212 1085 28C1068.38 21.9523 1120.4 21.1539 1139.39 23.0001C1154.44 24.4629 1146.94 36.471 1139.39 49.5286C1134.82 57.4369 1124.82 56.0554 1115.51 57.3884C1115.86 74.811 1096.43 94.2512 1079.63 110.147C1083.55 123.694 1093.25 134.439 1101.79 147.033C1103.38 149.366 1104.77 151.686 1106.06 153.97C1116.55 160.041 1118.87 167.212 1117.95 174.063C1121.96 179.003 1127.15 183.026 1135.26 185.59C1138.86 186.726 1142.3 187.753 1145.61 188.675C1150.36 185.698 1155.1 182.188 1160.47 178.123C1179.35 163.842 1191.84 146.779 1198.68 128.926C1195.08 122.81 1191.07 116.754 1186.9 111C1181.3 103.273 1194 69.5 1163.5 52.5C1150.75 45.3915 1196.73 54.8993 1199.5 62.5922Z" fill="#B2A2FF"/>
<path d="M868.478 65.6588C866.308 65.7545 863.787 66.5406 860.897 68.1194C824.499 88 851.434 49.5283 851.434 49.5283C851.434 49.5283 861 56.0791 868.478 65.6588C883.306 65.0047 881.71 96.6024 869.249 127.856C896.628 166.648 949.723 139.397 836.577 176.46C835.881 177.032 835.179 177.587 834.471 178.123C820.196 188.923 810.363 195.805 793.101 199.178C779.529 201.83 787.106 194.627 796.557 184.476C787.245 178.109 783.973 159.087 775.791 147.033C774.394 144.974 772.74 143.022 770.913 141.144C761.443 140.916 750.046 141.233 736.413 142.205C714.873 143.742 727.776 132.491 740.684 113.399C737.756 109.025 736.05 104.174 736.413 98.4999C737.002 89.2944 746.919 77.4792 756.419 67.8405C756.095 61.9387 754.719 55.8176 751.939 49.5282C744.79 33.3503 786.508 31.6538 805.5 33.5C820.547 34.9628 826.043 55.0618 818.5 68.1194C811.72 79.8552 775.667 49.4499 765 59.4999C762.387 61.9615 759.424 64.7921 756.419 67.8405C757.386 85.4159 749.034 101.048 740.684 113.399C747.654 123.812 761.546 131.514 770.913 141.144C833.103 142.643 812.248 167.622 796.557 184.476C799.866 186.738 803.937 187.402 809.261 185.59C819.29 182.175 828.37 179.149 836.577 176.46C850.541 164.979 861.824 146.478 869.249 127.856C865.994 123.243 863.102 117.698 860.897 111C884.493 95.9692 878.278 78.213 868.478 65.6588Z" fill="#B2A2FF"/>
</g>
<defs>
<clipPath id="clip0_240_1537">
<rect width="1304" height="239" fill="white"/>
</clipPath>
</defs>
</svg>
