<svg width="1304" height="239" viewBox="0 0 1304 239" fill="none" xmlns="http://www.w3.org/2000/svg">
<path d="M833.069 20.1507C861.568 20.1508 864.635 50.4616 853.554 82.1506C847.907 98.3014 842.824 104.751 836.771 107.929C822.2 123.721 795.359 133.932 779.887 138.801C773.537 158.248 840.524 161.039 846.569 195.151C849.566 212.062 816.554 221.651 816.554 221.651L768.054 142.151C768.054 142.151 772.766 141.042 779.887 138.801C780.89 135.729 783.723 132.242 788.916 128.149C813.006 109.162 826.333 113.41 836.771 107.929C841.905 102.366 845.515 96.1092 846.569 89.1498C850.972 60.06 799.929 52.1653 819.554 31.1506C820.699 29.9245 826.566 20.1506 833.069 20.1507Z" fill="#E41F37"/>
<path d="M1147.29 27.9987C1175.79 27.9988 1180.73 49.9594 1175.69 83.1493C1173.81 95.4901 1168.74 101.713 1162.2 104.965C1150.89 120.181 1127.79 130.75 1110.79 136.849C1114.18 165.65 1171.3 151.901 1177.79 188.499C1180.79 205.41 1157.79 212.999 1157.79 212.999L1090.19 143.149C1090.19 143.149 1099.03 141.069 1110.79 136.849C1110.52 134.565 1110.59 132.013 1111.05 129.148C1115.62 100.611 1144.37 113.836 1162.2 104.965C1165.57 100.439 1167.89 95.5018 1168.7 90.1485C1173.1 61.0587 1114.16 60.5134 1133.79 39.4987C1134.93 38.2726 1140.79 27.9986 1147.29 27.9987Z" fill="#E41F37"/>
<path d="M506.236 16.4994C534.736 16.4995 532.702 60.3094 521.621 91.9984C516.187 107.541 507.374 109.887 497.842 108.635C485.1 119.36 466.754 126.096 453.891 129.81C450.775 172.782 518.998 148.473 525.736 186.499C528.733 203.41 498.736 218.999 498.736 218.999L438.736 133.499C438.736 133.499 445.006 132.375 453.891 129.81C454.012 128.143 454.24 126.375 454.583 124.499C460.529 91.9899 480.39 106.343 497.842 108.635C505.303 102.355 510.843 94.7081 512.236 85.4992C516.639 56.4094 473.02 42.4733 492.645 21.4586C493.79 20.2325 499.734 16.4993 506.236 16.4994Z" fill="#E41F37"/>
<path d="M157.112 20.4276C181.758 -0.879973 211.671 54.8125 205.694 87.8466C202.034 108.079 189.438 109.602 175.575 108.872C163.276 117.076 146.584 121.755 133.651 124.339C132.895 126.481 132.262 128.892 131.765 131.605C122.573 181.869 214.309 162.439 198.694 197.165C191.651 212.829 166.377 225.414 166.377 225.414L113.797 127.263C113.797 127.263 122.268 126.613 133.651 124.339C140.841 103.958 159.103 108.005 175.575 108.872C184.218 103.107 190.69 95.6022 192.165 85.8618C196.567 56.7721 134.394 44.4015 154.02 23.3868C155.165 22.1608 155.852 21.517 157.112 20.4276Z" fill="#E41F37"/>
</svg>
